<mxfile host="app.diagrams.net" modified="2021-03-09T10:06:28.526Z" agent="5.0 (Windows)" etag="KB-1w636FK0qG2nIDpoP" version="14.4.5" type="github">
  <diagram id="mLUJDpH1wmliNS9uJfuS" name="Page-1">
    <mxGraphModel dx="8770" dy="1288" grid="0" gridSize="10" guides="0" tooltips="0" connect="0" arrows="0" fold="1" page="0" pageScale="1" pageWidth="850" pageHeight="1100" math="0" shadow="0">
      <root>
        <mxCell id="0" />
        <mxCell id="1" parent="0" />
        <mxCell id="apG5epZcIP5jZTuryMaB-10" value="Product" style="swimlane;fontStyle=1;align=center;verticalAlign=top;childLayout=stackLayout;horizontal=1;startSize=26;horizontalStack=0;resizeParent=1;resizeParentMax=0;resizeLast=0;collapsible=1;marginBottom=0;" parent="1" vertex="1">
          <mxGeometry x="345" y="90" width="160" height="88" as="geometry" />
        </mxCell>
        <mxCell id="apG5epZcIP5jZTuryMaB-11" value="- price&#xa;- weight&#xa;- paintable&#xa;" style="text;strokeColor=none;fillColor=none;align=left;verticalAlign=top;spacingLeft=4;spacingRight=4;overflow=hidden;rotatable=0;points=[[0,0.5],[1,0.5]];portConstraint=eastwest;" parent="apG5epZcIP5jZTuryMaB-10" vertex="1">
          <mxGeometry y="26" width="160" height="54" as="geometry" />
        </mxCell>
        <mxCell id="apG5epZcIP5jZTuryMaB-12" value="" style="line;strokeWidth=1;fillColor=none;align=left;verticalAlign=middle;spacingTop=-1;spacingLeft=3;spacingRight=3;rotatable=0;labelPosition=right;points=[];portConstraint=eastwest;" parent="apG5epZcIP5jZTuryMaB-10" vertex="1">
          <mxGeometry y="80" width="160" height="8" as="geometry" />
        </mxCell>
        <mxCell id="apG5epZcIP5jZTuryMaB-19" value="Materials" style="swimlane;fontStyle=1;align=center;verticalAlign=top;childLayout=stackLayout;horizontal=1;startSize=26;horizontalStack=0;resizeParent=1;resizeParentMax=0;resizeLast=0;collapsible=1;marginBottom=0;" parent="1" vertex="1">
          <mxGeometry x="70" y="260" width="160" height="58" as="geometry" />
        </mxCell>
        <mxCell id="apG5epZcIP5jZTuryMaB-20" value="- isFragile" style="text;strokeColor=none;fillColor=none;align=left;verticalAlign=top;spacingLeft=4;spacingRight=4;overflow=hidden;rotatable=0;points=[[0,0.5],[1,0.5]];portConstraint=eastwest;" parent="apG5epZcIP5jZTuryMaB-19" vertex="1">
          <mxGeometry y="26" width="160" height="24" as="geometry" />
        </mxCell>
        <mxCell id="apG5epZcIP5jZTuryMaB-21" value="" style="line;strokeWidth=1;fillColor=none;align=left;verticalAlign=middle;spacingTop=-1;spacingLeft=3;spacingRight=3;rotatable=0;labelPosition=right;points=[];portConstraint=eastwest;" parent="apG5epZcIP5jZTuryMaB-19" vertex="1">
          <mxGeometry y="50" width="160" height="8" as="geometry" />
        </mxCell>
        <mxCell id="apG5epZcIP5jZTuryMaB-23" value="Componets" style="swimlane;fontStyle=1;align=center;verticalAlign=top;childLayout=stackLayout;horizontal=1;startSize=26;horizontalStack=0;resizeParent=1;resizeParentMax=0;resizeLast=0;collapsible=1;marginBottom=0;" parent="1" vertex="1">
          <mxGeometry x="620" y="260" width="160" height="68" as="geometry" />
        </mxCell>
        <mxCell id="apG5epZcIP5jZTuryMaB-24" value="- exchangable" style="text;strokeColor=none;fillColor=none;align=left;verticalAlign=top;spacingLeft=4;spacingRight=4;overflow=hidden;rotatable=0;points=[[0,0.5],[1,0.5]];portConstraint=eastwest;" parent="apG5epZcIP5jZTuryMaB-23" vertex="1">
          <mxGeometry y="26" width="160" height="34" as="geometry" />
        </mxCell>
        <mxCell id="apG5epZcIP5jZTuryMaB-25" value="" style="line;strokeWidth=1;fillColor=none;align=left;verticalAlign=middle;spacingTop=-1;spacingLeft=3;spacingRight=3;rotatable=0;labelPosition=right;points=[];portConstraint=eastwest;" parent="apG5epZcIP5jZTuryMaB-23" vertex="1">
          <mxGeometry y="60" width="160" height="8" as="geometry" />
        </mxCell>
        <mxCell id="apG5epZcIP5jZTuryMaB-27" value="Sand" style="swimlane;fontStyle=1;align=center;verticalAlign=top;childLayout=stackLayout;horizontal=1;startSize=26;horizontalStack=0;resizeParent=1;resizeParentMax=0;resizeLast=0;collapsible=1;marginBottom=0;" parent="1" vertex="1">
          <mxGeometry x="-110" y="390" width="160" height="68" as="geometry" />
        </mxCell>
        <mxCell id="apG5epZcIP5jZTuryMaB-28" value="- matType&#xa;- color&#xa;" style="text;strokeColor=none;fillColor=none;align=left;verticalAlign=top;spacingLeft=4;spacingRight=4;overflow=hidden;rotatable=0;points=[[0,0.5],[1,0.5]];portConstraint=eastwest;" parent="apG5epZcIP5jZTuryMaB-27" vertex="1">
          <mxGeometry y="26" width="160" height="34" as="geometry" />
        </mxCell>
        <mxCell id="apG5epZcIP5jZTuryMaB-29" value="" style="line;strokeWidth=1;fillColor=none;align=left;verticalAlign=middle;spacingTop=-1;spacingLeft=3;spacingRight=3;rotatable=0;labelPosition=right;points=[];portConstraint=eastwest;" parent="apG5epZcIP5jZTuryMaB-27" vertex="1">
          <mxGeometry y="60" width="160" height="8" as="geometry" />
        </mxCell>
        <mxCell id="apG5epZcIP5jZTuryMaB-31" value="Wood" style="swimlane;fontStyle=1;align=center;verticalAlign=top;childLayout=stackLayout;horizontal=1;startSize=26;horizontalStack=0;resizeParent=1;resizeParentMax=0;resizeLast=0;collapsible=1;marginBottom=0;" parent="1" vertex="1">
          <mxGeometry x="70" y="390" width="160" height="98" as="geometry" />
        </mxCell>
        <mxCell id="apG5epZcIP5jZTuryMaB-32" value="- lenght&#xa;- widht&#xa;- height&#xa;- matType&#xa;&#xa;&#xa;" style="text;strokeColor=none;fillColor=none;align=left;verticalAlign=top;spacingLeft=4;spacingRight=4;overflow=hidden;rotatable=0;points=[[0,0.5],[1,0.5]];portConstraint=eastwest;" parent="apG5epZcIP5jZTuryMaB-31" vertex="1">
          <mxGeometry y="26" width="160" height="64" as="geometry" />
        </mxCell>
        <mxCell id="apG5epZcIP5jZTuryMaB-33" value="" style="line;strokeWidth=1;fillColor=none;align=left;verticalAlign=middle;spacingTop=-1;spacingLeft=3;spacingRight=3;rotatable=0;labelPosition=right;points=[];portConstraint=eastwest;" parent="apG5epZcIP5jZTuryMaB-31" vertex="1">
          <mxGeometry y="90" width="160" height="8" as="geometry" />
        </mxCell>
        <mxCell id="apG5epZcIP5jZTuryMaB-35" value="Cement" style="swimlane;fontStyle=1;align=center;verticalAlign=top;childLayout=stackLayout;horizontal=1;startSize=26;horizontalStack=0;resizeParent=1;resizeParentMax=0;resizeLast=0;collapsible=1;marginBottom=0;" parent="1" vertex="1">
          <mxGeometry x="250" y="390" width="160" height="60" as="geometry" />
        </mxCell>
        <mxCell id="apG5epZcIP5jZTuryMaB-36" value="- brand" style="text;strokeColor=none;fillColor=none;align=left;verticalAlign=top;spacingLeft=4;spacingRight=4;overflow=hidden;rotatable=0;points=[[0,0.5],[1,0.5]];portConstraint=eastwest;" parent="apG5epZcIP5jZTuryMaB-35" vertex="1">
          <mxGeometry y="26" width="160" height="26" as="geometry" />
        </mxCell>
        <mxCell id="apG5epZcIP5jZTuryMaB-37" value="" style="line;strokeWidth=1;fillColor=none;align=left;verticalAlign=middle;spacingTop=-1;spacingLeft=3;spacingRight=3;rotatable=0;labelPosition=right;points=[];portConstraint=eastwest;" parent="apG5epZcIP5jZTuryMaB-35" vertex="1">
          <mxGeometry y="52" width="160" height="8" as="geometry" />
        </mxCell>
        <mxCell id="apG5epZcIP5jZTuryMaB-39" value="Door" style="swimlane;fontStyle=1;align=center;verticalAlign=top;childLayout=stackLayout;horizontal=1;startSize=26;horizontalStack=0;resizeParent=1;resizeParentMax=0;resizeLast=0;collapsible=1;marginBottom=0;" parent="1" vertex="1">
          <mxGeometry x="505" y="388" width="160" height="98" as="geometry" />
        </mxCell>
        <mxCell id="apG5epZcIP5jZTuryMaB-40" value="- lenght&#xa;- widht&#xa;- height&#xa;- matType&#xa;" style="text;strokeColor=none;fillColor=none;align=left;verticalAlign=top;spacingLeft=4;spacingRight=4;overflow=hidden;rotatable=0;points=[[0,0.5],[1,0.5]];portConstraint=eastwest;" parent="apG5epZcIP5jZTuryMaB-39" vertex="1">
          <mxGeometry y="26" width="160" height="64" as="geometry" />
        </mxCell>
        <mxCell id="apG5epZcIP5jZTuryMaB-41" value="" style="line;strokeWidth=1;fillColor=none;align=left;verticalAlign=middle;spacingTop=-1;spacingLeft=3;spacingRight=3;rotatable=0;labelPosition=right;points=[];portConstraint=eastwest;" parent="apG5epZcIP5jZTuryMaB-39" vertex="1">
          <mxGeometry y="90" width="160" height="8" as="geometry" />
        </mxCell>
        <mxCell id="apG5epZcIP5jZTuryMaB-45" value="Ceramic" style="swimlane;fontStyle=1;align=center;verticalAlign=top;childLayout=stackLayout;horizontal=1;startSize=26;horizontalStack=0;resizeParent=1;resizeParentMax=0;resizeLast=0;collapsible=1;marginBottom=0;" parent="1" vertex="1">
          <mxGeometry x="730" y="390" width="160" height="88" as="geometry" />
        </mxCell>
        <mxCell id="apG5epZcIP5jZTuryMaB-46" value="- lenght&#xa;- width&#xa;- matType&#xa;" style="text;strokeColor=none;fillColor=none;align=left;verticalAlign=top;spacingLeft=4;spacingRight=4;overflow=hidden;rotatable=0;points=[[0,0.5],[1,0.5]];portConstraint=eastwest;" parent="apG5epZcIP5jZTuryMaB-45" vertex="1">
          <mxGeometry y="26" width="160" height="54" as="geometry" />
        </mxCell>
        <mxCell id="apG5epZcIP5jZTuryMaB-47" value="" style="line;strokeWidth=1;fillColor=none;align=left;verticalAlign=middle;spacingTop=-1;spacingLeft=3;spacingRight=3;rotatable=0;labelPosition=right;points=[];portConstraint=eastwest;" parent="apG5epZcIP5jZTuryMaB-45" vertex="1">
          <mxGeometry y="80" width="160" height="8" as="geometry" />
        </mxCell>
        <mxCell id="apG5epZcIP5jZTuryMaB-52" value="Extends" style="endArrow=block;endSize=16;endFill=0;html=1;exitX=0.5;exitY=0;exitDx=0;exitDy=0;" parent="1" source="apG5epZcIP5jZTuryMaB-19" edge="1">
          <mxGeometry width="160" relative="1" as="geometry">
            <mxPoint x="200" y="146.5" as="sourcePoint" />
            <mxPoint x="350" y="146.5" as="targetPoint" />
            <Array as="points">
              <mxPoint x="160" y="160" />
            </Array>
          </mxGeometry>
        </mxCell>
        <mxCell id="apG5epZcIP5jZTuryMaB-53" value="Extends" style="endArrow=block;endSize=16;endFill=0;html=1;exitX=0.5;exitY=0;exitDx=0;exitDy=0;entryX=1;entryY=0.5;entryDx=0;entryDy=0;" parent="1" source="apG5epZcIP5jZTuryMaB-23" target="apG5epZcIP5jZTuryMaB-11" edge="1">
          <mxGeometry width="160" relative="1" as="geometry">
            <mxPoint x="690" y="230" as="sourcePoint" />
            <mxPoint x="910" y="146.5" as="targetPoint" />
            <Array as="points">
              <mxPoint x="680" y="160" />
            </Array>
          </mxGeometry>
        </mxCell>
        <mxCell id="apG5epZcIP5jZTuryMaB-60" value="" style="endArrow=none;html=1;exitX=0.5;exitY=0;exitDx=0;exitDy=0;" parent="1" source="apG5epZcIP5jZTuryMaB-35" edge="1">
          <mxGeometry width="50" height="50" relative="1" as="geometry">
            <mxPoint x="330" y="370" as="sourcePoint" />
            <mxPoint x="330" y="360" as="targetPoint" />
          </mxGeometry>
        </mxCell>
        <mxCell id="apG5epZcIP5jZTuryMaB-61" value="" style="endArrow=none;html=1;" parent="1" edge="1">
          <mxGeometry width="50" height="50" relative="1" as="geometry">
            <mxPoint x="-20" y="388" as="sourcePoint" />
            <mxPoint x="-20" y="360" as="targetPoint" />
          </mxGeometry>
        </mxCell>
        <mxCell id="apG5epZcIP5jZTuryMaB-62" value="" style="endArrow=none;html=1;" parent="1" edge="1">
          <mxGeometry width="50" height="50" relative="1" as="geometry">
            <mxPoint x="-20" y="360" as="sourcePoint" />
            <mxPoint x="330" y="360" as="targetPoint" />
          </mxGeometry>
        </mxCell>
        <mxCell id="apG5epZcIP5jZTuryMaB-66" value="Extends" style="endArrow=block;endSize=16;endFill=0;html=1;exitX=0.5;exitY=0;exitDx=0;exitDy=0;entryX=0.5;entryY=1;entryDx=0;entryDy=0;" parent="1" source="apG5epZcIP5jZTuryMaB-31" target="apG5epZcIP5jZTuryMaB-19" edge="1">
          <mxGeometry width="160" relative="1" as="geometry">
            <mxPoint x="360" y="280" as="sourcePoint" />
            <mxPoint x="400" y="210" as="targetPoint" />
          </mxGeometry>
        </mxCell>
        <mxCell id="apG5epZcIP5jZTuryMaB-67" value="Extends" style="endArrow=block;endSize=16;endFill=0;html=1;exitX=0.5;exitY=0;exitDx=0;exitDy=0;entryX=-0.012;entryY=0.912;entryDx=0;entryDy=0;entryPerimeter=0;" parent="1" source="apG5epZcIP5jZTuryMaB-39" target="apG5epZcIP5jZTuryMaB-24" edge="1">
          <mxGeometry width="160" relative="1" as="geometry">
            <mxPoint x="510" y="330" as="sourcePoint" />
            <mxPoint x="670" y="330" as="targetPoint" />
            <Array as="points">
              <mxPoint x="560" y="317" />
            </Array>
          </mxGeometry>
        </mxCell>
        <mxCell id="apG5epZcIP5jZTuryMaB-68" value="Extends" style="endArrow=block;endSize=16;endFill=0;html=1;exitX=0.5;exitY=0;exitDx=0;exitDy=0;entryX=1.013;entryY=0.735;entryDx=0;entryDy=0;entryPerimeter=0;" parent="1" source="apG5epZcIP5jZTuryMaB-45" target="apG5epZcIP5jZTuryMaB-24" edge="1">
          <mxGeometry width="160" relative="1" as="geometry">
            <mxPoint x="820" y="370" as="sourcePoint" />
            <mxPoint x="980" y="370" as="targetPoint" />
            <Array as="points">
              <mxPoint x="850" y="330" />
            </Array>
          </mxGeometry>
        </mxCell>
        <mxCell id="apG5epZcIP5jZTuryMaB-69" value="Store" style="swimlane;fontStyle=1;align=center;verticalAlign=top;childLayout=stackLayout;horizontal=1;startSize=26;horizontalStack=0;resizeParent=1;resizeParentMax=0;resizeLast=0;collapsible=1;marginBottom=0;" parent="1" vertex="1">
          <mxGeometry x="760" y="90" width="160" height="120" as="geometry" />
        </mxCell>
        <mxCell id="apG5epZcIP5jZTuryMaB-70" value="- products" style="text;strokeColor=none;fillColor=none;align=left;verticalAlign=top;spacingLeft=4;spacingRight=4;overflow=hidden;rotatable=0;points=[[0,0.5],[1,0.5]];portConstraint=eastwest;" parent="apG5epZcIP5jZTuryMaB-69" vertex="1">
          <mxGeometry y="26" width="160" height="26" as="geometry" />
        </mxCell>
        <mxCell id="apG5epZcIP5jZTuryMaB-71" value="" style="line;strokeWidth=1;fillColor=none;align=left;verticalAlign=middle;spacingTop=-1;spacingLeft=3;spacingRight=3;rotatable=0;labelPosition=right;points=[];portConstraint=eastwest;" parent="apG5epZcIP5jZTuryMaB-69" vertex="1">
          <mxGeometry y="52" width="160" height="8" as="geometry" />
        </mxCell>
        <mxCell id="apG5epZcIP5jZTuryMaB-72" value="setProduct&#xa;numOfProduct&#xa;getTotal" style="text;strokeColor=none;fillColor=none;align=left;verticalAlign=top;spacingLeft=4;spacingRight=4;overflow=hidden;rotatable=0;points=[[0,0.5],[1,0.5]];portConstraint=eastwest;" parent="apG5epZcIP5jZTuryMaB-69" vertex="1">
          <mxGeometry y="60" width="160" height="60" as="geometry" />
        </mxCell>
        <mxCell id="apG5epZcIP5jZTuryMaB-73" value="" style="endArrow=diamondThin;endFill=1;endSize=24;html=1;entryX=1;entryY=0.25;entryDx=0;entryDy=0;exitX=0;exitY=0.5;exitDx=0;exitDy=0;" parent="1" source="apG5epZcIP5jZTuryMaB-70" target="apG5epZcIP5jZTuryMaB-10" edge="1">
          <mxGeometry width="160" relative="1" as="geometry">
            <mxPoint x="600" y="70" as="sourcePoint" />
            <mxPoint x="760" y="70" as="targetPoint" />
            <Array as="points">
              <mxPoint x="640" y="80" />
            </Array>
          </mxGeometry>
        </mxCell>
        <mxCell id="pfJo_cy54SWFVT3D0SWb-2" value="&lt;font size=&quot;3&quot;&gt;A1&lt;/font&gt;" style="ellipse;whiteSpace=wrap;html=1;" parent="1" vertex="1">
          <mxGeometry x="1210" y="89" width="120" height="80" as="geometry" />
        </mxCell>
        <mxCell id="pfJo_cy54SWFVT3D0SWb-3" value="&lt;font size=&quot;3&quot;&gt;A2&lt;/font&gt;" style="ellipse;whiteSpace=wrap;html=1;" parent="1" vertex="1">
          <mxGeometry x="1210" y="190" width="120" height="80" as="geometry" />
        </mxCell>
        <mxCell id="pfJo_cy54SWFVT3D0SWb-4" value="&lt;font size=&quot;3&quot;&gt;A3&lt;/font&gt;" style="ellipse;whiteSpace=wrap;html=1;" parent="1" vertex="1">
          <mxGeometry x="1210" y="290" width="120" height="80" as="geometry" />
        </mxCell>
        <mxCell id="pfJo_cy54SWFVT3D0SWb-5" value="&lt;font size=&quot;3&quot;&gt;A4&lt;/font&gt;" style="ellipse;whiteSpace=wrap;html=1;" parent="1" vertex="1">
          <mxGeometry x="1210" y="390" width="120" height="80" as="geometry" />
        </mxCell>
        <mxCell id="pfJo_cy54SWFVT3D0SWb-6" value="&lt;font size=&quot;3&quot;&gt;A5&lt;/font&gt;" style="ellipse;whiteSpace=wrap;html=1;" parent="1" vertex="1">
          <mxGeometry x="1210" y="488" width="120" height="80" as="geometry" />
        </mxCell>
        <mxCell id="pfJo_cy54SWFVT3D0SWb-7" value="&lt;font size=&quot;3&quot;&gt;A6&lt;/font&gt;" style="ellipse;whiteSpace=wrap;html=1;" parent="1" vertex="1">
          <mxGeometry x="1210" y="590" width="120" height="80" as="geometry" />
        </mxCell>
        <mxCell id="pfJo_cy54SWFVT3D0SWb-9" value="" style="endArrow=none;html=1;" parent="1" edge="1">
          <mxGeometry width="50" height="50" relative="1" as="geometry">
            <mxPoint x="1330" y="130" as="sourcePoint" />
            <mxPoint x="1390" y="130" as="targetPoint" />
          </mxGeometry>
        </mxCell>
        <mxCell id="pfJo_cy54SWFVT3D0SWb-10" value="" style="endArrow=none;html=1;" parent="1" edge="1">
          <mxGeometry width="50" height="50" relative="1" as="geometry">
            <mxPoint x="1390" y="130" as="sourcePoint" />
            <mxPoint x="1390" y="230" as="targetPoint" />
          </mxGeometry>
        </mxCell>
        <mxCell id="pfJo_cy54SWFVT3D0SWb-11" value="" style="endArrow=none;html=1;exitX=1;exitY=0.5;exitDx=0;exitDy=0;" parent="1" source="pfJo_cy54SWFVT3D0SWb-3" edge="1">
          <mxGeometry width="50" height="50" relative="1" as="geometry">
            <mxPoint x="1340" y="250" as="sourcePoint" />
            <mxPoint x="1390" y="230" as="targetPoint" />
          </mxGeometry>
        </mxCell>
        <mxCell id="pfJo_cy54SWFVT3D0SWb-12" value="" style="endArrow=none;html=1;" parent="1" edge="1">
          <mxGeometry width="50" height="50" relative="1" as="geometry">
            <mxPoint x="1330" y="130" as="sourcePoint" />
            <mxPoint x="1390" y="130" as="targetPoint" />
          </mxGeometry>
        </mxCell>
        <mxCell id="pfJo_cy54SWFVT3D0SWb-13" value="" style="endArrow=none;html=1;" parent="1" edge="1">
          <mxGeometry width="50" height="50" relative="1" as="geometry">
            <mxPoint x="1390" y="130" as="sourcePoint" />
            <mxPoint x="1390" y="230" as="targetPoint" />
          </mxGeometry>
        </mxCell>
        <mxCell id="pfJo_cy54SWFVT3D0SWb-14" value="" style="endArrow=none;html=1;exitX=1;exitY=0.5;exitDx=0;exitDy=0;" parent="1" edge="1">
          <mxGeometry width="50" height="50" relative="1" as="geometry">
            <mxPoint x="1330" y="230" as="sourcePoint" />
            <mxPoint x="1390" y="230" as="targetPoint" />
          </mxGeometry>
        </mxCell>
        <mxCell id="pfJo_cy54SWFVT3D0SWb-16" value="" style="endArrow=none;html=1;" parent="1" edge="1">
          <mxGeometry width="50" height="50" relative="1" as="geometry">
            <mxPoint x="1330" y="330" as="sourcePoint" />
            <mxPoint x="1390" y="330" as="targetPoint" />
          </mxGeometry>
        </mxCell>
        <mxCell id="pfJo_cy54SWFVT3D0SWb-17" value="" style="endArrow=none;html=1;" parent="1" edge="1">
          <mxGeometry width="50" height="50" relative="1" as="geometry">
            <mxPoint x="1390" y="330" as="sourcePoint" />
            <mxPoint x="1390" y="430" as="targetPoint" />
          </mxGeometry>
        </mxCell>
        <mxCell id="pfJo_cy54SWFVT3D0SWb-18" value="" style="endArrow=none;html=1;exitX=1;exitY=0.5;exitDx=0;exitDy=0;" parent="1" edge="1">
          <mxGeometry width="50" height="50" relative="1" as="geometry">
            <mxPoint x="1330" y="430" as="sourcePoint" />
            <mxPoint x="1390" y="430" as="targetPoint" />
          </mxGeometry>
        </mxCell>
        <mxCell id="pfJo_cy54SWFVT3D0SWb-19" value="" style="endArrow=none;html=1;" parent="1" edge="1">
          <mxGeometry width="50" height="50" relative="1" as="geometry">
            <mxPoint x="1330" y="530" as="sourcePoint" />
            <mxPoint x="1390" y="530" as="targetPoint" />
          </mxGeometry>
        </mxCell>
        <mxCell id="pfJo_cy54SWFVT3D0SWb-20" value="" style="endArrow=none;html=1;" parent="1" edge="1">
          <mxGeometry width="50" height="50" relative="1" as="geometry">
            <mxPoint x="1390" y="530" as="sourcePoint" />
            <mxPoint x="1390" y="630" as="targetPoint" />
          </mxGeometry>
        </mxCell>
        <mxCell id="pfJo_cy54SWFVT3D0SWb-21" value="" style="endArrow=none;html=1;exitX=1;exitY=0.5;exitDx=0;exitDy=0;" parent="1" edge="1">
          <mxGeometry width="50" height="50" relative="1" as="geometry">
            <mxPoint x="1330" y="630" as="sourcePoint" />
            <mxPoint x="1390" y="630" as="targetPoint" />
          </mxGeometry>
        </mxCell>
        <mxCell id="pfJo_cy54SWFVT3D0SWb-25" value="" style="endArrow=none;html=1;" parent="1" edge="1">
          <mxGeometry width="50" height="50" relative="1" as="geometry">
            <mxPoint x="1390" y="381" as="sourcePoint" />
            <mxPoint x="1570" y="380" as="targetPoint" />
          </mxGeometry>
        </mxCell>
        <mxCell id="pfJo_cy54SWFVT3D0SWb-26" value="" style="endArrow=none;html=1;" parent="1" edge="1">
          <mxGeometry width="50" height="50" relative="1" as="geometry">
            <mxPoint x="1570" y="381" as="sourcePoint" />
            <mxPoint x="1570" y="601" as="targetPoint" />
          </mxGeometry>
        </mxCell>
        <mxCell id="pfJo_cy54SWFVT3D0SWb-27" value="" style="endArrow=none;html=1;" parent="1" edge="1">
          <mxGeometry width="50" height="50" relative="1" as="geometry">
            <mxPoint x="1390" y="600" as="sourcePoint" />
            <mxPoint x="1570" y="600" as="targetPoint" />
          </mxGeometry>
        </mxCell>
        <mxCell id="pfJo_cy54SWFVT3D0SWb-28" value="" style="endArrow=none;html=1;" parent="1" edge="1">
          <mxGeometry width="50" height="50" relative="1" as="geometry">
            <mxPoint x="1390" y="179" as="sourcePoint" />
            <mxPoint x="1650" y="178" as="targetPoint" />
          </mxGeometry>
        </mxCell>
        <mxCell id="pfJo_cy54SWFVT3D0SWb-29" value="" style="endArrow=none;html=1;" parent="1" edge="1">
          <mxGeometry width="50" height="50" relative="1" as="geometry">
            <mxPoint x="1650" y="178" as="sourcePoint" />
            <mxPoint x="1650" y="489" as="targetPoint" />
          </mxGeometry>
        </mxCell>
        <mxCell id="pfJo_cy54SWFVT3D0SWb-30" value="" style="endArrow=none;html=1;" parent="1" edge="1">
          <mxGeometry width="50" height="50" relative="1" as="geometry">
            <mxPoint x="1570" y="490" as="sourcePoint" />
            <mxPoint x="1650" y="490" as="targetPoint" />
          </mxGeometry>
        </mxCell>
        <mxCell id="pfJo_cy54SWFVT3D0SWb-42" style="edgeStyle=orthogonalEdgeStyle;rounded=0;orthogonalLoop=1;jettySize=auto;html=1;exitX=0.5;exitY=1;exitDx=0;exitDy=0;entryX=0.5;entryY=0;entryDx=0;entryDy=0;" parent="1" source="pfJo_cy54SWFVT3D0SWb-31" target="pfJo_cy54SWFVT3D0SWb-32" edge="1">
          <mxGeometry relative="1" as="geometry">
            <Array as="points">
              <mxPoint x="-940" y="190" />
              <mxPoint x="-1100" y="190" />
            </Array>
          </mxGeometry>
        </mxCell>
        <mxCell id="pfJo_cy54SWFVT3D0SWb-43" style="edgeStyle=orthogonalEdgeStyle;rounded=0;orthogonalLoop=1;jettySize=auto;html=1;exitX=0.5;exitY=1;exitDx=0;exitDy=0;entryX=0.5;entryY=0;entryDx=0;entryDy=0;" parent="1" source="pfJo_cy54SWFVT3D0SWb-31" target="pfJo_cy54SWFVT3D0SWb-33" edge="1">
          <mxGeometry relative="1" as="geometry">
            <Array as="points">
              <mxPoint x="-940" y="190" />
              <mxPoint x="-800" y="190" />
            </Array>
          </mxGeometry>
        </mxCell>
        <mxCell id="pfJo_cy54SWFVT3D0SWb-31" value="&lt;font size=&quot;3&quot;&gt;(1,6)&lt;/font&gt;" style="rounded=0;whiteSpace=wrap;html=1;" parent="1" vertex="1">
          <mxGeometry x="-1000" y="118" width="120" height="60" as="geometry" />
        </mxCell>
        <mxCell id="pfJo_cy54SWFVT3D0SWb-44" style="edgeStyle=orthogonalEdgeStyle;rounded=0;orthogonalLoop=1;jettySize=auto;html=1;exitX=0.5;exitY=1;exitDx=0;exitDy=0;entryX=0.5;entryY=0;entryDx=0;entryDy=0;" parent="1" source="pfJo_cy54SWFVT3D0SWb-32" target="pfJo_cy54SWFVT3D0SWb-34" edge="1">
          <mxGeometry relative="1" as="geometry" />
        </mxCell>
        <mxCell id="pfJo_cy54SWFVT3D0SWb-45" style="edgeStyle=orthogonalEdgeStyle;rounded=0;orthogonalLoop=1;jettySize=auto;html=1;exitX=0.5;exitY=1;exitDx=0;exitDy=0;entryX=0.5;entryY=0;entryDx=0;entryDy=0;" parent="1" source="pfJo_cy54SWFVT3D0SWb-32" target="pfJo_cy54SWFVT3D0SWb-35" edge="1">
          <mxGeometry relative="1" as="geometry" />
        </mxCell>
        <mxCell id="pfJo_cy54SWFVT3D0SWb-32" value="&lt;font size=&quot;3&quot;&gt;(3,6)&lt;/font&gt;" style="rounded=0;whiteSpace=wrap;html=1;" parent="1" vertex="1">
          <mxGeometry x="-1160" y="210" width="120" height="60" as="geometry" />
        </mxCell>
        <mxCell id="pfJo_cy54SWFVT3D0SWb-46" style="edgeStyle=orthogonalEdgeStyle;rounded=0;orthogonalLoop=1;jettySize=auto;html=1;exitX=0.5;exitY=1;exitDx=0;exitDy=0;entryX=0.5;entryY=0;entryDx=0;entryDy=0;" parent="1" source="pfJo_cy54SWFVT3D0SWb-33" target="pfJo_cy54SWFVT3D0SWb-36" edge="1">
          <mxGeometry relative="1" as="geometry" />
        </mxCell>
        <mxCell id="pfJo_cy54SWFVT3D0SWb-47" style="edgeStyle=orthogonalEdgeStyle;rounded=0;orthogonalLoop=1;jettySize=auto;html=1;exitX=0.5;exitY=1;exitDx=0;exitDy=0;" parent="1" source="pfJo_cy54SWFVT3D0SWb-33" target="pfJo_cy54SWFVT3D0SWb-37" edge="1">
          <mxGeometry relative="1" as="geometry" />
        </mxCell>
        <mxCell id="pfJo_cy54SWFVT3D0SWb-33" value="&lt;font size=&quot;3&quot;&gt;(3,6)&lt;/font&gt;" style="rounded=0;whiteSpace=wrap;html=1;" parent="1" vertex="1">
          <mxGeometry x="-860" y="210" width="120" height="60" as="geometry" />
        </mxCell>
        <mxCell id="pfJo_cy54SWFVT3D0SWb-34" value="&lt;font size=&quot;3&quot;&gt;(1,1)&lt;/font&gt;" style="rounded=0;whiteSpace=wrap;html=1;" parent="1" vertex="1">
          <mxGeometry x="-1330" y="350" width="120" height="60" as="geometry" />
        </mxCell>
        <mxCell id="pfJo_cy54SWFVT3D0SWb-35" value="&lt;font size=&quot;3&quot;&gt;(2,2)&lt;/font&gt;" style="rounded=0;whiteSpace=wrap;html=1;" parent="1" vertex="1">
          <mxGeometry x="-1050" y="350" width="120" height="60" as="geometry" />
        </mxCell>
        <mxCell id="pfJo_cy54SWFVT3D0SWb-48" style="edgeStyle=orthogonalEdgeStyle;rounded=0;orthogonalLoop=1;jettySize=auto;html=1;exitX=0.5;exitY=1;exitDx=0;exitDy=0;entryX=0.5;entryY=0;entryDx=0;entryDy=0;" parent="1" source="pfJo_cy54SWFVT3D0SWb-36" target="pfJo_cy54SWFVT3D0SWb-38" edge="1">
          <mxGeometry relative="1" as="geometry" />
        </mxCell>
        <mxCell id="pfJo_cy54SWFVT3D0SWb-49" style="edgeStyle=orthogonalEdgeStyle;rounded=0;orthogonalLoop=1;jettySize=auto;html=1;exitX=0.5;exitY=1;exitDx=0;exitDy=0;entryX=0.5;entryY=0;entryDx=0;entryDy=0;" parent="1" source="pfJo_cy54SWFVT3D0SWb-36" target="pfJo_cy54SWFVT3D0SWb-39" edge="1">
          <mxGeometry relative="1" as="geometry" />
        </mxCell>
        <mxCell id="pfJo_cy54SWFVT3D0SWb-36" value="&lt;font size=&quot;3&quot;&gt;(3,4)&lt;/font&gt;" style="rounded=0;whiteSpace=wrap;html=1;" parent="1" vertex="1">
          <mxGeometry x="-860" y="350" width="120" height="60" as="geometry" />
        </mxCell>
        <mxCell id="pfJo_cy54SWFVT3D0SWb-50" style="edgeStyle=orthogonalEdgeStyle;rounded=0;orthogonalLoop=1;jettySize=auto;html=1;exitX=0.5;exitY=1;exitDx=0;exitDy=0;entryX=0.5;entryY=0;entryDx=0;entryDy=0;" parent="1" source="pfJo_cy54SWFVT3D0SWb-37" target="pfJo_cy54SWFVT3D0SWb-40" edge="1">
          <mxGeometry relative="1" as="geometry" />
        </mxCell>
        <mxCell id="pfJo_cy54SWFVT3D0SWb-51" style="edgeStyle=orthogonalEdgeStyle;rounded=0;orthogonalLoop=1;jettySize=auto;html=1;exitX=0.5;exitY=1;exitDx=0;exitDy=0;" parent="1" source="pfJo_cy54SWFVT3D0SWb-37" target="pfJo_cy54SWFVT3D0SWb-41" edge="1">
          <mxGeometry relative="1" as="geometry" />
        </mxCell>
        <mxCell id="pfJo_cy54SWFVT3D0SWb-37" value="&lt;font size=&quot;3&quot;&gt;(5,6)&lt;/font&gt;" style="rounded=0;whiteSpace=wrap;html=1;" parent="1" vertex="1">
          <mxGeometry x="-680" y="350" width="120" height="60" as="geometry" />
        </mxCell>
        <mxCell id="pfJo_cy54SWFVT3D0SWb-38" value="&lt;font size=&quot;3&quot;&gt;(3,3)&lt;/font&gt;" style="rounded=0;whiteSpace=wrap;html=1;" parent="1" vertex="1">
          <mxGeometry x="-990" y="498" width="120" height="60" as="geometry" />
        </mxCell>
        <mxCell id="pfJo_cy54SWFVT3D0SWb-39" value="&lt;font size=&quot;3&quot;&gt;(4,4)&lt;/font&gt;" style="rounded=0;whiteSpace=wrap;html=1;" parent="1" vertex="1">
          <mxGeometry x="-840" y="498" width="120" height="60" as="geometry" />
        </mxCell>
        <mxCell id="pfJo_cy54SWFVT3D0SWb-40" value="&lt;font size=&quot;3&quot;&gt;(5,5)&lt;/font&gt;" style="rounded=0;whiteSpace=wrap;html=1;" parent="1" vertex="1">
          <mxGeometry x="-690" y="498" width="120" height="60" as="geometry" />
        </mxCell>
        <mxCell id="pfJo_cy54SWFVT3D0SWb-41" value="&lt;font size=&quot;3&quot;&gt;(6,6)&lt;/font&gt;" style="rounded=0;whiteSpace=wrap;html=1;" parent="1" vertex="1">
          <mxGeometry x="-530" y="498" width="120" height="60" as="geometry" />
        </mxCell>
        <mxCell id="D6nxTHoH6CnyJpjLiKJE-1" value="&lt;font style=&quot;font-size: 36px&quot;&gt;100&lt;/font&gt;" style="ellipse;whiteSpace=wrap;html=1;" parent="1" vertex="1">
          <mxGeometry x="-1820" y="280" width="120" height="80" as="geometry" />
        </mxCell>
        <mxCell id="D6nxTHoH6CnyJpjLiKJE-3" value="&lt;font style=&quot;font-size: 36px&quot;&gt;40&lt;/font&gt;" style="ellipse;whiteSpace=wrap;html=1;aspect=fixed;" parent="1" vertex="1">
          <mxGeometry x="-2000" y="520" width="80" height="80" as="geometry" />
        </mxCell>
        <mxCell id="D6nxTHoH6CnyJpjLiKJE-4" value="&lt;font style=&quot;font-size: 36px&quot;&gt;60&lt;/font&gt;" style="ellipse;whiteSpace=wrap;html=1;aspect=fixed;" parent="1" vertex="1">
          <mxGeometry x="-1600" y="520" width="80" height="80" as="geometry" />
        </mxCell>
        <mxCell id="D6nxTHoH6CnyJpjLiKJE-5" value="&lt;font style=&quot;font-size: 36px&quot;&gt;25&lt;/font&gt;" style="ellipse;whiteSpace=wrap;html=1;aspect=fixed;" parent="1" vertex="1">
          <mxGeometry x="-1740" y="710" width="80" height="80" as="geometry" />
        </mxCell>
        <mxCell id="D6nxTHoH6CnyJpjLiKJE-7" value="&lt;font style=&quot;font-size: 36px&quot;&gt;D:20&lt;/font&gt;" style="rounded=0;whiteSpace=wrap;html=1;" parent="1" vertex="1">
          <mxGeometry x="-2230" y="640" width="120" height="60" as="geometry" />
        </mxCell>
        <mxCell id="D6nxTHoH6CnyJpjLiKJE-8" value="&lt;font style=&quot;font-size: 36px&quot;&gt;C:20&lt;/font&gt;" style="rounded=0;whiteSpace=wrap;html=1;" parent="1" vertex="1">
          <mxGeometry x="-1880" y="640" width="120" height="60" as="geometry" />
        </mxCell>
        <mxCell id="D6nxTHoH6CnyJpjLiKJE-9" value="&lt;font style=&quot;font-size: 36px&quot;&gt;A:25&lt;/font&gt;" style="rounded=0;whiteSpace=wrap;html=1;" parent="1" vertex="1">
          <mxGeometry x="-1470" y="720" width="120" height="60" as="geometry" />
        </mxCell>
        <mxCell id="D6nxTHoH6CnyJpjLiKJE-10" value="&lt;font style=&quot;font-size: 36px&quot;&gt;B:10&lt;/font&gt;" style="rounded=0;whiteSpace=wrap;html=1;" parent="1" vertex="1">
          <mxGeometry x="-1960" y="880" width="120" height="60" as="geometry" />
        </mxCell>
        <mxCell id="D6nxTHoH6CnyJpjLiKJE-11" value="&lt;font style=&quot;font-size: 36px&quot;&gt;E:15&lt;/font&gt;" style="rounded=0;whiteSpace=wrap;html=1;" parent="1" vertex="1">
          <mxGeometry x="-1590" y="880" width="120" height="60" as="geometry" />
        </mxCell>
        <mxCell id="D6nxTHoH6CnyJpjLiKJE-15" value="" style="endArrow=none;html=1;entryX=0.5;entryY=1;entryDx=0;entryDy=0;exitX=0.5;exitY=0;exitDx=0;exitDy=0;" parent="1" source="D6nxTHoH6CnyJpjLiKJE-3" edge="1">
          <mxGeometry width="50" height="50" relative="1" as="geometry">
            <mxPoint x="-1940" y="520" as="sourcePoint" />
            <mxPoint x="-1760" y="360" as="targetPoint" />
          </mxGeometry>
        </mxCell>
        <mxCell id="D6nxTHoH6CnyJpjLiKJE-16" value="" style="endArrow=none;html=1;entryX=0.5;entryY=1;entryDx=0;entryDy=0;exitX=0.5;exitY=0;exitDx=0;exitDy=0;" parent="1" source="D6nxTHoH6CnyJpjLiKJE-4" edge="1">
          <mxGeometry width="50" height="50" relative="1" as="geometry">
            <mxPoint x="-1730" y="500" as="sourcePoint" />
            <mxPoint x="-1760" y="360" as="targetPoint" />
          </mxGeometry>
        </mxCell>
        <mxCell id="D6nxTHoH6CnyJpjLiKJE-17" value="" style="endArrow=none;html=1;entryX=0.5;entryY=1;entryDx=0;entryDy=0;exitX=0.5;exitY=0;exitDx=0;exitDy=0;" parent="1" source="D6nxTHoH6CnyJpjLiKJE-7" target="D6nxTHoH6CnyJpjLiKJE-3" edge="1">
          <mxGeometry width="50" height="50" relative="1" as="geometry">
            <mxPoint x="-2110" y="650" as="sourcePoint" />
            <mxPoint x="-2060" y="600" as="targetPoint" />
          </mxGeometry>
        </mxCell>
        <mxCell id="D6nxTHoH6CnyJpjLiKJE-18" value="" style="endArrow=none;html=1;exitX=0.5;exitY=1;exitDx=0;exitDy=0;entryX=0.5;entryY=0;entryDx=0;entryDy=0;" parent="1" source="D6nxTHoH6CnyJpjLiKJE-3" target="D6nxTHoH6CnyJpjLiKJE-8" edge="1">
          <mxGeometry width="50" height="50" relative="1" as="geometry">
            <mxPoint x="-1880" y="610" as="sourcePoint" />
            <mxPoint x="-1830" y="560" as="targetPoint" />
          </mxGeometry>
        </mxCell>
        <mxCell id="D6nxTHoH6CnyJpjLiKJE-19" value="" style="endArrow=none;html=1;entryX=0.5;entryY=1;entryDx=0;entryDy=0;exitX=0.5;exitY=0;exitDx=0;exitDy=0;" parent="1" source="D6nxTHoH6CnyJpjLiKJE-5" target="D6nxTHoH6CnyJpjLiKJE-4" edge="1">
          <mxGeometry width="50" height="50" relative="1" as="geometry">
            <mxPoint x="-1650" y="700" as="sourcePoint" />
            <mxPoint x="-1600" y="650" as="targetPoint" />
          </mxGeometry>
        </mxCell>
        <mxCell id="D6nxTHoH6CnyJpjLiKJE-20" value="" style="endArrow=none;html=1;exitX=0.5;exitY=0;exitDx=0;exitDy=0;" parent="1" source="D6nxTHoH6CnyJpjLiKJE-9" edge="1">
          <mxGeometry width="50" height="50" relative="1" as="geometry">
            <mxPoint x="-1520" y="700" as="sourcePoint" />
            <mxPoint x="-1560" y="600" as="targetPoint" />
          </mxGeometry>
        </mxCell>
        <mxCell id="D6nxTHoH6CnyJpjLiKJE-21" value="" style="endArrow=none;html=1;entryX=0.5;entryY=1;entryDx=0;entryDy=0;exitX=0.5;exitY=0;exitDx=0;exitDy=0;" parent="1" source="D6nxTHoH6CnyJpjLiKJE-10" target="D6nxTHoH6CnyJpjLiKJE-5" edge="1">
          <mxGeometry width="50" height="50" relative="1" as="geometry">
            <mxPoint x="-1830" y="870" as="sourcePoint" />
            <mxPoint x="-1780" y="820" as="targetPoint" />
          </mxGeometry>
        </mxCell>
        <mxCell id="D6nxTHoH6CnyJpjLiKJE-22" value="" style="endArrow=none;html=1;exitX=0.5;exitY=0;exitDx=0;exitDy=0;" parent="1" source="D6nxTHoH6CnyJpjLiKJE-11" edge="1">
          <mxGeometry width="50" height="50" relative="1" as="geometry">
            <mxPoint x="-1650" y="840" as="sourcePoint" />
            <mxPoint x="-1700" y="790" as="targetPoint" />
          </mxGeometry>
        </mxCell>
        <mxCell id="D6nxTHoH6CnyJpjLiKJE-23" value="&lt;font style=&quot;font-size: 36px&quot;&gt;0&lt;/font&gt;" style="text;html=1;strokeColor=none;fillColor=none;align=center;verticalAlign=middle;whiteSpace=wrap;rounded=0;" parent="1" vertex="1">
          <mxGeometry x="-1910" y="423" width="40" height="20" as="geometry" />
        </mxCell>
        <mxCell id="D6nxTHoH6CnyJpjLiKJE-24" value="&lt;font style=&quot;font-size: 36px&quot;&gt;1&lt;/font&gt;" style="text;html=1;strokeColor=none;fillColor=none;align=center;verticalAlign=middle;whiteSpace=wrap;rounded=0;" parent="1" vertex="1">
          <mxGeometry x="-1660" y="416" width="40" height="20" as="geometry" />
        </mxCell>
        <mxCell id="D6nxTHoH6CnyJpjLiKJE-25" value="&lt;font style=&quot;font-size: 36px&quot;&gt;0&lt;/font&gt;" style="text;html=1;strokeColor=none;fillColor=none;align=center;verticalAlign=middle;whiteSpace=wrap;rounded=0;" parent="1" vertex="1">
          <mxGeometry x="-2090" y="590" width="40" height="20" as="geometry" />
        </mxCell>
        <mxCell id="D6nxTHoH6CnyJpjLiKJE-26" value="&lt;font style=&quot;font-size: 36px&quot;&gt;1&lt;/font&gt;" style="text;html=1;strokeColor=none;fillColor=none;align=center;verticalAlign=middle;whiteSpace=wrap;rounded=0;" parent="1" vertex="1">
          <mxGeometry x="-1880" y="600" width="40" height="20" as="geometry" />
        </mxCell>
        <mxCell id="D6nxTHoH6CnyJpjLiKJE-27" value="&lt;font style=&quot;font-size: 36px&quot;&gt;0&lt;/font&gt;" style="text;html=1;strokeColor=none;fillColor=none;align=center;verticalAlign=middle;whiteSpace=wrap;rounded=0;" parent="1" vertex="1">
          <mxGeometry x="-1680" y="640" width="40" height="20" as="geometry" />
        </mxCell>
        <mxCell id="D6nxTHoH6CnyJpjLiKJE-28" value="&lt;font style=&quot;font-size: 36px&quot;&gt;1&lt;/font&gt;" style="text;html=1;strokeColor=none;fillColor=none;align=center;verticalAlign=middle;whiteSpace=wrap;rounded=0;" parent="1" vertex="1">
          <mxGeometry x="-1470" y="640" width="40" height="20" as="geometry" />
        </mxCell>
        <mxCell id="D6nxTHoH6CnyJpjLiKJE-29" value="&lt;font style=&quot;font-size: 36px&quot;&gt;0&lt;/font&gt;" style="text;html=1;strokeColor=none;fillColor=none;align=center;verticalAlign=middle;whiteSpace=wrap;rounded=0;" parent="1" vertex="1">
          <mxGeometry x="-1840" y="810" width="40" height="20" as="geometry" />
        </mxCell>
        <mxCell id="D6nxTHoH6CnyJpjLiKJE-30" value="&lt;font style=&quot;font-size: 36px&quot;&gt;1&lt;/font&gt;" style="text;html=1;strokeColor=none;fillColor=none;align=center;verticalAlign=middle;whiteSpace=wrap;rounded=0;" parent="1" vertex="1">
          <mxGeometry x="-1620" y="810" width="40" height="20" as="geometry" />
        </mxCell>
        <mxCell id="nfgvuMoyPvfjutrKW8Xm-79" value="" style="group" parent="1" vertex="1" connectable="0">
          <mxGeometry x="-2840" y="440" width="180" height="160" as="geometry" />
        </mxCell>
        <mxCell id="nfgvuMoyPvfjutrKW8Xm-55" value="" style="group;fillColor=#A3A3A3;" parent="nfgvuMoyPvfjutrKW8Xm-79" vertex="1" connectable="0">
          <mxGeometry width="180" height="160" as="geometry" />
        </mxCell>
        <mxCell id="nfgvuMoyPvfjutrKW8Xm-39" value="" style="rounded=0;whiteSpace=wrap;html=1;" parent="nfgvuMoyPvfjutrKW8Xm-55" vertex="1">
          <mxGeometry width="45" height="40" as="geometry" />
        </mxCell>
        <mxCell id="nfgvuMoyPvfjutrKW8Xm-40" value="" style="rounded=0;whiteSpace=wrap;html=1;fillColor=#808080;" parent="nfgvuMoyPvfjutrKW8Xm-55" vertex="1">
          <mxGeometry x="45" width="45" height="40" as="geometry" />
        </mxCell>
        <mxCell id="nfgvuMoyPvfjutrKW8Xm-41" value="" style="rounded=0;whiteSpace=wrap;html=1;" parent="nfgvuMoyPvfjutrKW8Xm-55" vertex="1">
          <mxGeometry x="90" width="45" height="40" as="geometry" />
        </mxCell>
        <mxCell id="nfgvuMoyPvfjutrKW8Xm-42" value="" style="rounded=0;whiteSpace=wrap;html=1;fillColor=#808080;" parent="nfgvuMoyPvfjutrKW8Xm-55" vertex="1">
          <mxGeometry x="135" width="45" height="40" as="geometry" />
        </mxCell>
        <mxCell id="nfgvuMoyPvfjutrKW8Xm-43" value="" style="rounded=0;whiteSpace=wrap;html=1;fillColor=#808080;" parent="nfgvuMoyPvfjutrKW8Xm-55" vertex="1">
          <mxGeometry y="40" width="45" height="40" as="geometry" />
        </mxCell>
        <mxCell id="nfgvuMoyPvfjutrKW8Xm-44" value="" style="rounded=0;whiteSpace=wrap;html=1;" parent="nfgvuMoyPvfjutrKW8Xm-55" vertex="1">
          <mxGeometry x="45" y="40" width="45" height="40" as="geometry" />
        </mxCell>
        <mxCell id="nfgvuMoyPvfjutrKW8Xm-45" value="" style="rounded=0;whiteSpace=wrap;html=1;fillColor=#808080;" parent="nfgvuMoyPvfjutrKW8Xm-55" vertex="1">
          <mxGeometry x="90" y="40" width="45" height="40" as="geometry" />
        </mxCell>
        <mxCell id="nfgvuMoyPvfjutrKW8Xm-46" value="" style="rounded=0;whiteSpace=wrap;html=1;" parent="nfgvuMoyPvfjutrKW8Xm-55" vertex="1">
          <mxGeometry x="135" y="40" width="45" height="40" as="geometry" />
        </mxCell>
        <mxCell id="nfgvuMoyPvfjutrKW8Xm-47" value="" style="rounded=0;whiteSpace=wrap;html=1;" parent="nfgvuMoyPvfjutrKW8Xm-55" vertex="1">
          <mxGeometry y="80" width="45" height="40" as="geometry" />
        </mxCell>
        <mxCell id="nfgvuMoyPvfjutrKW8Xm-48" value="" style="rounded=0;whiteSpace=wrap;html=1;fillColor=#808080;" parent="nfgvuMoyPvfjutrKW8Xm-55" vertex="1">
          <mxGeometry x="45" y="80" width="45" height="40" as="geometry" />
        </mxCell>
        <mxCell id="nfgvuMoyPvfjutrKW8Xm-49" value="" style="rounded=0;whiteSpace=wrap;html=1;" parent="nfgvuMoyPvfjutrKW8Xm-55" vertex="1">
          <mxGeometry x="90" y="80" width="45" height="40" as="geometry" />
        </mxCell>
        <mxCell id="nfgvuMoyPvfjutrKW8Xm-50" value="" style="rounded=0;whiteSpace=wrap;html=1;fillColor=#808080;" parent="nfgvuMoyPvfjutrKW8Xm-55" vertex="1">
          <mxGeometry x="135" y="80" width="45" height="40" as="geometry" />
        </mxCell>
        <mxCell id="nfgvuMoyPvfjutrKW8Xm-51" value="" style="rounded=0;whiteSpace=wrap;html=1;fillColor=#808080;" parent="nfgvuMoyPvfjutrKW8Xm-55" vertex="1">
          <mxGeometry y="120" width="45" height="40" as="geometry" />
        </mxCell>
        <mxCell id="nfgvuMoyPvfjutrKW8Xm-52" value="" style="rounded=0;whiteSpace=wrap;html=1;" parent="nfgvuMoyPvfjutrKW8Xm-55" vertex="1">
          <mxGeometry x="45" y="120" width="45" height="40" as="geometry" />
        </mxCell>
        <mxCell id="nfgvuMoyPvfjutrKW8Xm-53" value="" style="rounded=0;whiteSpace=wrap;html=1;fillColor=#808080;" parent="nfgvuMoyPvfjutrKW8Xm-55" vertex="1">
          <mxGeometry x="90" y="120" width="45" height="40" as="geometry" />
        </mxCell>
        <mxCell id="nfgvuMoyPvfjutrKW8Xm-54" value="" style="rounded=0;whiteSpace=wrap;html=1;" parent="nfgvuMoyPvfjutrKW8Xm-55" vertex="1">
          <mxGeometry x="135" y="120" width="45" height="40" as="geometry" />
        </mxCell>
        <mxCell id="nfgvuMoyPvfjutrKW8Xm-57" value="" style="shape=image;html=1;verticalAlign=top;verticalLabelPosition=bottom;labelBackgroundColor=#ffffff;imageAspect=0;aspect=fixed;image=https://cdn1.iconfinder.com/data/icons/photo-stickers-hats/128/hat_10-128.png;fillColor=#808080;" parent="nfgvuMoyPvfjutrKW8Xm-55" vertex="1">
          <mxGeometry x="47.5" width="40" height="40" as="geometry" />
        </mxCell>
        <mxCell id="nfgvuMoyPvfjutrKW8Xm-58" value="" style="group;fillColor=#A3A3A3;" parent="nfgvuMoyPvfjutrKW8Xm-79" vertex="1" connectable="0">
          <mxGeometry width="180" height="160" as="geometry" />
        </mxCell>
        <mxCell id="nfgvuMoyPvfjutrKW8Xm-59" value="" style="rounded=0;whiteSpace=wrap;html=1;" parent="nfgvuMoyPvfjutrKW8Xm-58" vertex="1">
          <mxGeometry width="45" height="40" as="geometry" />
        </mxCell>
        <mxCell id="nfgvuMoyPvfjutrKW8Xm-60" value="" style="rounded=0;whiteSpace=wrap;html=1;fillColor=#808080;" parent="nfgvuMoyPvfjutrKW8Xm-58" vertex="1">
          <mxGeometry x="45" width="45" height="40" as="geometry" />
        </mxCell>
        <mxCell id="nfgvuMoyPvfjutrKW8Xm-61" value="" style="rounded=0;whiteSpace=wrap;html=1;" parent="nfgvuMoyPvfjutrKW8Xm-58" vertex="1">
          <mxGeometry x="90" width="45" height="40" as="geometry" />
        </mxCell>
        <mxCell id="nfgvuMoyPvfjutrKW8Xm-62" value="" style="rounded=0;whiteSpace=wrap;html=1;fillColor=#808080;" parent="nfgvuMoyPvfjutrKW8Xm-58" vertex="1">
          <mxGeometry x="135" width="45" height="40" as="geometry" />
        </mxCell>
        <mxCell id="nfgvuMoyPvfjutrKW8Xm-63" value="" style="rounded=0;whiteSpace=wrap;html=1;fillColor=#808080;" parent="nfgvuMoyPvfjutrKW8Xm-58" vertex="1">
          <mxGeometry y="40" width="45" height="40" as="geometry" />
        </mxCell>
        <mxCell id="nfgvuMoyPvfjutrKW8Xm-64" value="" style="rounded=0;whiteSpace=wrap;html=1;" parent="nfgvuMoyPvfjutrKW8Xm-58" vertex="1">
          <mxGeometry x="45" y="40" width="45" height="40" as="geometry" />
        </mxCell>
        <mxCell id="nfgvuMoyPvfjutrKW8Xm-65" value="" style="rounded=0;whiteSpace=wrap;html=1;fillColor=#808080;" parent="nfgvuMoyPvfjutrKW8Xm-58" vertex="1">
          <mxGeometry x="90" y="40" width="45" height="40" as="geometry" />
        </mxCell>
        <mxCell id="nfgvuMoyPvfjutrKW8Xm-66" value="" style="rounded=0;whiteSpace=wrap;html=1;" parent="nfgvuMoyPvfjutrKW8Xm-58" vertex="1">
          <mxGeometry x="135" y="40" width="45" height="40" as="geometry" />
        </mxCell>
        <mxCell id="nfgvuMoyPvfjutrKW8Xm-67" value="" style="rounded=0;whiteSpace=wrap;html=1;" parent="nfgvuMoyPvfjutrKW8Xm-58" vertex="1">
          <mxGeometry y="80" width="45" height="40" as="geometry" />
        </mxCell>
        <mxCell id="nfgvuMoyPvfjutrKW8Xm-68" value="" style="rounded=0;whiteSpace=wrap;html=1;fillColor=#808080;" parent="nfgvuMoyPvfjutrKW8Xm-58" vertex="1">
          <mxGeometry x="45" y="80" width="45" height="40" as="geometry" />
        </mxCell>
        <mxCell id="nfgvuMoyPvfjutrKW8Xm-69" value="" style="rounded=0;whiteSpace=wrap;html=1;" parent="nfgvuMoyPvfjutrKW8Xm-58" vertex="1">
          <mxGeometry x="90" y="80" width="45" height="40" as="geometry" />
        </mxCell>
        <mxCell id="nfgvuMoyPvfjutrKW8Xm-70" value="" style="rounded=0;whiteSpace=wrap;html=1;fillColor=#808080;" parent="nfgvuMoyPvfjutrKW8Xm-58" vertex="1">
          <mxGeometry x="135" y="80" width="45" height="40" as="geometry" />
        </mxCell>
        <mxCell id="nfgvuMoyPvfjutrKW8Xm-71" value="" style="rounded=0;whiteSpace=wrap;html=1;fillColor=#808080;" parent="nfgvuMoyPvfjutrKW8Xm-58" vertex="1">
          <mxGeometry y="120" width="45" height="40" as="geometry" />
        </mxCell>
        <mxCell id="nfgvuMoyPvfjutrKW8Xm-72" value="" style="rounded=0;whiteSpace=wrap;html=1;" parent="nfgvuMoyPvfjutrKW8Xm-58" vertex="1">
          <mxGeometry x="45" y="120" width="45" height="40" as="geometry" />
        </mxCell>
        <mxCell id="nfgvuMoyPvfjutrKW8Xm-73" value="" style="rounded=0;whiteSpace=wrap;html=1;fillColor=#808080;" parent="nfgvuMoyPvfjutrKW8Xm-58" vertex="1">
          <mxGeometry x="90" y="120" width="45" height="40" as="geometry" />
        </mxCell>
        <mxCell id="nfgvuMoyPvfjutrKW8Xm-74" value="" style="rounded=0;whiteSpace=wrap;html=1;" parent="nfgvuMoyPvfjutrKW8Xm-58" vertex="1">
          <mxGeometry x="135" y="120" width="45" height="40" as="geometry" />
        </mxCell>
        <mxCell id="nfgvuMoyPvfjutrKW8Xm-75" value="" style="shape=image;html=1;verticalAlign=top;verticalLabelPosition=bottom;labelBackgroundColor=#ffffff;imageAspect=0;aspect=fixed;image=https://cdn1.iconfinder.com/data/icons/photo-stickers-hats/128/hat_10-128.png;fillColor=#808080;" parent="nfgvuMoyPvfjutrKW8Xm-58" vertex="1">
          <mxGeometry x="47.5" width="40" height="40" as="geometry" />
        </mxCell>
        <mxCell id="nfgvuMoyPvfjutrKW8Xm-76" value="" style="shape=image;html=1;verticalAlign=top;verticalLabelPosition=bottom;labelBackgroundColor=#ffffff;imageAspect=0;aspect=fixed;image=https://cdn1.iconfinder.com/data/icons/photo-stickers-hats/128/hat_10-128.png;fillColor=#808080;" parent="nfgvuMoyPvfjutrKW8Xm-58" vertex="1">
          <mxGeometry x="92.5" y="80" width="40" height="40" as="geometry" />
        </mxCell>
        <mxCell id="nfgvuMoyPvfjutrKW8Xm-77" value="" style="shape=image;html=1;verticalAlign=top;verticalLabelPosition=bottom;labelBackgroundColor=#ffffff;imageAspect=0;aspect=fixed;image=https://cdn1.iconfinder.com/data/icons/photo-stickers-hats/128/hat_10-128.png;fillColor=#808080;" parent="nfgvuMoyPvfjutrKW8Xm-58" vertex="1">
          <mxGeometry x="2.5" y="40" width="40" height="40" as="geometry" />
        </mxCell>
        <mxCell id="nfgvuMoyPvfjutrKW8Xm-78" value="" style="shape=image;html=1;verticalAlign=top;verticalLabelPosition=bottom;labelBackgroundColor=#ffffff;imageAspect=0;aspect=fixed;image=https://cdn1.iconfinder.com/data/icons/photo-stickers-hats/128/hat_10-128.png;fillColor=#808080;" parent="nfgvuMoyPvfjutrKW8Xm-58" vertex="1">
          <mxGeometry x="137.5" y="40" width="40" height="40" as="geometry" />
        </mxCell>
        <mxCell id="nfgvuMoyPvfjutrKW8Xm-141" value="" style="group" parent="1" vertex="1" connectable="0">
          <mxGeometry x="-3200" y="160" width="180" height="160" as="geometry" />
        </mxCell>
        <mxCell id="nfgvuMoyPvfjutrKW8Xm-142" value="" style="group;fillColor=#A3A3A3;" parent="nfgvuMoyPvfjutrKW8Xm-141" vertex="1" connectable="0">
          <mxGeometry width="180" height="160" as="geometry" />
        </mxCell>
        <mxCell id="nfgvuMoyPvfjutrKW8Xm-143" value="" style="rounded=0;whiteSpace=wrap;html=1;" parent="nfgvuMoyPvfjutrKW8Xm-142" vertex="1">
          <mxGeometry width="45" height="40" as="geometry" />
        </mxCell>
        <mxCell id="nfgvuMoyPvfjutrKW8Xm-144" value="" style="rounded=0;whiteSpace=wrap;html=1;fillColor=#808080;" parent="nfgvuMoyPvfjutrKW8Xm-142" vertex="1">
          <mxGeometry x="45" width="45" height="40" as="geometry" />
        </mxCell>
        <mxCell id="nfgvuMoyPvfjutrKW8Xm-145" value="" style="rounded=0;whiteSpace=wrap;html=1;" parent="nfgvuMoyPvfjutrKW8Xm-142" vertex="1">
          <mxGeometry x="90" width="45" height="40" as="geometry" />
        </mxCell>
        <mxCell id="nfgvuMoyPvfjutrKW8Xm-146" value="" style="rounded=0;whiteSpace=wrap;html=1;fillColor=#808080;" parent="nfgvuMoyPvfjutrKW8Xm-142" vertex="1">
          <mxGeometry x="135" width="45" height="40" as="geometry" />
        </mxCell>
        <mxCell id="nfgvuMoyPvfjutrKW8Xm-147" value="" style="rounded=0;whiteSpace=wrap;html=1;fillColor=#808080;" parent="nfgvuMoyPvfjutrKW8Xm-142" vertex="1">
          <mxGeometry y="40" width="45" height="40" as="geometry" />
        </mxCell>
        <mxCell id="nfgvuMoyPvfjutrKW8Xm-148" value="" style="rounded=0;whiteSpace=wrap;html=1;" parent="nfgvuMoyPvfjutrKW8Xm-142" vertex="1">
          <mxGeometry x="45" y="40" width="45" height="40" as="geometry" />
        </mxCell>
        <mxCell id="nfgvuMoyPvfjutrKW8Xm-149" value="" style="rounded=0;whiteSpace=wrap;html=1;fillColor=#808080;" parent="nfgvuMoyPvfjutrKW8Xm-142" vertex="1">
          <mxGeometry x="90" y="40" width="45" height="40" as="geometry" />
        </mxCell>
        <mxCell id="nfgvuMoyPvfjutrKW8Xm-150" value="" style="rounded=0;whiteSpace=wrap;html=1;" parent="nfgvuMoyPvfjutrKW8Xm-142" vertex="1">
          <mxGeometry x="135" y="40" width="45" height="40" as="geometry" />
        </mxCell>
        <mxCell id="nfgvuMoyPvfjutrKW8Xm-151" value="" style="rounded=0;whiteSpace=wrap;html=1;" parent="nfgvuMoyPvfjutrKW8Xm-142" vertex="1">
          <mxGeometry y="80" width="45" height="40" as="geometry" />
        </mxCell>
        <mxCell id="nfgvuMoyPvfjutrKW8Xm-152" value="" style="rounded=0;whiteSpace=wrap;html=1;fillColor=#808080;" parent="nfgvuMoyPvfjutrKW8Xm-142" vertex="1">
          <mxGeometry x="45" y="80" width="45" height="40" as="geometry" />
        </mxCell>
        <mxCell id="nfgvuMoyPvfjutrKW8Xm-153" value="" style="rounded=0;whiteSpace=wrap;html=1;" parent="nfgvuMoyPvfjutrKW8Xm-142" vertex="1">
          <mxGeometry x="90" y="80" width="45" height="40" as="geometry" />
        </mxCell>
        <mxCell id="nfgvuMoyPvfjutrKW8Xm-154" value="" style="rounded=0;whiteSpace=wrap;html=1;fillColor=#808080;" parent="nfgvuMoyPvfjutrKW8Xm-142" vertex="1">
          <mxGeometry x="135" y="80" width="45" height="40" as="geometry" />
        </mxCell>
        <mxCell id="nfgvuMoyPvfjutrKW8Xm-155" value="" style="rounded=0;whiteSpace=wrap;html=1;fillColor=#808080;" parent="nfgvuMoyPvfjutrKW8Xm-142" vertex="1">
          <mxGeometry y="120" width="45" height="40" as="geometry" />
        </mxCell>
        <mxCell id="nfgvuMoyPvfjutrKW8Xm-156" value="" style="rounded=0;whiteSpace=wrap;html=1;" parent="nfgvuMoyPvfjutrKW8Xm-142" vertex="1">
          <mxGeometry x="45" y="120" width="45" height="40" as="geometry" />
        </mxCell>
        <mxCell id="nfgvuMoyPvfjutrKW8Xm-157" value="" style="rounded=0;whiteSpace=wrap;html=1;fillColor=#808080;" parent="nfgvuMoyPvfjutrKW8Xm-142" vertex="1">
          <mxGeometry x="90" y="120" width="45" height="40" as="geometry" />
        </mxCell>
        <mxCell id="nfgvuMoyPvfjutrKW8Xm-158" value="" style="rounded=0;whiteSpace=wrap;html=1;" parent="nfgvuMoyPvfjutrKW8Xm-142" vertex="1">
          <mxGeometry x="135" y="120" width="45" height="40" as="geometry" />
        </mxCell>
        <mxCell id="nfgvuMoyPvfjutrKW8Xm-159" value="" style="shape=image;html=1;verticalAlign=top;verticalLabelPosition=bottom;labelBackgroundColor=#ffffff;imageAspect=0;aspect=fixed;image=https://cdn1.iconfinder.com/data/icons/photo-stickers-hats/128/hat_10-128.png;fillColor=#808080;" parent="nfgvuMoyPvfjutrKW8Xm-142" vertex="1">
          <mxGeometry x="47.5" width="40" height="40" as="geometry" />
        </mxCell>
        <mxCell id="nfgvuMoyPvfjutrKW8Xm-160" value="" style="group;fillColor=#A3A3A3;" parent="nfgvuMoyPvfjutrKW8Xm-141" vertex="1" connectable="0">
          <mxGeometry width="180" height="160" as="geometry" />
        </mxCell>
        <mxCell id="nfgvuMoyPvfjutrKW8Xm-161" value="" style="rounded=0;whiteSpace=wrap;html=1;" parent="nfgvuMoyPvfjutrKW8Xm-160" vertex="1">
          <mxGeometry width="45" height="40" as="geometry" />
        </mxCell>
        <mxCell id="nfgvuMoyPvfjutrKW8Xm-162" value="" style="rounded=0;whiteSpace=wrap;html=1;fillColor=#808080;" parent="nfgvuMoyPvfjutrKW8Xm-160" vertex="1">
          <mxGeometry x="45" width="45" height="40" as="geometry" />
        </mxCell>
        <mxCell id="nfgvuMoyPvfjutrKW8Xm-163" value="" style="rounded=0;whiteSpace=wrap;html=1;" parent="nfgvuMoyPvfjutrKW8Xm-160" vertex="1">
          <mxGeometry x="90" width="45" height="40" as="geometry" />
        </mxCell>
        <mxCell id="nfgvuMoyPvfjutrKW8Xm-164" value="" style="rounded=0;whiteSpace=wrap;html=1;fillColor=#808080;" parent="nfgvuMoyPvfjutrKW8Xm-160" vertex="1">
          <mxGeometry x="135" width="45" height="40" as="geometry" />
        </mxCell>
        <mxCell id="nfgvuMoyPvfjutrKW8Xm-165" value="" style="rounded=0;whiteSpace=wrap;html=1;fillColor=#808080;" parent="nfgvuMoyPvfjutrKW8Xm-160" vertex="1">
          <mxGeometry y="40" width="45" height="40" as="geometry" />
        </mxCell>
        <mxCell id="nfgvuMoyPvfjutrKW8Xm-166" value="" style="rounded=0;whiteSpace=wrap;html=1;" parent="nfgvuMoyPvfjutrKW8Xm-160" vertex="1">
          <mxGeometry x="45" y="40" width="45" height="40" as="geometry" />
        </mxCell>
        <mxCell id="nfgvuMoyPvfjutrKW8Xm-167" value="" style="rounded=0;whiteSpace=wrap;html=1;fillColor=#808080;" parent="nfgvuMoyPvfjutrKW8Xm-160" vertex="1">
          <mxGeometry x="90" y="40" width="45" height="40" as="geometry" />
        </mxCell>
        <mxCell id="nfgvuMoyPvfjutrKW8Xm-168" value="" style="rounded=0;whiteSpace=wrap;html=1;" parent="nfgvuMoyPvfjutrKW8Xm-160" vertex="1">
          <mxGeometry x="135" y="40" width="45" height="40" as="geometry" />
        </mxCell>
        <mxCell id="nfgvuMoyPvfjutrKW8Xm-169" value="" style="rounded=0;whiteSpace=wrap;html=1;" parent="nfgvuMoyPvfjutrKW8Xm-160" vertex="1">
          <mxGeometry y="80" width="45" height="40" as="geometry" />
        </mxCell>
        <mxCell id="nfgvuMoyPvfjutrKW8Xm-170" value="" style="rounded=0;whiteSpace=wrap;html=1;fillColor=#808080;" parent="nfgvuMoyPvfjutrKW8Xm-160" vertex="1">
          <mxGeometry x="45" y="80" width="45" height="40" as="geometry" />
        </mxCell>
        <mxCell id="nfgvuMoyPvfjutrKW8Xm-171" value="" style="rounded=0;whiteSpace=wrap;html=1;" parent="nfgvuMoyPvfjutrKW8Xm-160" vertex="1">
          <mxGeometry x="90" y="80" width="45" height="40" as="geometry" />
        </mxCell>
        <mxCell id="nfgvuMoyPvfjutrKW8Xm-172" value="" style="rounded=0;whiteSpace=wrap;html=1;fillColor=#808080;" parent="nfgvuMoyPvfjutrKW8Xm-160" vertex="1">
          <mxGeometry x="135" y="80" width="45" height="40" as="geometry" />
        </mxCell>
        <mxCell id="nfgvuMoyPvfjutrKW8Xm-173" value="" style="rounded=0;whiteSpace=wrap;html=1;fillColor=#808080;" parent="nfgvuMoyPvfjutrKW8Xm-160" vertex="1">
          <mxGeometry y="120" width="45" height="40" as="geometry" />
        </mxCell>
        <mxCell id="nfgvuMoyPvfjutrKW8Xm-174" value="" style="rounded=0;whiteSpace=wrap;html=1;" parent="nfgvuMoyPvfjutrKW8Xm-160" vertex="1">
          <mxGeometry x="45" y="120" width="45" height="40" as="geometry" />
        </mxCell>
        <mxCell id="nfgvuMoyPvfjutrKW8Xm-175" value="" style="rounded=0;whiteSpace=wrap;html=1;fillColor=#808080;" parent="nfgvuMoyPvfjutrKW8Xm-160" vertex="1">
          <mxGeometry x="90" y="120" width="45" height="40" as="geometry" />
        </mxCell>
        <mxCell id="nfgvuMoyPvfjutrKW8Xm-176" value="" style="rounded=0;whiteSpace=wrap;html=1;" parent="nfgvuMoyPvfjutrKW8Xm-160" vertex="1">
          <mxGeometry x="135" y="120" width="45" height="40" as="geometry" />
        </mxCell>
        <mxCell id="nfgvuMoyPvfjutrKW8Xm-177" value="" style="shape=image;html=1;verticalAlign=top;verticalLabelPosition=bottom;labelBackgroundColor=#ffffff;imageAspect=0;aspect=fixed;image=https://cdn1.iconfinder.com/data/icons/photo-stickers-hats/128/hat_10-128.png;fillColor=#808080;" parent="nfgvuMoyPvfjutrKW8Xm-160" vertex="1">
          <mxGeometry x="47.5" width="40" height="40" as="geometry" />
        </mxCell>
        <mxCell id="nfgvuMoyPvfjutrKW8Xm-178" value="" style="shape=image;html=1;verticalAlign=top;verticalLabelPosition=bottom;labelBackgroundColor=#ffffff;imageAspect=0;aspect=fixed;image=https://cdn1.iconfinder.com/data/icons/photo-stickers-hats/128/hat_10-128.png;fillColor=#808080;" parent="nfgvuMoyPvfjutrKW8Xm-160" vertex="1">
          <mxGeometry x="92.5" width="40" height="40" as="geometry" />
        </mxCell>
        <mxCell id="nfgvuMoyPvfjutrKW8Xm-179" value="" style="shape=image;html=1;verticalAlign=top;verticalLabelPosition=bottom;labelBackgroundColor=#ffffff;imageAspect=0;aspect=fixed;image=https://cdn1.iconfinder.com/data/icons/photo-stickers-hats/128/hat_10-128.png;fillColor=#808080;" parent="nfgvuMoyPvfjutrKW8Xm-160" vertex="1">
          <mxGeometry x="2.5" y="40" width="40" height="40" as="geometry" />
        </mxCell>
        <mxCell id="nfgvuMoyPvfjutrKW8Xm-180" value="" style="shape=image;html=1;verticalAlign=top;verticalLabelPosition=bottom;labelBackgroundColor=#ffffff;imageAspect=0;aspect=fixed;image=https://cdn1.iconfinder.com/data/icons/photo-stickers-hats/128/hat_10-128.png;fillColor=#808080;" parent="nfgvuMoyPvfjutrKW8Xm-160" vertex="1">
          <mxGeometry x="137.5" y="40" width="40" height="40" as="geometry" />
        </mxCell>
        <mxCell id="nfgvuMoyPvfjutrKW8Xm-181" value="" style="group" parent="1" vertex="1" connectable="0">
          <mxGeometry x="-3200" y="440" width="180" height="160" as="geometry" />
        </mxCell>
        <mxCell id="nfgvuMoyPvfjutrKW8Xm-182" value="" style="group;fillColor=#A3A3A3;" parent="nfgvuMoyPvfjutrKW8Xm-181" vertex="1" connectable="0">
          <mxGeometry width="180" height="160" as="geometry" />
        </mxCell>
        <mxCell id="nfgvuMoyPvfjutrKW8Xm-183" value="" style="rounded=0;whiteSpace=wrap;html=1;" parent="nfgvuMoyPvfjutrKW8Xm-182" vertex="1">
          <mxGeometry width="45" height="40" as="geometry" />
        </mxCell>
        <mxCell id="nfgvuMoyPvfjutrKW8Xm-184" value="" style="rounded=0;whiteSpace=wrap;html=1;fillColor=#808080;" parent="nfgvuMoyPvfjutrKW8Xm-182" vertex="1">
          <mxGeometry x="45" width="45" height="40" as="geometry" />
        </mxCell>
        <mxCell id="nfgvuMoyPvfjutrKW8Xm-185" value="" style="rounded=0;whiteSpace=wrap;html=1;" parent="nfgvuMoyPvfjutrKW8Xm-182" vertex="1">
          <mxGeometry x="90" width="45" height="40" as="geometry" />
        </mxCell>
        <mxCell id="nfgvuMoyPvfjutrKW8Xm-186" value="" style="rounded=0;whiteSpace=wrap;html=1;fillColor=#808080;" parent="nfgvuMoyPvfjutrKW8Xm-182" vertex="1">
          <mxGeometry x="135" width="45" height="40" as="geometry" />
        </mxCell>
        <mxCell id="nfgvuMoyPvfjutrKW8Xm-187" value="" style="rounded=0;whiteSpace=wrap;html=1;fillColor=#808080;" parent="nfgvuMoyPvfjutrKW8Xm-182" vertex="1">
          <mxGeometry y="40" width="45" height="40" as="geometry" />
        </mxCell>
        <mxCell id="nfgvuMoyPvfjutrKW8Xm-188" value="" style="rounded=0;whiteSpace=wrap;html=1;" parent="nfgvuMoyPvfjutrKW8Xm-182" vertex="1">
          <mxGeometry x="45" y="40" width="45" height="40" as="geometry" />
        </mxCell>
        <mxCell id="nfgvuMoyPvfjutrKW8Xm-189" value="" style="rounded=0;whiteSpace=wrap;html=1;fillColor=#808080;" parent="nfgvuMoyPvfjutrKW8Xm-182" vertex="1">
          <mxGeometry x="90" y="40" width="45" height="40" as="geometry" />
        </mxCell>
        <mxCell id="nfgvuMoyPvfjutrKW8Xm-190" value="" style="rounded=0;whiteSpace=wrap;html=1;" parent="nfgvuMoyPvfjutrKW8Xm-182" vertex="1">
          <mxGeometry x="135" y="40" width="45" height="40" as="geometry" />
        </mxCell>
        <mxCell id="nfgvuMoyPvfjutrKW8Xm-191" value="" style="rounded=0;whiteSpace=wrap;html=1;" parent="nfgvuMoyPvfjutrKW8Xm-182" vertex="1">
          <mxGeometry y="80" width="45" height="40" as="geometry" />
        </mxCell>
        <mxCell id="nfgvuMoyPvfjutrKW8Xm-192" value="" style="rounded=0;whiteSpace=wrap;html=1;fillColor=#808080;" parent="nfgvuMoyPvfjutrKW8Xm-182" vertex="1">
          <mxGeometry x="45" y="80" width="45" height="40" as="geometry" />
        </mxCell>
        <mxCell id="nfgvuMoyPvfjutrKW8Xm-193" value="" style="rounded=0;whiteSpace=wrap;html=1;" parent="nfgvuMoyPvfjutrKW8Xm-182" vertex="1">
          <mxGeometry x="90" y="80" width="45" height="40" as="geometry" />
        </mxCell>
        <mxCell id="nfgvuMoyPvfjutrKW8Xm-194" value="" style="rounded=0;whiteSpace=wrap;html=1;fillColor=#808080;" parent="nfgvuMoyPvfjutrKW8Xm-182" vertex="1">
          <mxGeometry x="135" y="80" width="45" height="40" as="geometry" />
        </mxCell>
        <mxCell id="nfgvuMoyPvfjutrKW8Xm-195" value="" style="rounded=0;whiteSpace=wrap;html=1;fillColor=#808080;" parent="nfgvuMoyPvfjutrKW8Xm-182" vertex="1">
          <mxGeometry y="120" width="45" height="40" as="geometry" />
        </mxCell>
        <mxCell id="nfgvuMoyPvfjutrKW8Xm-196" value="" style="rounded=0;whiteSpace=wrap;html=1;" parent="nfgvuMoyPvfjutrKW8Xm-182" vertex="1">
          <mxGeometry x="45" y="120" width="45" height="40" as="geometry" />
        </mxCell>
        <mxCell id="nfgvuMoyPvfjutrKW8Xm-197" value="" style="rounded=0;whiteSpace=wrap;html=1;fillColor=#808080;" parent="nfgvuMoyPvfjutrKW8Xm-182" vertex="1">
          <mxGeometry x="90" y="120" width="45" height="40" as="geometry" />
        </mxCell>
        <mxCell id="nfgvuMoyPvfjutrKW8Xm-198" value="" style="rounded=0;whiteSpace=wrap;html=1;" parent="nfgvuMoyPvfjutrKW8Xm-182" vertex="1">
          <mxGeometry x="135" y="120" width="45" height="40" as="geometry" />
        </mxCell>
        <mxCell id="nfgvuMoyPvfjutrKW8Xm-199" value="" style="shape=image;html=1;verticalAlign=top;verticalLabelPosition=bottom;labelBackgroundColor=#ffffff;imageAspect=0;aspect=fixed;image=https://cdn1.iconfinder.com/data/icons/photo-stickers-hats/128/hat_10-128.png;fillColor=#808080;" parent="nfgvuMoyPvfjutrKW8Xm-182" vertex="1">
          <mxGeometry x="47.5" width="40" height="40" as="geometry" />
        </mxCell>
        <mxCell id="nfgvuMoyPvfjutrKW8Xm-200" value="" style="group;fillColor=#A3A3A3;" parent="nfgvuMoyPvfjutrKW8Xm-181" vertex="1" connectable="0">
          <mxGeometry width="180" height="160" as="geometry" />
        </mxCell>
        <mxCell id="nfgvuMoyPvfjutrKW8Xm-201" value="" style="rounded=0;whiteSpace=wrap;html=1;" parent="nfgvuMoyPvfjutrKW8Xm-200" vertex="1">
          <mxGeometry width="45" height="40" as="geometry" />
        </mxCell>
        <mxCell id="nfgvuMoyPvfjutrKW8Xm-202" value="" style="rounded=0;whiteSpace=wrap;html=1;fillColor=#808080;" parent="nfgvuMoyPvfjutrKW8Xm-200" vertex="1">
          <mxGeometry x="45" width="45" height="40" as="geometry" />
        </mxCell>
        <mxCell id="nfgvuMoyPvfjutrKW8Xm-203" value="" style="rounded=0;whiteSpace=wrap;html=1;" parent="nfgvuMoyPvfjutrKW8Xm-200" vertex="1">
          <mxGeometry x="90" width="45" height="40" as="geometry" />
        </mxCell>
        <mxCell id="nfgvuMoyPvfjutrKW8Xm-204" value="" style="rounded=0;whiteSpace=wrap;html=1;fillColor=#808080;" parent="nfgvuMoyPvfjutrKW8Xm-200" vertex="1">
          <mxGeometry x="135" width="45" height="40" as="geometry" />
        </mxCell>
        <mxCell id="nfgvuMoyPvfjutrKW8Xm-205" value="" style="rounded=0;whiteSpace=wrap;html=1;fillColor=#808080;" parent="nfgvuMoyPvfjutrKW8Xm-200" vertex="1">
          <mxGeometry y="40" width="45" height="40" as="geometry" />
        </mxCell>
        <mxCell id="nfgvuMoyPvfjutrKW8Xm-206" value="" style="rounded=0;whiteSpace=wrap;html=1;" parent="nfgvuMoyPvfjutrKW8Xm-200" vertex="1">
          <mxGeometry x="45" y="40" width="45" height="40" as="geometry" />
        </mxCell>
        <mxCell id="nfgvuMoyPvfjutrKW8Xm-207" value="" style="rounded=0;whiteSpace=wrap;html=1;fillColor=#808080;" parent="nfgvuMoyPvfjutrKW8Xm-200" vertex="1">
          <mxGeometry x="90" y="40" width="45" height="40" as="geometry" />
        </mxCell>
        <mxCell id="nfgvuMoyPvfjutrKW8Xm-208" value="" style="rounded=0;whiteSpace=wrap;html=1;" parent="nfgvuMoyPvfjutrKW8Xm-200" vertex="1">
          <mxGeometry x="135" y="40" width="45" height="40" as="geometry" />
        </mxCell>
        <mxCell id="nfgvuMoyPvfjutrKW8Xm-209" value="" style="rounded=0;whiteSpace=wrap;html=1;" parent="nfgvuMoyPvfjutrKW8Xm-200" vertex="1">
          <mxGeometry y="80" width="45" height="40" as="geometry" />
        </mxCell>
        <mxCell id="nfgvuMoyPvfjutrKW8Xm-210" value="" style="rounded=0;whiteSpace=wrap;html=1;fillColor=#808080;" parent="nfgvuMoyPvfjutrKW8Xm-200" vertex="1">
          <mxGeometry x="45" y="80" width="45" height="40" as="geometry" />
        </mxCell>
        <mxCell id="nfgvuMoyPvfjutrKW8Xm-211" value="" style="rounded=0;whiteSpace=wrap;html=1;" parent="nfgvuMoyPvfjutrKW8Xm-200" vertex="1">
          <mxGeometry x="90" y="80" width="45" height="40" as="geometry" />
        </mxCell>
        <mxCell id="nfgvuMoyPvfjutrKW8Xm-212" value="" style="rounded=0;whiteSpace=wrap;html=1;fillColor=#808080;" parent="nfgvuMoyPvfjutrKW8Xm-200" vertex="1">
          <mxGeometry x="135" y="80" width="45" height="40" as="geometry" />
        </mxCell>
        <mxCell id="nfgvuMoyPvfjutrKW8Xm-213" value="" style="rounded=0;whiteSpace=wrap;html=1;fillColor=#808080;" parent="nfgvuMoyPvfjutrKW8Xm-200" vertex="1">
          <mxGeometry y="120" width="45" height="40" as="geometry" />
        </mxCell>
        <mxCell id="nfgvuMoyPvfjutrKW8Xm-214" value="" style="rounded=0;whiteSpace=wrap;html=1;" parent="nfgvuMoyPvfjutrKW8Xm-200" vertex="1">
          <mxGeometry x="45" y="120" width="45" height="40" as="geometry" />
        </mxCell>
        <mxCell id="nfgvuMoyPvfjutrKW8Xm-215" value="" style="rounded=0;whiteSpace=wrap;html=1;fillColor=#808080;" parent="nfgvuMoyPvfjutrKW8Xm-200" vertex="1">
          <mxGeometry x="90" y="120" width="45" height="40" as="geometry" />
        </mxCell>
        <mxCell id="nfgvuMoyPvfjutrKW8Xm-216" value="" style="rounded=0;whiteSpace=wrap;html=1;" parent="nfgvuMoyPvfjutrKW8Xm-200" vertex="1">
          <mxGeometry x="135" y="120" width="45" height="40" as="geometry" />
        </mxCell>
        <mxCell id="nfgvuMoyPvfjutrKW8Xm-217" value="" style="shape=image;html=1;verticalAlign=top;verticalLabelPosition=bottom;labelBackgroundColor=#ffffff;imageAspect=0;aspect=fixed;image=https://cdn1.iconfinder.com/data/icons/photo-stickers-hats/128/hat_10-128.png;fillColor=#808080;" parent="nfgvuMoyPvfjutrKW8Xm-200" vertex="1">
          <mxGeometry x="47.5" width="40" height="40" as="geometry" />
        </mxCell>
        <mxCell id="nfgvuMoyPvfjutrKW8Xm-218" value="" style="shape=image;html=1;verticalAlign=top;verticalLabelPosition=bottom;labelBackgroundColor=#ffffff;imageAspect=0;aspect=fixed;image=https://cdn1.iconfinder.com/data/icons/photo-stickers-hats/128/hat_10-128.png;fillColor=#808080;" parent="nfgvuMoyPvfjutrKW8Xm-200" vertex="1">
          <mxGeometry x="92.5" width="40" height="40" as="geometry" />
        </mxCell>
        <mxCell id="nfgvuMoyPvfjutrKW8Xm-219" value="" style="shape=image;html=1;verticalAlign=top;verticalLabelPosition=bottom;labelBackgroundColor=#ffffff;imageAspect=0;aspect=fixed;image=https://cdn1.iconfinder.com/data/icons/photo-stickers-hats/128/hat_10-128.png;fillColor=#808080;" parent="nfgvuMoyPvfjutrKW8Xm-200" vertex="1">
          <mxGeometry x="2.5" y="80" width="40" height="40" as="geometry" />
        </mxCell>
        <mxCell id="nfgvuMoyPvfjutrKW8Xm-220" value="" style="shape=image;html=1;verticalAlign=top;verticalLabelPosition=bottom;labelBackgroundColor=#ffffff;imageAspect=0;aspect=fixed;image=https://cdn1.iconfinder.com/data/icons/photo-stickers-hats/128/hat_10-128.png;fillColor=#808080;" parent="nfgvuMoyPvfjutrKW8Xm-200" vertex="1">
          <mxGeometry x="137.5" y="40" width="40" height="40" as="geometry" />
        </mxCell>
        <mxCell id="nfgvuMoyPvfjutrKW8Xm-99" value="" style="group;fillColor=#A3A3A3;" parent="1" vertex="1" connectable="0">
          <mxGeometry x="-3580" y="440" width="180" height="160" as="geometry" />
        </mxCell>
        <mxCell id="nfgvuMoyPvfjutrKW8Xm-100" value="" style="rounded=0;whiteSpace=wrap;html=1;" parent="nfgvuMoyPvfjutrKW8Xm-99" vertex="1">
          <mxGeometry width="45" height="40" as="geometry" />
        </mxCell>
        <mxCell id="nfgvuMoyPvfjutrKW8Xm-101" value="" style="rounded=0;whiteSpace=wrap;html=1;fillColor=#808080;" parent="nfgvuMoyPvfjutrKW8Xm-99" vertex="1">
          <mxGeometry x="45" width="45" height="40" as="geometry" />
        </mxCell>
        <mxCell id="nfgvuMoyPvfjutrKW8Xm-102" value="" style="rounded=0;whiteSpace=wrap;html=1;" parent="nfgvuMoyPvfjutrKW8Xm-99" vertex="1">
          <mxGeometry x="90" width="45" height="40" as="geometry" />
        </mxCell>
        <mxCell id="nfgvuMoyPvfjutrKW8Xm-103" value="" style="rounded=0;whiteSpace=wrap;html=1;fillColor=#808080;" parent="nfgvuMoyPvfjutrKW8Xm-99" vertex="1">
          <mxGeometry x="135" width="45" height="40" as="geometry" />
        </mxCell>
        <mxCell id="nfgvuMoyPvfjutrKW8Xm-104" value="" style="rounded=0;whiteSpace=wrap;html=1;fillColor=#808080;" parent="nfgvuMoyPvfjutrKW8Xm-99" vertex="1">
          <mxGeometry y="40" width="45" height="40" as="geometry" />
        </mxCell>
        <mxCell id="nfgvuMoyPvfjutrKW8Xm-105" value="" style="rounded=0;whiteSpace=wrap;html=1;" parent="nfgvuMoyPvfjutrKW8Xm-99" vertex="1">
          <mxGeometry x="45" y="40" width="45" height="40" as="geometry" />
        </mxCell>
        <mxCell id="nfgvuMoyPvfjutrKW8Xm-106" value="" style="rounded=0;whiteSpace=wrap;html=1;fillColor=#808080;" parent="nfgvuMoyPvfjutrKW8Xm-99" vertex="1">
          <mxGeometry x="90" y="40" width="45" height="40" as="geometry" />
        </mxCell>
        <mxCell id="nfgvuMoyPvfjutrKW8Xm-107" value="" style="rounded=0;whiteSpace=wrap;html=1;" parent="nfgvuMoyPvfjutrKW8Xm-99" vertex="1">
          <mxGeometry x="135" y="40" width="45" height="40" as="geometry" />
        </mxCell>
        <mxCell id="nfgvuMoyPvfjutrKW8Xm-108" value="" style="rounded=0;whiteSpace=wrap;html=1;" parent="nfgvuMoyPvfjutrKW8Xm-99" vertex="1">
          <mxGeometry y="80" width="45" height="40" as="geometry" />
        </mxCell>
        <mxCell id="nfgvuMoyPvfjutrKW8Xm-109" value="" style="rounded=0;whiteSpace=wrap;html=1;fillColor=#808080;" parent="nfgvuMoyPvfjutrKW8Xm-99" vertex="1">
          <mxGeometry x="45" y="80" width="45" height="40" as="geometry" />
        </mxCell>
        <mxCell id="nfgvuMoyPvfjutrKW8Xm-110" value="" style="rounded=0;whiteSpace=wrap;html=1;" parent="nfgvuMoyPvfjutrKW8Xm-99" vertex="1">
          <mxGeometry x="90" y="80" width="45" height="40" as="geometry" />
        </mxCell>
        <mxCell id="nfgvuMoyPvfjutrKW8Xm-111" value="" style="rounded=0;whiteSpace=wrap;html=1;fillColor=#808080;" parent="nfgvuMoyPvfjutrKW8Xm-99" vertex="1">
          <mxGeometry x="135" y="80" width="45" height="40" as="geometry" />
        </mxCell>
        <mxCell id="nfgvuMoyPvfjutrKW8Xm-112" value="" style="rounded=0;whiteSpace=wrap;html=1;fillColor=#808080;" parent="nfgvuMoyPvfjutrKW8Xm-99" vertex="1">
          <mxGeometry y="120" width="45" height="40" as="geometry" />
        </mxCell>
        <mxCell id="nfgvuMoyPvfjutrKW8Xm-113" value="" style="rounded=0;whiteSpace=wrap;html=1;" parent="nfgvuMoyPvfjutrKW8Xm-99" vertex="1">
          <mxGeometry x="45" y="120" width="45" height="40" as="geometry" />
        </mxCell>
        <mxCell id="nfgvuMoyPvfjutrKW8Xm-114" value="" style="rounded=0;whiteSpace=wrap;html=1;fillColor=#808080;" parent="nfgvuMoyPvfjutrKW8Xm-99" vertex="1">
          <mxGeometry x="90" y="120" width="45" height="40" as="geometry" />
        </mxCell>
        <mxCell id="nfgvuMoyPvfjutrKW8Xm-115" value="" style="rounded=0;whiteSpace=wrap;html=1;" parent="nfgvuMoyPvfjutrKW8Xm-99" vertex="1">
          <mxGeometry x="135" y="120" width="45" height="40" as="geometry" />
        </mxCell>
        <mxCell id="nfgvuMoyPvfjutrKW8Xm-116" value="" style="shape=image;html=1;verticalAlign=top;verticalLabelPosition=bottom;labelBackgroundColor=#ffffff;imageAspect=0;aspect=fixed;image=https://cdn1.iconfinder.com/data/icons/photo-stickers-hats/128/hat_10-128.png;fillColor=#808080;" parent="nfgvuMoyPvfjutrKW8Xm-99" vertex="1">
          <mxGeometry x="47.5" y="120" width="40" height="40" as="geometry" />
        </mxCell>
        <mxCell id="nfgvuMoyPvfjutrKW8Xm-117" value="" style="shape=image;html=1;verticalAlign=top;verticalLabelPosition=bottom;labelBackgroundColor=#ffffff;imageAspect=0;aspect=fixed;image=https://cdn1.iconfinder.com/data/icons/photo-stickers-hats/128/hat_10-128.png;fillColor=#808080;" parent="nfgvuMoyPvfjutrKW8Xm-99" vertex="1">
          <mxGeometry x="92.5" width="40" height="40" as="geometry" />
        </mxCell>
        <mxCell id="nfgvuMoyPvfjutrKW8Xm-118" value="" style="shape=image;html=1;verticalAlign=top;verticalLabelPosition=bottom;labelBackgroundColor=#ffffff;imageAspect=0;aspect=fixed;image=https://cdn1.iconfinder.com/data/icons/photo-stickers-hats/128/hat_10-128.png;fillColor=#808080;" parent="nfgvuMoyPvfjutrKW8Xm-99" vertex="1">
          <mxGeometry x="2.5" y="40" width="40" height="40" as="geometry" />
        </mxCell>
        <mxCell id="nfgvuMoyPvfjutrKW8Xm-119" value="" style="shape=image;html=1;verticalAlign=top;verticalLabelPosition=bottom;labelBackgroundColor=#ffffff;imageAspect=0;aspect=fixed;image=https://cdn1.iconfinder.com/data/icons/photo-stickers-hats/128/hat_10-128.png;fillColor=#808080;" parent="nfgvuMoyPvfjutrKW8Xm-99" vertex="1">
          <mxGeometry x="137.5" y="40" width="40" height="40" as="geometry" />
        </mxCell>
        <mxCell id="nfgvuMoyPvfjutrKW8Xm-222" value="" style="endArrow=classic;html=1;exitX=0;exitY=1;exitDx=0;exitDy=0;entryX=0;entryY=0;entryDx=0;entryDy=0;" parent="1" source="nfgvuMoyPvfjutrKW8Xm-175" target="nfgvuMoyPvfjutrKW8Xm-102" edge="1">
          <mxGeometry width="50" height="50" relative="1" as="geometry">
            <mxPoint x="-3320" y="380" as="sourcePoint" />
            <mxPoint x="-3270" y="330" as="targetPoint" />
          </mxGeometry>
        </mxCell>
        <mxCell id="nfgvuMoyPvfjutrKW8Xm-223" value="" style="endArrow=classic;html=1;exitX=1;exitY=1;exitDx=0;exitDy=0;entryX=0;entryY=0;entryDx=0;entryDy=0;" parent="1" source="nfgvuMoyPvfjutrKW8Xm-174" target="nfgvuMoyPvfjutrKW8Xm-61" edge="1">
          <mxGeometry width="50" height="50" relative="1" as="geometry">
            <mxPoint x="-3000" y="380" as="sourcePoint" />
            <mxPoint x="-2950" y="330" as="targetPoint" />
          </mxGeometry>
        </mxCell>
        <mxCell id="nfgvuMoyPvfjutrKW8Xm-224" value="" style="endArrow=classic;html=1;exitX=0;exitY=1;exitDx=0;exitDy=0;" parent="1" source="nfgvuMoyPvfjutrKW8Xm-175" edge="1">
          <mxGeometry width="50" height="50" relative="1" as="geometry">
            <mxPoint x="-3100" y="400" as="sourcePoint" />
            <mxPoint x="-3107" y="440" as="targetPoint" />
          </mxGeometry>
        </mxCell>
        <mxCell id="nfgvuMoyPvfjutrKW8Xm-226" value="&lt;font style=&quot;font-size: 36px&quot;&gt;Score -4&lt;br&gt;&lt;/font&gt;" style="text;html=1;strokeColor=none;fillColor=none;align=center;verticalAlign=middle;whiteSpace=wrap;rounded=0;" parent="1" vertex="1">
          <mxGeometry x="-2995" y="230" width="145" height="40" as="geometry" />
        </mxCell>
        <mxCell id="nfgvuMoyPvfjutrKW8Xm-227" value="&lt;font style=&quot;font-size: 36px&quot;&gt;Score -2&lt;br&gt;&lt;/font&gt;" style="text;html=1;strokeColor=none;fillColor=none;align=center;verticalAlign=middle;whiteSpace=wrap;rounded=0;" parent="1" vertex="1">
          <mxGeometry x="-3562.5" y="600" width="145" height="40" as="geometry" />
        </mxCell>
        <mxCell id="nfgvuMoyPvfjutrKW8Xm-228" value="&lt;font style=&quot;font-size: 36px&quot;&gt;Score -3&lt;/font&gt;" style="text;html=1;strokeColor=none;fillColor=none;align=center;verticalAlign=middle;whiteSpace=wrap;rounded=0;" parent="1" vertex="1">
          <mxGeometry x="-2822.5" y="600" width="145" height="40" as="geometry" />
        </mxCell>
        <mxCell id="nfgvuMoyPvfjutrKW8Xm-229" value="&lt;font style=&quot;font-size: 36px&quot;&gt;Score -2&lt;br&gt;&lt;/font&gt;" style="text;html=1;strokeColor=#75FFA8;fillColor=none;align=center;verticalAlign=middle;whiteSpace=wrap;rounded=0;" parent="1" vertex="1">
          <mxGeometry x="-3182.5" y="600" width="145" height="40" as="geometry" />
        </mxCell>
        <mxCell id="nfgvuMoyPvfjutrKW8Xm-233" value="" style="group" parent="1" vertex="1" connectable="0">
          <mxGeometry x="-3200" y="720" width="180" height="160" as="geometry" />
        </mxCell>
        <mxCell id="nfgvuMoyPvfjutrKW8Xm-234" value="" style="group;fillColor=#A3A3A3;" parent="nfgvuMoyPvfjutrKW8Xm-233" vertex="1" connectable="0">
          <mxGeometry width="180" height="160" as="geometry" />
        </mxCell>
        <mxCell id="nfgvuMoyPvfjutrKW8Xm-235" value="" style="rounded=0;whiteSpace=wrap;html=1;" parent="nfgvuMoyPvfjutrKW8Xm-234" vertex="1">
          <mxGeometry width="45" height="40" as="geometry" />
        </mxCell>
        <mxCell id="nfgvuMoyPvfjutrKW8Xm-236" value="" style="rounded=0;whiteSpace=wrap;html=1;fillColor=#808080;" parent="nfgvuMoyPvfjutrKW8Xm-234" vertex="1">
          <mxGeometry x="45" width="45" height="40" as="geometry" />
        </mxCell>
        <mxCell id="nfgvuMoyPvfjutrKW8Xm-237" value="" style="rounded=0;whiteSpace=wrap;html=1;" parent="nfgvuMoyPvfjutrKW8Xm-234" vertex="1">
          <mxGeometry x="90" width="45" height="40" as="geometry" />
        </mxCell>
        <mxCell id="nfgvuMoyPvfjutrKW8Xm-238" value="" style="rounded=0;whiteSpace=wrap;html=1;fillColor=#808080;" parent="nfgvuMoyPvfjutrKW8Xm-234" vertex="1">
          <mxGeometry x="135" width="45" height="40" as="geometry" />
        </mxCell>
        <mxCell id="nfgvuMoyPvfjutrKW8Xm-239" value="" style="rounded=0;whiteSpace=wrap;html=1;fillColor=#808080;" parent="nfgvuMoyPvfjutrKW8Xm-234" vertex="1">
          <mxGeometry y="40" width="45" height="40" as="geometry" />
        </mxCell>
        <mxCell id="nfgvuMoyPvfjutrKW8Xm-240" value="" style="rounded=0;whiteSpace=wrap;html=1;" parent="nfgvuMoyPvfjutrKW8Xm-234" vertex="1">
          <mxGeometry x="45" y="40" width="45" height="40" as="geometry" />
        </mxCell>
        <mxCell id="nfgvuMoyPvfjutrKW8Xm-241" value="" style="rounded=0;whiteSpace=wrap;html=1;fillColor=#808080;" parent="nfgvuMoyPvfjutrKW8Xm-234" vertex="1">
          <mxGeometry x="90" y="40" width="45" height="40" as="geometry" />
        </mxCell>
        <mxCell id="nfgvuMoyPvfjutrKW8Xm-242" value="" style="rounded=0;whiteSpace=wrap;html=1;" parent="nfgvuMoyPvfjutrKW8Xm-234" vertex="1">
          <mxGeometry x="135" y="40" width="45" height="40" as="geometry" />
        </mxCell>
        <mxCell id="nfgvuMoyPvfjutrKW8Xm-243" value="" style="rounded=0;whiteSpace=wrap;html=1;" parent="nfgvuMoyPvfjutrKW8Xm-234" vertex="1">
          <mxGeometry y="80" width="45" height="40" as="geometry" />
        </mxCell>
        <mxCell id="nfgvuMoyPvfjutrKW8Xm-244" value="" style="rounded=0;whiteSpace=wrap;html=1;fillColor=#808080;" parent="nfgvuMoyPvfjutrKW8Xm-234" vertex="1">
          <mxGeometry x="45" y="80" width="45" height="40" as="geometry" />
        </mxCell>
        <mxCell id="nfgvuMoyPvfjutrKW8Xm-245" value="" style="rounded=0;whiteSpace=wrap;html=1;" parent="nfgvuMoyPvfjutrKW8Xm-234" vertex="1">
          <mxGeometry x="90" y="80" width="45" height="40" as="geometry" />
        </mxCell>
        <mxCell id="nfgvuMoyPvfjutrKW8Xm-246" value="" style="rounded=0;whiteSpace=wrap;html=1;fillColor=#808080;" parent="nfgvuMoyPvfjutrKW8Xm-234" vertex="1">
          <mxGeometry x="135" y="80" width="45" height="40" as="geometry" />
        </mxCell>
        <mxCell id="nfgvuMoyPvfjutrKW8Xm-247" value="" style="rounded=0;whiteSpace=wrap;html=1;fillColor=#808080;" parent="nfgvuMoyPvfjutrKW8Xm-234" vertex="1">
          <mxGeometry y="120" width="45" height="40" as="geometry" />
        </mxCell>
        <mxCell id="nfgvuMoyPvfjutrKW8Xm-248" value="" style="rounded=0;whiteSpace=wrap;html=1;" parent="nfgvuMoyPvfjutrKW8Xm-234" vertex="1">
          <mxGeometry x="45" y="120" width="45" height="40" as="geometry" />
        </mxCell>
        <mxCell id="nfgvuMoyPvfjutrKW8Xm-249" value="" style="rounded=0;whiteSpace=wrap;html=1;fillColor=#808080;" parent="nfgvuMoyPvfjutrKW8Xm-234" vertex="1">
          <mxGeometry x="90" y="120" width="45" height="40" as="geometry" />
        </mxCell>
        <mxCell id="nfgvuMoyPvfjutrKW8Xm-250" value="" style="rounded=0;whiteSpace=wrap;html=1;" parent="nfgvuMoyPvfjutrKW8Xm-234" vertex="1">
          <mxGeometry x="135" y="120" width="45" height="40" as="geometry" />
        </mxCell>
        <mxCell id="nfgvuMoyPvfjutrKW8Xm-251" value="" style="shape=image;html=1;verticalAlign=top;verticalLabelPosition=bottom;labelBackgroundColor=#ffffff;imageAspect=0;aspect=fixed;image=https://cdn1.iconfinder.com/data/icons/photo-stickers-hats/128/hat_10-128.png;fillColor=#808080;" parent="nfgvuMoyPvfjutrKW8Xm-234" vertex="1">
          <mxGeometry x="47.5" width="40" height="40" as="geometry" />
        </mxCell>
        <mxCell id="nfgvuMoyPvfjutrKW8Xm-252" value="" style="group;fillColor=#A3A3A3;" parent="nfgvuMoyPvfjutrKW8Xm-233" vertex="1" connectable="0">
          <mxGeometry width="180" height="160" as="geometry" />
        </mxCell>
        <mxCell id="nfgvuMoyPvfjutrKW8Xm-253" value="" style="rounded=0;whiteSpace=wrap;html=1;" parent="nfgvuMoyPvfjutrKW8Xm-252" vertex="1">
          <mxGeometry width="45" height="40" as="geometry" />
        </mxCell>
        <mxCell id="nfgvuMoyPvfjutrKW8Xm-254" value="" style="rounded=0;whiteSpace=wrap;html=1;fillColor=#808080;" parent="nfgvuMoyPvfjutrKW8Xm-252" vertex="1">
          <mxGeometry x="45" width="45" height="40" as="geometry" />
        </mxCell>
        <mxCell id="nfgvuMoyPvfjutrKW8Xm-255" value="" style="rounded=0;whiteSpace=wrap;html=1;" parent="nfgvuMoyPvfjutrKW8Xm-252" vertex="1">
          <mxGeometry x="90" width="45" height="40" as="geometry" />
        </mxCell>
        <mxCell id="nfgvuMoyPvfjutrKW8Xm-256" value="" style="rounded=0;whiteSpace=wrap;html=1;fillColor=#808080;" parent="nfgvuMoyPvfjutrKW8Xm-252" vertex="1">
          <mxGeometry x="135" width="45" height="40" as="geometry" />
        </mxCell>
        <mxCell id="nfgvuMoyPvfjutrKW8Xm-257" value="" style="rounded=0;whiteSpace=wrap;html=1;fillColor=#808080;" parent="nfgvuMoyPvfjutrKW8Xm-252" vertex="1">
          <mxGeometry y="40" width="45" height="40" as="geometry" />
        </mxCell>
        <mxCell id="nfgvuMoyPvfjutrKW8Xm-258" value="" style="rounded=0;whiteSpace=wrap;html=1;" parent="nfgvuMoyPvfjutrKW8Xm-252" vertex="1">
          <mxGeometry x="45" y="40" width="45" height="40" as="geometry" />
        </mxCell>
        <mxCell id="nfgvuMoyPvfjutrKW8Xm-259" value="" style="rounded=0;whiteSpace=wrap;html=1;fillColor=#808080;" parent="nfgvuMoyPvfjutrKW8Xm-252" vertex="1">
          <mxGeometry x="90" y="40" width="45" height="40" as="geometry" />
        </mxCell>
        <mxCell id="nfgvuMoyPvfjutrKW8Xm-260" value="" style="rounded=0;whiteSpace=wrap;html=1;" parent="nfgvuMoyPvfjutrKW8Xm-252" vertex="1">
          <mxGeometry x="135" y="40" width="45" height="40" as="geometry" />
        </mxCell>
        <mxCell id="nfgvuMoyPvfjutrKW8Xm-261" value="" style="rounded=0;whiteSpace=wrap;html=1;" parent="nfgvuMoyPvfjutrKW8Xm-252" vertex="1">
          <mxGeometry y="80" width="45" height="40" as="geometry" />
        </mxCell>
        <mxCell id="nfgvuMoyPvfjutrKW8Xm-262" value="" style="rounded=0;whiteSpace=wrap;html=1;fillColor=#808080;" parent="nfgvuMoyPvfjutrKW8Xm-252" vertex="1">
          <mxGeometry x="45" y="80" width="45" height="40" as="geometry" />
        </mxCell>
        <mxCell id="nfgvuMoyPvfjutrKW8Xm-263" value="" style="rounded=0;whiteSpace=wrap;html=1;" parent="nfgvuMoyPvfjutrKW8Xm-252" vertex="1">
          <mxGeometry x="90" y="80" width="45" height="40" as="geometry" />
        </mxCell>
        <mxCell id="nfgvuMoyPvfjutrKW8Xm-264" value="" style="rounded=0;whiteSpace=wrap;html=1;fillColor=#808080;" parent="nfgvuMoyPvfjutrKW8Xm-252" vertex="1">
          <mxGeometry x="135" y="80" width="45" height="40" as="geometry" />
        </mxCell>
        <mxCell id="nfgvuMoyPvfjutrKW8Xm-265" value="" style="rounded=0;whiteSpace=wrap;html=1;fillColor=#808080;" parent="nfgvuMoyPvfjutrKW8Xm-252" vertex="1">
          <mxGeometry y="120" width="45" height="40" as="geometry" />
        </mxCell>
        <mxCell id="nfgvuMoyPvfjutrKW8Xm-266" value="" style="rounded=0;whiteSpace=wrap;html=1;" parent="nfgvuMoyPvfjutrKW8Xm-252" vertex="1">
          <mxGeometry x="45" y="120" width="45" height="40" as="geometry" />
        </mxCell>
        <mxCell id="nfgvuMoyPvfjutrKW8Xm-267" value="" style="rounded=0;whiteSpace=wrap;html=1;fillColor=#808080;" parent="nfgvuMoyPvfjutrKW8Xm-252" vertex="1">
          <mxGeometry x="90" y="120" width="45" height="40" as="geometry" />
        </mxCell>
        <mxCell id="nfgvuMoyPvfjutrKW8Xm-268" value="" style="rounded=0;whiteSpace=wrap;html=1;" parent="nfgvuMoyPvfjutrKW8Xm-252" vertex="1">
          <mxGeometry x="135" y="120" width="45" height="40" as="geometry" />
        </mxCell>
        <mxCell id="nfgvuMoyPvfjutrKW8Xm-269" value="" style="shape=image;html=1;verticalAlign=top;verticalLabelPosition=bottom;labelBackgroundColor=#ffffff;imageAspect=0;aspect=fixed;image=https://cdn1.iconfinder.com/data/icons/photo-stickers-hats/128/hat_10-128.png;fillColor=#808080;" parent="nfgvuMoyPvfjutrKW8Xm-252" vertex="1">
          <mxGeometry x="47.5" width="40" height="40" as="geometry" />
        </mxCell>
        <mxCell id="nfgvuMoyPvfjutrKW8Xm-270" value="" style="shape=image;html=1;verticalAlign=top;verticalLabelPosition=bottom;labelBackgroundColor=#ffffff;imageAspect=0;aspect=fixed;image=https://cdn1.iconfinder.com/data/icons/photo-stickers-hats/128/hat_10-128.png;fillColor=#808080;" parent="nfgvuMoyPvfjutrKW8Xm-252" vertex="1">
          <mxGeometry x="92.5" width="40" height="40" as="geometry" />
        </mxCell>
        <mxCell id="nfgvuMoyPvfjutrKW8Xm-271" value="" style="shape=image;html=1;verticalAlign=top;verticalLabelPosition=bottom;labelBackgroundColor=#ffffff;imageAspect=0;aspect=fixed;image=https://cdn1.iconfinder.com/data/icons/photo-stickers-hats/128/hat_10-128.png;fillColor=#808080;" parent="nfgvuMoyPvfjutrKW8Xm-252" vertex="1">
          <mxGeometry x="2.5" y="80" width="40" height="40" as="geometry" />
        </mxCell>
        <mxCell id="nfgvuMoyPvfjutrKW8Xm-272" value="" style="shape=image;html=1;verticalAlign=top;verticalLabelPosition=bottom;labelBackgroundColor=#ffffff;imageAspect=0;aspect=fixed;image=https://cdn1.iconfinder.com/data/icons/photo-stickers-hats/128/hat_10-128.png;fillColor=#808080;" parent="nfgvuMoyPvfjutrKW8Xm-252" vertex="1">
          <mxGeometry x="137.5" y="120" width="40" height="40" as="geometry" />
        </mxCell>
        <mxCell id="nfgvuMoyPvfjutrKW8Xm-275" value="" style="group" parent="1" vertex="1" connectable="0">
          <mxGeometry x="-3580" y="720" width="180" height="160" as="geometry" />
        </mxCell>
        <mxCell id="nfgvuMoyPvfjutrKW8Xm-276" value="" style="group;fillColor=#A3A3A3;" parent="nfgvuMoyPvfjutrKW8Xm-275" vertex="1" connectable="0">
          <mxGeometry width="180" height="160" as="geometry" />
        </mxCell>
        <mxCell id="nfgvuMoyPvfjutrKW8Xm-277" value="" style="rounded=0;whiteSpace=wrap;html=1;" parent="nfgvuMoyPvfjutrKW8Xm-276" vertex="1">
          <mxGeometry width="45" height="40" as="geometry" />
        </mxCell>
        <mxCell id="nfgvuMoyPvfjutrKW8Xm-278" value="" style="rounded=0;whiteSpace=wrap;html=1;fillColor=#808080;" parent="nfgvuMoyPvfjutrKW8Xm-276" vertex="1">
          <mxGeometry x="45" width="45" height="40" as="geometry" />
        </mxCell>
        <mxCell id="nfgvuMoyPvfjutrKW8Xm-279" value="" style="rounded=0;whiteSpace=wrap;html=1;" parent="nfgvuMoyPvfjutrKW8Xm-276" vertex="1">
          <mxGeometry x="90" width="45" height="40" as="geometry" />
        </mxCell>
        <mxCell id="nfgvuMoyPvfjutrKW8Xm-280" value="" style="rounded=0;whiteSpace=wrap;html=1;fillColor=#808080;" parent="nfgvuMoyPvfjutrKW8Xm-276" vertex="1">
          <mxGeometry x="135" width="45" height="40" as="geometry" />
        </mxCell>
        <mxCell id="nfgvuMoyPvfjutrKW8Xm-281" value="" style="rounded=0;whiteSpace=wrap;html=1;fillColor=#808080;" parent="nfgvuMoyPvfjutrKW8Xm-276" vertex="1">
          <mxGeometry y="40" width="45" height="40" as="geometry" />
        </mxCell>
        <mxCell id="nfgvuMoyPvfjutrKW8Xm-282" value="" style="rounded=0;whiteSpace=wrap;html=1;" parent="nfgvuMoyPvfjutrKW8Xm-276" vertex="1">
          <mxGeometry x="45" y="40" width="45" height="40" as="geometry" />
        </mxCell>
        <mxCell id="nfgvuMoyPvfjutrKW8Xm-283" value="" style="rounded=0;whiteSpace=wrap;html=1;fillColor=#808080;" parent="nfgvuMoyPvfjutrKW8Xm-276" vertex="1">
          <mxGeometry x="90" y="40" width="45" height="40" as="geometry" />
        </mxCell>
        <mxCell id="nfgvuMoyPvfjutrKW8Xm-284" value="" style="rounded=0;whiteSpace=wrap;html=1;" parent="nfgvuMoyPvfjutrKW8Xm-276" vertex="1">
          <mxGeometry x="135" y="40" width="45" height="40" as="geometry" />
        </mxCell>
        <mxCell id="nfgvuMoyPvfjutrKW8Xm-285" value="" style="rounded=0;whiteSpace=wrap;html=1;" parent="nfgvuMoyPvfjutrKW8Xm-276" vertex="1">
          <mxGeometry y="80" width="45" height="40" as="geometry" />
        </mxCell>
        <mxCell id="nfgvuMoyPvfjutrKW8Xm-286" value="" style="rounded=0;whiteSpace=wrap;html=1;fillColor=#808080;" parent="nfgvuMoyPvfjutrKW8Xm-276" vertex="1">
          <mxGeometry x="45" y="80" width="45" height="40" as="geometry" />
        </mxCell>
        <mxCell id="nfgvuMoyPvfjutrKW8Xm-287" value="" style="rounded=0;whiteSpace=wrap;html=1;" parent="nfgvuMoyPvfjutrKW8Xm-276" vertex="1">
          <mxGeometry x="90" y="80" width="45" height="40" as="geometry" />
        </mxCell>
        <mxCell id="nfgvuMoyPvfjutrKW8Xm-288" value="" style="rounded=0;whiteSpace=wrap;html=1;fillColor=#808080;" parent="nfgvuMoyPvfjutrKW8Xm-276" vertex="1">
          <mxGeometry x="135" y="80" width="45" height="40" as="geometry" />
        </mxCell>
        <mxCell id="nfgvuMoyPvfjutrKW8Xm-289" value="" style="rounded=0;whiteSpace=wrap;html=1;fillColor=#808080;" parent="nfgvuMoyPvfjutrKW8Xm-276" vertex="1">
          <mxGeometry y="120" width="45" height="40" as="geometry" />
        </mxCell>
        <mxCell id="nfgvuMoyPvfjutrKW8Xm-290" value="" style="rounded=0;whiteSpace=wrap;html=1;" parent="nfgvuMoyPvfjutrKW8Xm-276" vertex="1">
          <mxGeometry x="45" y="120" width="45" height="40" as="geometry" />
        </mxCell>
        <mxCell id="nfgvuMoyPvfjutrKW8Xm-291" value="" style="rounded=0;whiteSpace=wrap;html=1;fillColor=#808080;" parent="nfgvuMoyPvfjutrKW8Xm-276" vertex="1">
          <mxGeometry x="90" y="120" width="45" height="40" as="geometry" />
        </mxCell>
        <mxCell id="nfgvuMoyPvfjutrKW8Xm-292" value="" style="rounded=0;whiteSpace=wrap;html=1;" parent="nfgvuMoyPvfjutrKW8Xm-276" vertex="1">
          <mxGeometry x="135" y="120" width="45" height="40" as="geometry" />
        </mxCell>
        <mxCell id="nfgvuMoyPvfjutrKW8Xm-293" value="" style="shape=image;html=1;verticalAlign=top;verticalLabelPosition=bottom;labelBackgroundColor=#ffffff;imageAspect=0;aspect=fixed;image=https://cdn1.iconfinder.com/data/icons/photo-stickers-hats/128/hat_10-128.png;fillColor=#808080;" parent="nfgvuMoyPvfjutrKW8Xm-276" vertex="1">
          <mxGeometry x="47.5" width="40" height="40" as="geometry" />
        </mxCell>
        <mxCell id="nfgvuMoyPvfjutrKW8Xm-294" value="" style="group;fillColor=#A3A3A3;" parent="nfgvuMoyPvfjutrKW8Xm-275" vertex="1" connectable="0">
          <mxGeometry width="180" height="160" as="geometry" />
        </mxCell>
        <mxCell id="nfgvuMoyPvfjutrKW8Xm-295" value="" style="rounded=0;whiteSpace=wrap;html=1;" parent="nfgvuMoyPvfjutrKW8Xm-294" vertex="1">
          <mxGeometry width="45" height="40" as="geometry" />
        </mxCell>
        <mxCell id="nfgvuMoyPvfjutrKW8Xm-296" value="" style="rounded=0;whiteSpace=wrap;html=1;fillColor=#808080;" parent="nfgvuMoyPvfjutrKW8Xm-294" vertex="1">
          <mxGeometry x="45" width="45" height="40" as="geometry" />
        </mxCell>
        <mxCell id="nfgvuMoyPvfjutrKW8Xm-297" value="" style="rounded=0;whiteSpace=wrap;html=1;" parent="nfgvuMoyPvfjutrKW8Xm-294" vertex="1">
          <mxGeometry x="90" width="45" height="40" as="geometry" />
        </mxCell>
        <mxCell id="nfgvuMoyPvfjutrKW8Xm-298" value="" style="rounded=0;whiteSpace=wrap;html=1;fillColor=#808080;" parent="nfgvuMoyPvfjutrKW8Xm-294" vertex="1">
          <mxGeometry x="135" width="45" height="40" as="geometry" />
        </mxCell>
        <mxCell id="nfgvuMoyPvfjutrKW8Xm-299" value="" style="rounded=0;whiteSpace=wrap;html=1;fillColor=#808080;" parent="nfgvuMoyPvfjutrKW8Xm-294" vertex="1">
          <mxGeometry y="40" width="45" height="40" as="geometry" />
        </mxCell>
        <mxCell id="nfgvuMoyPvfjutrKW8Xm-300" value="" style="rounded=0;whiteSpace=wrap;html=1;" parent="nfgvuMoyPvfjutrKW8Xm-294" vertex="1">
          <mxGeometry x="45" y="40" width="45" height="40" as="geometry" />
        </mxCell>
        <mxCell id="nfgvuMoyPvfjutrKW8Xm-301" value="" style="rounded=0;whiteSpace=wrap;html=1;fillColor=#808080;" parent="nfgvuMoyPvfjutrKW8Xm-294" vertex="1">
          <mxGeometry x="90" y="40" width="45" height="40" as="geometry" />
        </mxCell>
        <mxCell id="nfgvuMoyPvfjutrKW8Xm-302" value="" style="rounded=0;whiteSpace=wrap;html=1;" parent="nfgvuMoyPvfjutrKW8Xm-294" vertex="1">
          <mxGeometry x="135" y="40" width="45" height="40" as="geometry" />
        </mxCell>
        <mxCell id="nfgvuMoyPvfjutrKW8Xm-303" value="" style="rounded=0;whiteSpace=wrap;html=1;" parent="nfgvuMoyPvfjutrKW8Xm-294" vertex="1">
          <mxGeometry y="80" width="45" height="40" as="geometry" />
        </mxCell>
        <mxCell id="nfgvuMoyPvfjutrKW8Xm-304" value="" style="rounded=0;whiteSpace=wrap;html=1;fillColor=#808080;" parent="nfgvuMoyPvfjutrKW8Xm-294" vertex="1">
          <mxGeometry x="45" y="80" width="45" height="40" as="geometry" />
        </mxCell>
        <mxCell id="nfgvuMoyPvfjutrKW8Xm-305" value="" style="rounded=0;whiteSpace=wrap;html=1;" parent="nfgvuMoyPvfjutrKW8Xm-294" vertex="1">
          <mxGeometry x="90" y="80" width="45" height="40" as="geometry" />
        </mxCell>
        <mxCell id="nfgvuMoyPvfjutrKW8Xm-306" value="" style="rounded=0;whiteSpace=wrap;html=1;fillColor=#808080;" parent="nfgvuMoyPvfjutrKW8Xm-294" vertex="1">
          <mxGeometry x="135" y="80" width="45" height="40" as="geometry" />
        </mxCell>
        <mxCell id="nfgvuMoyPvfjutrKW8Xm-307" value="" style="rounded=0;whiteSpace=wrap;html=1;fillColor=#808080;" parent="nfgvuMoyPvfjutrKW8Xm-294" vertex="1">
          <mxGeometry y="120" width="45" height="40" as="geometry" />
        </mxCell>
        <mxCell id="nfgvuMoyPvfjutrKW8Xm-308" value="" style="rounded=0;whiteSpace=wrap;html=1;" parent="nfgvuMoyPvfjutrKW8Xm-294" vertex="1">
          <mxGeometry x="45" y="120" width="45" height="40" as="geometry" />
        </mxCell>
        <mxCell id="nfgvuMoyPvfjutrKW8Xm-309" value="" style="rounded=0;whiteSpace=wrap;html=1;fillColor=#808080;" parent="nfgvuMoyPvfjutrKW8Xm-294" vertex="1">
          <mxGeometry x="90" y="120" width="45" height="40" as="geometry" />
        </mxCell>
        <mxCell id="nfgvuMoyPvfjutrKW8Xm-310" value="" style="rounded=0;whiteSpace=wrap;html=1;" parent="nfgvuMoyPvfjutrKW8Xm-294" vertex="1">
          <mxGeometry x="135" y="120" width="45" height="40" as="geometry" />
        </mxCell>
        <mxCell id="nfgvuMoyPvfjutrKW8Xm-311" value="" style="shape=image;html=1;verticalAlign=top;verticalLabelPosition=bottom;labelBackgroundColor=#ffffff;imageAspect=0;aspect=fixed;image=https://cdn1.iconfinder.com/data/icons/photo-stickers-hats/128/hat_10-128.png;fillColor=#808080;" parent="nfgvuMoyPvfjutrKW8Xm-294" vertex="1">
          <mxGeometry x="47.5" width="40" height="40" as="geometry" />
        </mxCell>
        <mxCell id="nfgvuMoyPvfjutrKW8Xm-312" value="" style="shape=image;html=1;verticalAlign=top;verticalLabelPosition=bottom;labelBackgroundColor=#ffffff;imageAspect=0;aspect=fixed;image=https://cdn1.iconfinder.com/data/icons/photo-stickers-hats/128/hat_10-128.png;fillColor=#808080;" parent="nfgvuMoyPvfjutrKW8Xm-294" vertex="1">
          <mxGeometry x="92.5" y="120" width="40" height="40" as="geometry" />
        </mxCell>
        <mxCell id="nfgvuMoyPvfjutrKW8Xm-313" value="" style="shape=image;html=1;verticalAlign=top;verticalLabelPosition=bottom;labelBackgroundColor=#ffffff;imageAspect=0;aspect=fixed;image=https://cdn1.iconfinder.com/data/icons/photo-stickers-hats/128/hat_10-128.png;fillColor=#808080;" parent="nfgvuMoyPvfjutrKW8Xm-294" vertex="1">
          <mxGeometry x="2.5" y="80" width="40" height="40" as="geometry" />
        </mxCell>
        <mxCell id="nfgvuMoyPvfjutrKW8Xm-314" value="" style="shape=image;html=1;verticalAlign=top;verticalLabelPosition=bottom;labelBackgroundColor=#ffffff;imageAspect=0;aspect=fixed;image=https://cdn1.iconfinder.com/data/icons/photo-stickers-hats/128/hat_10-128.png;fillColor=#808080;" parent="nfgvuMoyPvfjutrKW8Xm-294" vertex="1">
          <mxGeometry x="137.5" y="40" width="40" height="40" as="geometry" />
        </mxCell>
        <mxCell id="nfgvuMoyPvfjutrKW8Xm-316" value="" style="group" parent="1" vertex="1" connectable="0">
          <mxGeometry x="-2840" y="720" width="180" height="160" as="geometry" />
        </mxCell>
        <mxCell id="nfgvuMoyPvfjutrKW8Xm-317" value="" style="group;fillColor=#A3A3A3;" parent="nfgvuMoyPvfjutrKW8Xm-316" vertex="1" connectable="0">
          <mxGeometry width="180" height="160" as="geometry" />
        </mxCell>
        <mxCell id="nfgvuMoyPvfjutrKW8Xm-318" value="" style="rounded=0;whiteSpace=wrap;html=1;" parent="nfgvuMoyPvfjutrKW8Xm-317" vertex="1">
          <mxGeometry width="45" height="40" as="geometry" />
        </mxCell>
        <mxCell id="nfgvuMoyPvfjutrKW8Xm-319" value="" style="rounded=0;whiteSpace=wrap;html=1;fillColor=#808080;" parent="nfgvuMoyPvfjutrKW8Xm-317" vertex="1">
          <mxGeometry x="45" width="45" height="40" as="geometry" />
        </mxCell>
        <mxCell id="nfgvuMoyPvfjutrKW8Xm-320" value="" style="rounded=0;whiteSpace=wrap;html=1;" parent="nfgvuMoyPvfjutrKW8Xm-317" vertex="1">
          <mxGeometry x="90" width="45" height="40" as="geometry" />
        </mxCell>
        <mxCell id="nfgvuMoyPvfjutrKW8Xm-321" value="" style="rounded=0;whiteSpace=wrap;html=1;fillColor=#808080;" parent="nfgvuMoyPvfjutrKW8Xm-317" vertex="1">
          <mxGeometry x="135" width="45" height="40" as="geometry" />
        </mxCell>
        <mxCell id="nfgvuMoyPvfjutrKW8Xm-322" value="" style="rounded=0;whiteSpace=wrap;html=1;fillColor=#808080;" parent="nfgvuMoyPvfjutrKW8Xm-317" vertex="1">
          <mxGeometry y="40" width="45" height="40" as="geometry" />
        </mxCell>
        <mxCell id="nfgvuMoyPvfjutrKW8Xm-323" value="" style="rounded=0;whiteSpace=wrap;html=1;" parent="nfgvuMoyPvfjutrKW8Xm-317" vertex="1">
          <mxGeometry x="45" y="40" width="45" height="40" as="geometry" />
        </mxCell>
        <mxCell id="nfgvuMoyPvfjutrKW8Xm-324" value="" style="rounded=0;whiteSpace=wrap;html=1;fillColor=#808080;" parent="nfgvuMoyPvfjutrKW8Xm-317" vertex="1">
          <mxGeometry x="90" y="40" width="45" height="40" as="geometry" />
        </mxCell>
        <mxCell id="nfgvuMoyPvfjutrKW8Xm-325" value="" style="rounded=0;whiteSpace=wrap;html=1;" parent="nfgvuMoyPvfjutrKW8Xm-317" vertex="1">
          <mxGeometry x="135" y="40" width="45" height="40" as="geometry" />
        </mxCell>
        <mxCell id="nfgvuMoyPvfjutrKW8Xm-326" value="" style="rounded=0;whiteSpace=wrap;html=1;" parent="nfgvuMoyPvfjutrKW8Xm-317" vertex="1">
          <mxGeometry y="80" width="45" height="40" as="geometry" />
        </mxCell>
        <mxCell id="nfgvuMoyPvfjutrKW8Xm-327" value="" style="rounded=0;whiteSpace=wrap;html=1;fillColor=#808080;" parent="nfgvuMoyPvfjutrKW8Xm-317" vertex="1">
          <mxGeometry x="45" y="80" width="45" height="40" as="geometry" />
        </mxCell>
        <mxCell id="nfgvuMoyPvfjutrKW8Xm-328" value="" style="rounded=0;whiteSpace=wrap;html=1;" parent="nfgvuMoyPvfjutrKW8Xm-317" vertex="1">
          <mxGeometry x="90" y="80" width="45" height="40" as="geometry" />
        </mxCell>
        <mxCell id="nfgvuMoyPvfjutrKW8Xm-329" value="" style="rounded=0;whiteSpace=wrap;html=1;fillColor=#808080;" parent="nfgvuMoyPvfjutrKW8Xm-317" vertex="1">
          <mxGeometry x="135" y="80" width="45" height="40" as="geometry" />
        </mxCell>
        <mxCell id="nfgvuMoyPvfjutrKW8Xm-330" value="" style="rounded=0;whiteSpace=wrap;html=1;fillColor=#808080;" parent="nfgvuMoyPvfjutrKW8Xm-317" vertex="1">
          <mxGeometry y="120" width="45" height="40" as="geometry" />
        </mxCell>
        <mxCell id="nfgvuMoyPvfjutrKW8Xm-331" value="" style="rounded=0;whiteSpace=wrap;html=1;" parent="nfgvuMoyPvfjutrKW8Xm-317" vertex="1">
          <mxGeometry x="45" y="120" width="45" height="40" as="geometry" />
        </mxCell>
        <mxCell id="nfgvuMoyPvfjutrKW8Xm-332" value="" style="rounded=0;whiteSpace=wrap;html=1;fillColor=#808080;" parent="nfgvuMoyPvfjutrKW8Xm-317" vertex="1">
          <mxGeometry x="90" y="120" width="45" height="40" as="geometry" />
        </mxCell>
        <mxCell id="nfgvuMoyPvfjutrKW8Xm-333" value="" style="rounded=0;whiteSpace=wrap;html=1;" parent="nfgvuMoyPvfjutrKW8Xm-317" vertex="1">
          <mxGeometry x="135" y="120" width="45" height="40" as="geometry" />
        </mxCell>
        <mxCell id="nfgvuMoyPvfjutrKW8Xm-334" value="" style="shape=image;html=1;verticalAlign=top;verticalLabelPosition=bottom;labelBackgroundColor=#ffffff;imageAspect=0;aspect=fixed;image=https://cdn1.iconfinder.com/data/icons/photo-stickers-hats/128/hat_10-128.png;fillColor=#808080;" parent="nfgvuMoyPvfjutrKW8Xm-317" vertex="1">
          <mxGeometry x="47.5" width="40" height="40" as="geometry" />
        </mxCell>
        <mxCell id="nfgvuMoyPvfjutrKW8Xm-335" value="" style="group;fillColor=#A3A3A3;" parent="nfgvuMoyPvfjutrKW8Xm-316" vertex="1" connectable="0">
          <mxGeometry width="180" height="160" as="geometry" />
        </mxCell>
        <mxCell id="nfgvuMoyPvfjutrKW8Xm-336" value="" style="rounded=0;whiteSpace=wrap;html=1;" parent="nfgvuMoyPvfjutrKW8Xm-335" vertex="1">
          <mxGeometry width="45" height="40" as="geometry" />
        </mxCell>
        <mxCell id="nfgvuMoyPvfjutrKW8Xm-337" value="" style="rounded=0;whiteSpace=wrap;html=1;fillColor=#808080;" parent="nfgvuMoyPvfjutrKW8Xm-335" vertex="1">
          <mxGeometry x="45" width="45" height="40" as="geometry" />
        </mxCell>
        <mxCell id="nfgvuMoyPvfjutrKW8Xm-338" value="" style="rounded=0;whiteSpace=wrap;html=1;" parent="nfgvuMoyPvfjutrKW8Xm-335" vertex="1">
          <mxGeometry x="90" width="45" height="40" as="geometry" />
        </mxCell>
        <mxCell id="nfgvuMoyPvfjutrKW8Xm-339" value="" style="rounded=0;whiteSpace=wrap;html=1;fillColor=#808080;" parent="nfgvuMoyPvfjutrKW8Xm-335" vertex="1">
          <mxGeometry x="135" width="45" height="40" as="geometry" />
        </mxCell>
        <mxCell id="nfgvuMoyPvfjutrKW8Xm-340" value="" style="rounded=0;whiteSpace=wrap;html=1;fillColor=#808080;" parent="nfgvuMoyPvfjutrKW8Xm-335" vertex="1">
          <mxGeometry y="40" width="45" height="40" as="geometry" />
        </mxCell>
        <mxCell id="nfgvuMoyPvfjutrKW8Xm-341" value="" style="rounded=0;whiteSpace=wrap;html=1;" parent="nfgvuMoyPvfjutrKW8Xm-335" vertex="1">
          <mxGeometry x="45" y="40" width="45" height="40" as="geometry" />
        </mxCell>
        <mxCell id="nfgvuMoyPvfjutrKW8Xm-342" value="" style="rounded=0;whiteSpace=wrap;html=1;fillColor=#808080;" parent="nfgvuMoyPvfjutrKW8Xm-335" vertex="1">
          <mxGeometry x="90" y="40" width="45" height="40" as="geometry" />
        </mxCell>
        <mxCell id="nfgvuMoyPvfjutrKW8Xm-343" value="" style="rounded=0;whiteSpace=wrap;html=1;" parent="nfgvuMoyPvfjutrKW8Xm-335" vertex="1">
          <mxGeometry x="135" y="40" width="45" height="40" as="geometry" />
        </mxCell>
        <mxCell id="nfgvuMoyPvfjutrKW8Xm-344" value="" style="rounded=0;whiteSpace=wrap;html=1;" parent="nfgvuMoyPvfjutrKW8Xm-335" vertex="1">
          <mxGeometry y="80" width="45" height="40" as="geometry" />
        </mxCell>
        <mxCell id="nfgvuMoyPvfjutrKW8Xm-345" value="" style="rounded=0;whiteSpace=wrap;html=1;fillColor=#808080;" parent="nfgvuMoyPvfjutrKW8Xm-335" vertex="1">
          <mxGeometry x="45" y="80" width="45" height="40" as="geometry" />
        </mxCell>
        <mxCell id="nfgvuMoyPvfjutrKW8Xm-346" value="" style="rounded=0;whiteSpace=wrap;html=1;" parent="nfgvuMoyPvfjutrKW8Xm-335" vertex="1">
          <mxGeometry x="90" y="80" width="45" height="40" as="geometry" />
        </mxCell>
        <mxCell id="nfgvuMoyPvfjutrKW8Xm-347" value="" style="rounded=0;whiteSpace=wrap;html=1;fillColor=#808080;" parent="nfgvuMoyPvfjutrKW8Xm-335" vertex="1">
          <mxGeometry x="135" y="80" width="45" height="40" as="geometry" />
        </mxCell>
        <mxCell id="nfgvuMoyPvfjutrKW8Xm-348" value="" style="rounded=0;whiteSpace=wrap;html=1;fillColor=#808080;" parent="nfgvuMoyPvfjutrKW8Xm-335" vertex="1">
          <mxGeometry y="120" width="45" height="40" as="geometry" />
        </mxCell>
        <mxCell id="nfgvuMoyPvfjutrKW8Xm-349" value="" style="rounded=0;whiteSpace=wrap;html=1;" parent="nfgvuMoyPvfjutrKW8Xm-335" vertex="1">
          <mxGeometry x="45" y="120" width="45" height="40" as="geometry" />
        </mxCell>
        <mxCell id="nfgvuMoyPvfjutrKW8Xm-350" value="" style="rounded=0;whiteSpace=wrap;html=1;fillColor=#808080;" parent="nfgvuMoyPvfjutrKW8Xm-335" vertex="1">
          <mxGeometry x="90" y="120" width="45" height="40" as="geometry" />
        </mxCell>
        <mxCell id="nfgvuMoyPvfjutrKW8Xm-351" value="" style="rounded=0;whiteSpace=wrap;html=1;" parent="nfgvuMoyPvfjutrKW8Xm-335" vertex="1">
          <mxGeometry x="135" y="120" width="45" height="40" as="geometry" />
        </mxCell>
        <mxCell id="nfgvuMoyPvfjutrKW8Xm-352" value="" style="shape=image;html=1;verticalAlign=top;verticalLabelPosition=bottom;labelBackgroundColor=#ffffff;imageAspect=0;aspect=fixed;image=https://cdn1.iconfinder.com/data/icons/photo-stickers-hats/128/hat_10-128.png;fillColor=#808080;" parent="nfgvuMoyPvfjutrKW8Xm-335" vertex="1">
          <mxGeometry x="47.5" y="120" width="40" height="40" as="geometry" />
        </mxCell>
        <mxCell id="nfgvuMoyPvfjutrKW8Xm-353" value="" style="shape=image;html=1;verticalAlign=top;verticalLabelPosition=bottom;labelBackgroundColor=#ffffff;imageAspect=0;aspect=fixed;image=https://cdn1.iconfinder.com/data/icons/photo-stickers-hats/128/hat_10-128.png;fillColor=#808080;" parent="nfgvuMoyPvfjutrKW8Xm-335" vertex="1">
          <mxGeometry x="92.5" width="40" height="40" as="geometry" />
        </mxCell>
        <mxCell id="nfgvuMoyPvfjutrKW8Xm-354" value="" style="shape=image;html=1;verticalAlign=top;verticalLabelPosition=bottom;labelBackgroundColor=#ffffff;imageAspect=0;aspect=fixed;image=https://cdn1.iconfinder.com/data/icons/photo-stickers-hats/128/hat_10-128.png;fillColor=#808080;" parent="nfgvuMoyPvfjutrKW8Xm-335" vertex="1">
          <mxGeometry x="2.5" y="80" width="40" height="40" as="geometry" />
        </mxCell>
        <mxCell id="nfgvuMoyPvfjutrKW8Xm-355" value="" style="shape=image;html=1;verticalAlign=top;verticalLabelPosition=bottom;labelBackgroundColor=#ffffff;imageAspect=0;aspect=fixed;image=https://cdn1.iconfinder.com/data/icons/photo-stickers-hats/128/hat_10-128.png;fillColor=#808080;" parent="nfgvuMoyPvfjutrKW8Xm-335" vertex="1">
          <mxGeometry x="137.5" y="40" width="40" height="40" as="geometry" />
        </mxCell>
        <mxCell id="nfgvuMoyPvfjutrKW8Xm-356" value="&lt;font style=&quot;font-size: 36px&quot;&gt;Score 0&lt;br&gt;&lt;/font&gt;" style="text;html=1;strokeColor=#2BFF4F;fillColor=none;align=center;verticalAlign=middle;whiteSpace=wrap;rounded=0;" parent="1" vertex="1">
          <mxGeometry x="-3562.5" y="880" width="145" height="40" as="geometry" />
        </mxCell>
        <mxCell id="nfgvuMoyPvfjutrKW8Xm-357" value="&lt;font style=&quot;font-size: 36px&quot;&gt;Score -1&lt;/font&gt;" style="text;html=1;strokeColor=none;fillColor=none;align=center;verticalAlign=middle;whiteSpace=wrap;rounded=0;" parent="1" vertex="1">
          <mxGeometry x="-3182.5" y="880" width="145" height="40" as="geometry" />
        </mxCell>
        <mxCell id="nfgvuMoyPvfjutrKW8Xm-358" value="&lt;font style=&quot;font-size: 36px&quot;&gt;Score -2&lt;/font&gt;" style="text;html=1;strokeColor=none;fillColor=none;align=center;verticalAlign=middle;whiteSpace=wrap;rounded=0;" parent="1" vertex="1">
          <mxGeometry x="-2822.5" y="880" width="145" height="40" as="geometry" />
        </mxCell>
        <mxCell id="nfgvuMoyPvfjutrKW8Xm-361" value="" style="endArrow=classic;html=1;exitX=0.5;exitY=1;exitDx=0;exitDy=0;entryX=0;entryY=0;entryDx=0;entryDy=0;" parent="1" source="nfgvuMoyPvfjutrKW8Xm-229" target="nfgvuMoyPvfjutrKW8Xm-297" edge="1">
          <mxGeometry width="50" height="50" relative="1" as="geometry">
            <mxPoint x="-3420" y="710" as="sourcePoint" />
            <mxPoint x="-3370" y="660" as="targetPoint" />
          </mxGeometry>
        </mxCell>
        <mxCell id="nfgvuMoyPvfjutrKW8Xm-362" value="" style="endArrow=classic;html=1;exitX=0.5;exitY=1;exitDx=0;exitDy=0;entryX=0;entryY=0;entryDx=0;entryDy=0;" parent="1" source="nfgvuMoyPvfjutrKW8Xm-229" target="nfgvuMoyPvfjutrKW8Xm-270" edge="1">
          <mxGeometry width="50" height="50" relative="1" as="geometry">
            <mxPoint x="-3040" y="710" as="sourcePoint" />
            <mxPoint x="-2990" y="660" as="targetPoint" />
          </mxGeometry>
        </mxCell>
        <mxCell id="nfgvuMoyPvfjutrKW8Xm-363" value="" style="endArrow=classic;html=1;entryX=0;entryY=0;entryDx=0;entryDy=0;" parent="1" target="nfgvuMoyPvfjutrKW8Xm-353" edge="1">
          <mxGeometry width="50" height="50" relative="1" as="geometry">
            <mxPoint x="-3110" y="640" as="sourcePoint" />
            <mxPoint x="-2950" y="660" as="targetPoint" />
          </mxGeometry>
        </mxCell>
        <mxCell id="p3xTdF32Xgd2Unzx8Kgn-3" value="" style="group" parent="1" vertex="1" connectable="0">
          <mxGeometry x="-4970" y="280" width="260" height="120" as="geometry" />
        </mxCell>
        <mxCell id="p3xTdF32Xgd2Unzx8Kgn-2" value="" style="rhombus;whiteSpace=wrap;html=1;" parent="p3xTdF32Xgd2Unzx8Kgn-3" vertex="1">
          <mxGeometry width="260" height="120" as="geometry" />
        </mxCell>
        <mxCell id="p3xTdF32Xgd2Unzx8Kgn-1" value="" style="rhombus;whiteSpace=wrap;html=1;" parent="p3xTdF32Xgd2Unzx8Kgn-3" vertex="1">
          <mxGeometry x="20" y="10" width="220" height="100" as="geometry" />
        </mxCell>
        <mxCell id="p3xTdF32Xgd2Unzx8Kgn-4" value="" style="group" parent="1" vertex="1" connectable="0">
          <mxGeometry x="-4650" y="510" width="260" height="120" as="geometry" />
        </mxCell>
        <mxCell id="p3xTdF32Xgd2Unzx8Kgn-5" value="" style="rhombus;whiteSpace=wrap;html=1;" parent="p3xTdF32Xgd2Unzx8Kgn-4" vertex="1">
          <mxGeometry width="260" height="120" as="geometry" />
        </mxCell>
        <mxCell id="p3xTdF32Xgd2Unzx8Kgn-6" value="" style="rhombus;whiteSpace=wrap;html=1;" parent="p3xTdF32Xgd2Unzx8Kgn-4" vertex="1">
          <mxGeometry x="20" y="10" width="220" height="100" as="geometry" />
        </mxCell>
        <mxCell id="LJs1QpC4PnOxTTwe2DXZ-1" value="" style="shape=image;verticalLabelPosition=bottom;labelBackgroundColor=#ffffff;verticalAlign=top;aspect=fixed;imageAspect=0;image=data:image/png,iVBORw0KGgoAAAANSUhEUgAABJ0AAAMFCAYAAADeIofnAAAgAElEQVR4nOzdy5HiOhgGUEfVVTiaWXQ5lVk2Idz97AljEiCJyUB3wUu25RcIbMQ5VX/d2w3Ihmks/CHJVQAAAACAzKq1dwAAAACA8gidAAAAAMhO6AQAAABAdkInAAAAALITOgEAAACQndAJAAAAgOyETgAAAABkJ3QCAAAAIDuhEwAAAADZCZ0AAAAAyE7oBAAAAEB2QicAAAAAshM6AQAAAJCd0AkAAACA7IROAAAAAGQndAIAAAAgO6ETAAAAANkJnQAAAADITugEAAAAQHZCJwAAAACyEzoBAAAAkJ3QCQAAAIDshE4AAAAAZCd0AgAAACA7oRMAAAAA2QmdAAAAAMhO6AQAAABAdkInAAAAALITOgEAAACQndAJAAAAgOyETgAAAABkJ3QCAAAAIDuhEwAAAADZCZ0AAAAAyE7oBAAAAEB2QicAAAAAshM6AQAAAJCd0AkAAACA7IROAAAAAGQndAIAAAAgO6ETAAAAANkJnQAAAADITugEAAAAQHZCJwAAAACyEzoBAAAAkJ3QCQAAAIDshE4AAAAAZCd0AgAAACA7oRMAAAAA2QmdAAAAAMhO6AQAAABAdkInAAAAALITOgEAAACQndAJAAAAgOyETgAAAABkJ3QCAAAAIDuhEwAAAADZCZ0AAAAAyE7oBAAAAEB2QicAAAAAshM6AQAAAJCd0AkAAACA7IROAAAAAGQndAIAAAAgO6ETAAAAANkJnQAAAADITugEAAAAQHZCJwAAAACyEzoBAAAAkJ3QCQAAAIDshE4AAAAAZCd0AgAAACA7oRMAAAAA2QmdAAAAAMhO6AQAAABAdkInAAAAALITOgEAAACQndAJAAAAgOyETgAAAABkJ3QCAAAAIDuhEwAAAADZCZ0AAAAAyE7oBAALfH9/K6WeXABAGYROALDA9/d3+Pfvn1LqSSV0AoByCJ0AYAGhk1LPLaETAJRD6AQACwidlHpuCZ0AoBxCJwBYQOik1HNL6AQA5RA6AcACQielnltCJwAoh9AJABYQOin13BI6AUA5hE4AsIDQSannltAJAMohdAKABYROSj23hE4AUA6hEwAsIHRS6rkldAKAcgidAGCBdOj0N/z+qkJVjdWv8Gfsfr/+pE/C//4OX9f7fYXff/v3+fPr1s7X77/Dt3/9Dn+j3//9/TWwn0v3IXpe8fP48yv5/Ka2e93foddkoIae57NfR5W3hE4AUA6hEwAs8LTQaSBk6QY0o2HIQKDSD0vG9qMfOk3vQyp0+hN+Vfdt9xmh03NeR/WMEjoBQDmETgCwwJzpdcPhRCqciYOYbuBzu+3r62sw8GiHJf379PYnGoHUDl/+ht9f9+xD/3nd9ikKb2ZuN3/o9KTXUT2lhE4AUA6hEwAskD90isOOTuBznRL2K/y5/v/YCJyv6xSyONSZHzolatY+dJ5X1P6vP9H9Zm43e+j0rNdRPaWETgBQDqETACyQP3SKpqF1QpbrlLCv3+FvPFqnE9i0tncNdm6hSn9/om2mwqHF+xA/r9/p9Z0WbDd36PS811E9o4ROAFAOoRMALJAtdBpZ06gb0FzCkdu6RO37drc39fNQANQPgebuQ/p5pYOs6e3mDZ2e/ToqoRMAMEToBAALPCd0SlxNLTHSJr4CWzKkSYxk+vr9dyIs6YZAqTWYpvZhYKRT6kp4M7abNXR62euocpXQCQDKIXQCgAVyT68bWs+pt6h1t1JrQg2ELV9fM8KSxHpL8/eh87yiUGcyOBrbbobQ6eWvo3q4hE4AUA6hEwAs8Jo1ndJT0Iam4w1tb/BqbH9+9QOd3uLfS/ah/7xuU9iitZNmbXdJ6PQ3/P59vk8y6Hry66ieUkInACiH0AkAFnjG1evigObXn3QQMyuk6W2vE7okrl43GMIs2ofU84qnEp6nts3Z7r+FoVNvumJqeuCTXkf1lBI6AUA5hE4AsMAzQqfhtZ5SayL1R0aNrjUUjwAauXrdcGA0Zx8Gnle87epX+DO53c7rtzh0Glrc/Fmvo3pGCZ0AoBxCJwBYYE7opJS6v4ROAFAOoRMALCB0enWNrMu0cKFx9R4ldAKAcgidAGABoZNSzy2hEwCUQ+gEAAvEodN///2nlMpUQicAKI/QCQAW6IZOa48KUaqEEjoBQJmETgCwQCp0yil3e7B1QicAKJfQCQAWEDpBXkInACiX0AkAFhA6QV5CJwAol9AJABYQOkFeQicAKJfQCQAWEDpBXkInACiX0AkAFhA6QV5CJwAol9AJABZYP3Q6hKaqw/54+fkY9nUVquawcEvddpY+vAlVVV2rbjX0YNt8FKETAJRL6AQAC2wtdDo03cBnrgeCoUMTqkTwdduPe9oWVH0qoRMAlEvoBAALbCl0Ou7rO0Y49dtZ5hQw9TZ73Ie6asLh7raFTp9K6AQA5RI6AcACmwmd9k2o6n3oZTTHfaijaW+tcCi6rd7v2yFP63GX8CihFS61bgj7+tLeeR8P8fZue3pobvt3Cs0Ooam6v+NTCJ0AoFxCJwBYYBuhUyJQim67/v64D3UVB0G32477Opoi1xlldGiGp+wd96FOhV2tEVDnfbzcr7Uf3f0d2Ac+htAJAMoldAKABbYROl1GEXVCmsQopENzDoJ6YVEU8nRGR42ONloy0inat+t+nH6ItiV0+nRCJwAol9AJABbYTOh0DOfwJgqAHgqdRqbUtdyzplP0mNb9xoMqPoPQCQDKJXQCgAU2FTqF8zS5a5iUml4XB0Fj0+sWXAWvG3b1Ht/5Od6PQzMw7U7o9KmETgBQLqETACywtdAphPPC3K0gpzt17XrH67S28YXEZyzm3Zoi1x35dNrHpqkTt59GPVVVFaq6CU1924frAuMWEv8oQicAKJfQCQAWWD90grIInQCgXEInAFjgc0Kn21XybjV33SeYT+gEAOUSOgHAAp8TOsFrCJ0AoFxCJwBYQOgEeQmdAKBcQicAWEDoBHkJnQCgXEInAFhA6AR5CZ0AoFxCJwBYQOgEeQmdAKBcQicAWCAVOimlHiuhEwCUSegEAAsY6QR5CZ0AoFxCJwBYQOgEeQmdAKBcQicAWEDoBHkJnQCgXEInAFhA6AR5CZ0AoFxCJwBYQOgEeQmdAKBcQicAWEDoBHkJnQCgXEInAFhg7dDp0FShqvpV749DjwhNVYehm5e39wzj+9hy3Id67n15C0InACiX0AkAFlg7dLqZG9Tkvt8zrLlt1iZ0AoByCZ0AYAGh0zMInT6Z0AkAyiV0AoAFNhs6Hfehvk6N20e33RM6nf6/aepQVU04hM40vObQfsy+SUzLO4Z9fXvM5SGj7Vy3fbkt1YaAqjRCJwAol9AJABbYZuh0CmouGc5xX4fq4dBpaF2noYAohHBoriFVODRRqDRne3XYH08h0y2LSrUhdCqN0AkAyiV0AoAFNhk6HfehrvfhmLrtgZFOrcccmmih8aH7dfYpFVyNtFPXnfsn2xA6lUboBADlEjoBwAIfGTod96G+jGAKx7CvZ4RO14fWt6lxo+1Uoa7r5OioVhtCp+IInQCgXEInAFhgk6HTU6bXRY85NKG6hFrHfajnjHSKHPf1abTSjHYOTXpa37UNoVNxhE4AUC6hEwAssM3QKbSmreVaSPz2mGhB77oJzZyRTq1pdPHopql2zvep9+GYbEPoVBqhEwCUS+gEAAtsJ3Qa0ZrGBtsmdAKAcgmdAGCBdwidDk11m8Z2++3pSnOtEkyxPqETAJRL6AQAC2wzdIqmrQmTeDNCJwAol9AJABbYZugE70voBADlEjoBwAJCJ8hL6AQA5RI6AcACQifIS+gEAOUSOgHAAkInyEvoBADlEjoBwAKp0Ekp9VgJnQCgTEInAFjASCfIS+gEAOUSOgHAAkInyEvoBADlEjoBwAJCJ8hL6AQA5RI6AcACQifIS+gEAOUSOgHAAkInyEvoBADlEjoBwAJCJ8hL6AQA5RI6AcAC2widDqGp6rA/5tzynDaXbffQVKGq+lXPaeC4D/VDz/EZrxHPIHQCgHIJnQBgAaHTPdtdIwASOr0LoRMAlEvoBAALCJ2ETuQldAKAcgmdAGCB7YVO3XAlcdthH+rz1LbmEMJxXyemurXbaU2Naw7t+0TtzZoq193H4+3xVdWEQ3SfpqnPv5v7HCf2Vei0eUInACiX0AkAFni/0KkKVb0Ppx+bdlB0aHqhTz+kmWrv8vg79/fQnPfn1HY6BBsPnea9LmyV0AkAyiV0AoAF3i90GgtrxsOg2+LfS8Ofkf1tjXKKRyc98Dxm7StbJXQCgHIJnQBggY8InY77UF9HMB3Dvs4dOqVGR935PGbvK1sldAKAcgmdAGCBTYROh+Y2xS0cw74+rdV0ve3R0Clu/7gPdc6RTr1pdHP2beQ5zt5XtkroBADlEjoBwALrhk7nNZW6YUo8vaxpMkyvO4U8VVWFqm5Ck3OkUwj9KXaT0+vGnuPcfWWrhE4AUC6hEwAssImRTh/hEJpZi5Tz7oROAFAuoRMALCB0SrmMwIrrwcCoNYWQkgmdAKBcQicAWEDo9GTXqXemxn0KoRMAlEvoBAALCJ0gL6ETAJRL6AQACwidIC+hEwCUS+gEAAsInSAvoRMAlEvoBAALCJ0gL6ETAJRL6AQAC6RCJ6XU/RVCEDoBQKGETgCwQDd0Ah4ndAKAMgmdAGABoRPkJ3QCgDIJnQBgAaET5Cd0AoAyCZ0AYAGhE+QndAKAMgmdAGABoRPkJ3QCgDIJnQBgAaET5Cd0AoAyCZ0AYAGhE+QndAKAMgmdAGABoRPkJ3QCgDIJnQBgAaET5Cd0AoAyCZ0AYAGhE+QndAKAMgmdAGABoRPkJ3QCgDIJnQBgAaET5Cd0AoAyCZ0AYAGhE+QndAKAMgmdAGABoRPkJ3QCgDIJnQBgAaET5Cd0AoAyCZ0AYAGhE+QndAKAMgmdAGABoRPkJ3QCgDIJnQBgAaET5Cd0AoAyCZ0AYIFu6KSUylNCJwAoj9AJABaIQyelVP4SOgFAOYROALCA0Emp55bQCQDKIXQCgAW+v7+VUk8uAKAMQicAoFhV5aMOAMBafBIDAIpTVdU1cIr/HwCA1/EJDAAoTjdkEjoBALyeT2AAQFGGAibBEwDAa/n0BQAURegEALANPn0BAEUROgEAbINPXwBAcazpBACwPp/AAIDiuHodAMD6fAIDAIp0CZsETgAA6/ApDAAojul1AADr8wkMACiO0AkAYH0+gQEARXH1OgCAbfDpCwAoitAJAGAbfPoCAIpjeh0AwPp8AgMAiiN0AgBYn09gAECRqqq6FgAAr+dTGABQpO/v72sBAPB6QicAoDj//fdf62fBEwDA6wmdAIDiXEKnf//+hf/++0/oBACwAqETAFAcoRMAwPqETgBAcYROAADrEzoBAMUROgEArE/oBAAUR+gEALA+oRMAUByhEwDA+oROAEBxhE4AAOsTOgEAxRE6AQCsT+gEABRH6AQAsD6hEwBQHKHTBznuQ13vw3Ht/QAAeoROAEBxHgqdjvtQV1WoWtWEQzfcODShqqrQHJbs2THs627bp6qbprPdOux7Scr58fF+nPe3ju8c72vn+bTuN9Te0PNMtdX6XRMWvRxT27vn8c+09LVsOYSme9v5ufbbutycaq/bziE08d9N4oVLtwMAzyd0AgCK83DolDpB7wU5qVBoge52Uj93Q5zjPtR1E5o62vbg7/bhGA6hae3nITRxKDH62O7zHGnrkeDn0df1laHToYnCsM7rkXotrzfVp0CoF64Nh3SH5hxERo8Zaue2T8ew72w/1Q4AvIrQCQAozlNDpxyBU2o7ve0eQtMJJY77OtT74ylIuOzA5XGH5jbKpRU6DQcbo+31nudIWzlCp9TrOjSKqjsaLTmqK8O/0fiOtwKe5GuZep7nHw/N8P5d2kq+rqOvdfvfaLQdAHgBoRMAUJznTa+r8wROl+1MTWtrBQVRyBHfFj3u0ETT4KLfpaddjbWXfp6DbT0cOqW2d5o2dsvR6vN2278fDNieHbS02h94LQfv35kS13mevQBwsJ3rL8/TNhOB0+BjAOD5hE4AQHGeNtKpqsN+PxAqLJWcTpcYvZO8fzS1qzs97TJqaGj9oOSUuE57U89ztK07XofU9oamGw6FdUNh4T37NCk1tS7xWnafZ+s+3ZFbTTgMrfk1OiIutV8z2gGAFxA6AQAPO/7sQrX72cwJ7bPXdLqNunnA2EinxHpO1/V8Ugt5d9b9afZDwcQt7JjT3vjzjIKTTGs6tbZ3T+j0klClHyoNvpaxsdApsRZT/zEjv4v3rkkswm6kEwArEToBwBs6/uymr/B1/Am7gatZPWV/Pih0ukxnSq7dc+92kldxuwQTp+21/ikv07iSa0FVt9t6C4fvw3F2e9HzHGwrse93vw7x6zo2va69llJ1nV639GqCd+xrbxTTyGvZfWxrTafOOlqpUVkzQqfjvumsuzUzvAKAFxA6AcAbuoROY0HPoanCbrfbZOj07JDq+aFTCJdQ5O7gaXIh8csImjrsD6l9OgcMqduuoUd3mlViSt5ke5fneRhu65HpbGOv61Dbl+l9VefKbFNTFB+UHNGUvDJcIhjrrd8U/9sMrBOWGMXWayd6LQaDaKETACsROgHAGzr+7ELVNKGpduEnvehOaKpd2O22OdJp06ETAABZCJ0A4A2dQqfDaTRTInWKb++GTtdRUlUVqk5odWmvdZ9EOHS9itn59kM3RLpM7euNUjmGn11ncePL4wYfs9xrQ6f+lcjGK9PV7zZra6/H0v351H83AMhP6AQAb+gSKp2Cmm44cww/u1OY1A2dDk0nRGqtG3QLk25B1vmEvdtG68pb57Aoavf40/TCrLiN1EinqccsYaQTAMD6hE4A8IauoVNIXK3q0FwDnVZwc/wJu950vNPIo8tdBkdGXQOi9GLNk9PlOuHWrOl1nccsIXQCAFif0AkA3lAcOsUh0+nHgRCps+BwXJeRTcnpenH4MxAEpUcu7TrbmQ6dxh6zhNAJAGB9QicAeEOt0CmaTheOP2HXCaDaodN4iJMndDpPyRuZxtcPnaYfs4TQCQBgfUInAHhD7dApnAKa5hCOP7tWaNSfXjdwSfXo/qOhU3KKXmetqERYdBrBNBI6zXjMEkInAID1CZ0A4A31QqdwCE21C7tdO6RJLiTeCnKO4adpj4waDZ0uV5/rBUb9q9DdBmJdrkoXbbcbMs15zAJCJwCA9QmdAOAN9UOn0BvlFEJ6YfDLFeq66zldbhsPnUK4Bk+XNs4jrNpXr4vWZtr9hONYG+fHTT9mPqETAMD6hE4AQHGETgAA6xM6AQDFEToBAKxP6AQAFEfoBACwPqETAFAcoRMAwPqETgBAcYROAADrEzoBAMUROgEArE/oBAAUR+gEALA+oRMAUByhEwDA+oROAEBxhE4AAOsTOgEAxRE6AQCsT+gEABRH6AQAsD6hEwBQHKETAMD6hE4AQHGETgAA6xM6AQDFEToBAKxP6AQAFEfoBACwPqETAFAcoRMAwPqETgBAcYROAADrEzoBAMUROgEArE/oBAAUR+gEALA+oRMAUByhEwDA+oROAEBxhE4AAOsTOgEAxRE6AQCsT+gEABRH6AQAsD6hEwBQHKETAMD6hE4AQHGETgAA6xM6AQDFEToBAKxP6AQAFEfoBACwPqETAFAcoRMAwPqETgBAcYROAADrEzoBAMUROgEArE/oBAAUR+gEALA+oRMAUJxL6HQhdAIAeD2hEwBQpO/v72sBAPB6QicAoDhVVfUKAIDX8gkMACjKKWDql+AJAOC1fPoCAIrRDZzSPwMA8Ao+eQEAxYhDpvbUOqETAMCr+eQFABRD6AQAsB0+eQEAxTC9DgBgO3zyAgCKYiFxAIBt8OkLACiOEU4AAOvzCQwAKNIleBI4AQCsw6cwAKBIFhAHAFiXT2AAQJFSV7IDAOB1fPoCAIoUT68TOAEAvJ5PYABAkSwmDgCwLp++AIAiWdMJAGBdPoEBAEVy9ToAgHX5FAYAC3x/fyulnlwAQBmETgCwwPf3d/j3759S6kkldAKAcgidAGABoZNSzy2hEwCUQ+gEAAsInZR6bgmdAKAcQicAWEDopNRzS+gEAOUQOgHAAkInpZ5bQicAKIfQCQAWEDop9dwSOgFAOYROALCA0Emp55bQCQDKIXQCgAWETko9t4ROAFAOoRMALCB0Uuq5JXQCgHIInQBggVmh059foaqqdv3607nf3/D7q+rfr6pCVf0Kf1Lt/v0dvq73+Qq//85tb6JdpTZUQicAKIfQCQAWGA+dpoKfOPRZct9T/f391brP1++/C7YtdFLvUUInACiH0AkAFhgLnf78GgiE4pFPX7/D33//Qiskuv4ubmN4JNPX11fvcYP7MnIfpbZYQicAKIfQCQAWGAyd4qlvval0qTBpInTqhkXX9n+FP9f/7wZTie0JndSbldAJAMohdAKABQZDp2g0068/c24fmQ6XCK2uU+u+foe/8ain1hS7Wwmd1LuW0AkAyiF0AoAFhkKn23pLA6OPopFQp6BoYg2mVvD0J/zqTNu7bS+9TpPQSb1rCZ0AoBxCJwBY4CkjnaJgKF4s/NrO9bFRoBWFWKntCZ3Uu5bQCQDKIXQCgAWevaZTf0RUe4HyudPxhE7qXUvoBADlEDoBwAIPX73uGhBNj3Q6tXGbWjdc/Sl2Qif1riV0AoByCJ0AYIGx0GkyIGoFQBNrOl2CpLFpeyO3CZ3Uu5bQCQDKIXQCgAXGQ6dTxaOVkiOf/v0Lo6HTNSiK75NaMDwKuTpT7IRO6l1L6AQA5RA6AcACc0InpdT9JXQCgHIInQBgAaGTUs8toRMAlEPoBAALCJ2Uem4JnQCgHEInAFggDp3+++8/pVSmEjoBQHmETgCwQDd0WntUiFIllNAJAMokdAKABVKhU06524OtEzoBQLmETgCwgNAJ8hI6AUC5hE4AsIDQCfISOgFAuYROALCA0AnyEjoBQLmETgCwwFjo9MhCynEb8EmETgBQLqETACwgdIK8hE4AUC6hEwAs8EjoVFVVr5aHTofQVHXYHy8/H8O+rkLVHBY+k247Sx/etJ5H3Wrowbb5KEInACiX0AkAFrg3dKqqKpy63XZdgqe4jXHtQOfQdAOfuR4Ihg5NqBLB120/7mlbUPWphE4AUC6hEwAskCN06v7/vaHTcV/fMcKp384yp4Cpt9njPtRVEw53ty10+lRCJwAol9AJABbYzEinfROqeh96Gc1xH+po2lsrHIpuq/f7dsjTetwlPEpohUutG8K+vrR33sdDvL3bnh6aaIphczjfv/s7PoXQCQDKJXQCgAUeXdMpFTgtD50SgVJ02/X3x32oqzgIut123NfRFLnOKKNDMzxl77gPdSrsao2AOu/j5X6t/eju78A+8DGETgBQLqETACzw6NXrLsFTHDjdNdLpkAhyEqOQDs05COqFRVHI0xkdNTraaMlIp2jfrvtx+iHaltDp0wmdAKBcQicAWCBX6PTYSKdzOHNo2lPhHgqdRqbUtdyzplP0mNb9xoMqPoPQCQDKJXQCgAU2M9LpHM4c93W0tlNqel0cBI1Nr1twFbxu2NV7fOfneD8OzcC0O6HTpxI6wcn397dS6snF6wmdAGCB7+8NjXS6/Kbprp/Unbp2veN1Wtv4QuIzFvNuTZHrjnw67WPT1InbT6OeqqoKVd2Epr7tw3WBcQuJfxShE5zE/YtSKn/pX9YhdAKABXKFTvePdIKyxO8lJwV8MqGTUs8t/cs6hE4AsMCjodO/f/96gVO3jW24XSXvVnPXfYL54veSkwI+mdBJqeeW/mUdQicAWCBH6JSquA34JPF7yUkBn0zopNRzS/+yDqETACwwFjrlkLs92Lr4veSkgE8mdFLquaV/Wcfbh05rr36v1CcUcPP9LXSCnOL3kpMCPlncvyil8pf+ZR1FhE5r//EqVXI5OEOb0Anyit9L+h0+mfMapZ5b+pd1CJ2UUqPl4AxtQifIK34v6Xf4ZM5rlHpu6V/WIXRSSo2WgzO0pUInpdRjJXQC5zVKPbv0L+sQOimlRsvBGdqMdIK84veSfodPlj6v+Rt+f1WhqsbqV/gzdr9ff9Kf8/7+Dl/X+32F33/79/nz69bO1++/w7d//Q5/o9///f01sJ9L9yF6XvHz+PMr+fymtnvd36HXZOT5p/fvT/gVb6vzOix+jnP/7dRdpX9Zh9BJKTVaDs7QJnSCvOL3kn6HT/a00GkgvOgGNKOh0kBg0g+dxvajHzpN70MqdIqCnoXbfSx0SuxfHH4NhE6LnqPg6amlf1mH0EkpNVoOztAmdIK84veSfodPNue8ZmhkUTqcicOMbuBzu+3r62swMOmGLt379PYnCmHa4crf8Pvrnn3oP6/bPkUh2Mzt3hs6De3f1Otz73Mc/7dT95b+ZR1CJ6XUaDk4Q5vQCfKK30v6HT5Z/tApDkU6wcV1ytev8Of6/2Mjmb6uU8TiUGd+6JSoWfvQeV5R+7/+RPebud27Q6dfvxL7dxlx9Sv8Gvp3uec5Tv3bqbtL/7IOoZNSarQcnKFN6AR5xe8l/Q6fLH/oFE1D64Qs1ylfX7/D33g0TiewaW3vGuzcQpP+/nTWOOqGQ4v3IX5ev9PrOy3Y7t2h0+8//f27vB6//kyvbTX7OU7/2ynnNe9G6KSUGi0HZ2gTOkFe8XtJv8MnyxY69ao7UuYWaFzCj9u6Q+37drc39XO3/eEQaO4+pJ9XOsia3u79odPfToB0u+3Xn+nX4Z7naJST85pSFBo6ucrDeld5GH5N+wfbbl2eiwPvlsrBGdrWD50OoamqUDWHxO/rsD9m3Z1lDk3rmF23dmYD+8cmxe8l/Q6f7DmhU+JcITFiKT6/SIY0iZFMX7//juxP+7697c3eh4GRTqPnBMPbfSR0+teaHnebWvdn6N/lnuc49dxO/gwAACAASURBVG+nHir9yzqETq7yMLndbYVOgicHZ1jXNkKnOtR1Fdq508qhzqEJVWv7x7Cv4+Dpnv0TVH2C+L2k3+GT5Z5eN7QmUG/x65FzoKkw5etraH+iSqy3NH8fOs8r/vJ96txkbLv3hE6pRcG7r3X0Otz9HEf+7ZTzmndUaOh0/8HZVR762707dBq4/9Dw3WQbyQO31P+V5eAMbVsJnfaHfajrfTh2f79KQHMKmHqDr477UFdNOP1a6ERa/F7S7/DJXrOmU3oK2uSXz3Ov2vbnV/8coLf495J96D+v+Avs1vpKk9t9NHRqt5lsd2RtqyXP0ZpOzmtKInRylYfJ7W4udBr7JkVlLwdnaNtM6HQM4dAMjyQ6NNEH22saFAVW59uaQwjHfX29bzwlLt1GQitcat0Q9vVln/rbHt/WeRrhnO3z1uL3kn6HT/aM85o4oPn159/wecG/9G3D2+uEKonzmsGQZdE+TA0SOJ8HzdnuvwyhU+t5j4RzDz/HxL/dBs4L3r30L+sQOrnKw+R2nxc6DXUId6y1pZ5WDs7QtqXQafj/x+5fheoyQuq8BlN9S6pClQyPJkYcHbujrq43RCOgOts+7kM9a3+NdCpd/F7S7/DJnhE6DX+uTn352z8PGv3SN57qNjXCZ9asktQ+DDyv1hq3v8Kfye12Xr+7Q6d0G+3XKdNzTIVrGzg3eOfSv6xD6OQqD5mv8jC9EN5DoZPg6eXl4Axt2wqdwikouo4M6vz+euwcCnEmfk62kbBkpFPUxqGJpuTN2l9KFL+X9Dt8MlflVuq5pX9Zh9DJVR4mt/u80GnZ9DpDTNcpB2do21zodB1NFP2+FQKNBT8jPw+2kXLPmk7RY2bvLyWK30v6HT6Z0OnVNbLuki+5iyz9yzqETq7yMH+7K6/pFD+PybWvVLZycIa27YVO4RzaRCOEDs3ANLYFodNgG0O71Z2ad5pO115zKvo5Dppm7y8lit9L+h0+mdBJqeeW/mUdQidXeZjY7nZCp+RzUE8vB2do22ToFC6LgV9+fxpFVFVVqOomNPeMdBpsY2zXmla/1B75dGq7aerE7cPbui4wbiHxYsXvJf0On6zbvyil8pT+ZV1CJ1d5mB+iPX0h8UuYNLGm0+g0QZW7HJyhbf3QCcoSv5f0O3yyVP+ilHqs9C/rEzq5ysPIdjuv3xZCp7Epieop5eAMbZ8dOp2vQNeq1ALiMF/8XtLv8Mk+u3+B/PQv2/ARoZNS6v5ycIY2JwWQV/xe0u/wyfQvkJf+ZRuETmphucrDp5WDM7Q5KYC84veSfodPpn+BvPQv2yB0UkqNloMztDkpgLzi95J+h0+mf4G89C/bUFTotPaq+EqVVA7OkOakAPJyUgAn+hfIS/+yDcWFTmuPClGqhHJwhmFOCiAv/Q6c6F8gL/3LNhQZOuXk4MyncXCGcb7sUCp/6XdgC+c1h9BUddgfLz8fw76uQtUsvUZpt52lD29a68bWrYYebJuPon/ZBqHThNztwdY5OMM4/Q7kpd+Bk/X7l3agc2i6gc9cDwRDhyZUieDrth/3tC2o+lT6l20QOk3w4Z9P4+AM4/Q7kJd+B07W719u4cxxX98xwqnfzjKngKm32eM+1FUTDne3LXT6VPqXbRA6TfDhn0/j4Azj9DuQl34HTtbvX87hzL4JVb0PvYzmuA91NO2tFQ5Ft9X7fTvkaT3uEh4ltMKl1g1hX1/aO+/jId7ebU8PzW3/TqHZITRV93d8Cv3LNgidJvjwz6dxcIZx+h3IS78DJ+v3L7eApp/NnG67/v64D3UVB0G32477Opoi1xlldGiGp+wd96FOhV2tEVDnfbzcr7Uf3f0d2Ac+hv5lG4ROE3z459M4OMM4/Q7kpd+Bk/X7l3gUUSekSYxCOjTnIKgXFkUhT2d01OhooyUjnaJ9u+7H6YdoW0KnT6d/2Qah0wRXeeDTODjDuPX7HSiLfgdO1u9fonOGQ9OeCvdQ6DQypa7lnjWdose07jceVPEZ9C/bIHSa4CoPd+wPb83BGcZto99pf2v8uiUq7ugbfCnCBP0OnGyjf7kdk4/7OlrbKTW9Lg6CxqbXLTg/6oZdvcd3fo7349AMTLvT13wq/cs2CJ0muMrD0v3h3Tk4F2xwrQSW2FK/E0JY+C3yjPay3Tf4UoRZ9Dtwsrn+JZwX5m4FOd2pa9c7Rl8ujC0kPmNGSOfLivbdT/vYNHXi9vOMk6oKVd2Epm4PDLCQ+OfRv2yD0GmCqzw4OH+aRQfn1Dz9qgmHbrhx/vCw7E8p+uDQqbppOttNnYCeHx/vx3l/W9+2xfvaeT7tb+UG2ht6nqm25r6vB1+SB1/XV4ZOk8+/GnytWn9Hvd+n1oiI//3j41f3NU78G14f1gz8u/dtpt85Dv281LNCJ1+KMI+TAjhZv3+BsuhftkHoNMFVHiaePsVZHDoNha2Tf28LdLeT+rkbMBz3oe58yzX8u304pk7k4zf16GO7z3OkrUeCn0df11eGTocmOiZGwXfq33HO31H7hihUD9Fw+k7IcWgSIWHn3/ByvwUh4Db6nc7z7/6t9oK36AuSVriW+pJhLNTq/n+mBWF9KfLRnBTAyfr9y6v0p4nf9WUcTNC/bIPQaYKrPEw8fYqTNXTKETiltpN8/7TfB8d9Her9sb3O2uVx8Ul6K3Qa/sAz2l7veY60lSN0Sr2uQ6OouseTOUPkszsfj7qh0+Xf4dHQafDfsP1z8t8whHBolj3/bfQ7Qx/Uh7606AREraBtauRUKnQaGMUU86UIMzkpgJP1+xcoi/5lG4ROE1zlYdZOUJB80+vqPIHTZTtT09pa76fob7m7qOT5/1PvxeH5/mPtpZ/nYFsPh06p7SVGTkajQlqjLVPhzLNHQLXCsqmpchPT6zoLmo6H5fExbeDf8I5FuTfV74TQDmoGv7SYO3pp6ufT/9f1jEVhfSnCTE4K4GT9/gXKon/ZBqHTBFd5mLcLlCPbSKextc6WSk6nSwURqft3At1uAJV6DpcT3eSUuG5APPE8R9u643VIbW9ouuFQWDcU8tyzT5MGXv/u/iwa6RQHE+d1muLXN/W8hv4NUwHcxGuxtX5n+IuEscc8EjpVoa7nXDjDlyLM46QATtbvX6As+pdtEDpNcJUHa2Z8mtxrOj12VceB7fTWNupPrestPn5ZyDpq57ivQ7MfCjZuYcSc9safZxRsZFrTqbW9e0Knl6ztlBiRk5oWuTR06v2+M90ucb/Bf8PelLyBtiKb63cS6wX2v7RYEjol1sZK3Lc7TTG9q74UYZqTAjhZv3+BsuhftkHoNMHBmU+TfSHx3iXS7zBnel1rREQneL2cvCZDj+p2W2/h8MTi1IPtRc9zsK3Evt/9OsSv69j0utRIzM4ozGcYWncqNS1y8UinsVGk1wdHr8/Iv2HohCdvM9IpMU3xIvmlxfhopt6XDPEXGU0zEFCNXA2wtbu+FGGckwI4Wb9/gbLoX7ZB6DRhOwdnV3ngNfKHTiEsnjI61V5iu9cpqt3Fqq/bH7itc+Wz5HpDs9u7PM/DcFuPvH/HXtehtuMRlU3TGSE2MkXxQcmRRU0zY+pb5/n2jnup17JzJbfWSKah9hPhSSrASficfgdew0kBnKT6F6XUY6V/WZ/QaULu9mDrHJxhnH6ny5ciPEa/Ayf6F8hL/7INQqcJDs58mucenFMnp2NV+rotW3s9lu7PZ/676XcgLycFcKJ/gbz0L9sgdJrg4MyncXCGcfodyEu/Ayf6F8hL/7INQqcJDs58GgdnGKffgbz0O3Cif4G89C/bIHSa4ODMp3Fw5pN0pwbOod+BvB7pd+55D8NW6V8gL+c12/D2vbOrPCiVv8YOzlMf7n3w512c/k7bNedv10kB5DXV7wy59z0MrzLn81J8u/4F8rq3fyGvt++ZHZwhr6GDc+qDU/y77u2p+//3339KbaJSJ6tzT1p92aFU/orfS3NOCua8h9c+zqjPq6HPQGOfl+LfrX1ec2jSFwipB68OcgjNyMVDlrf3DOP72HLch7rwi6F8mnv6F/ITOk3I3R5s3dDB+d6RTZfbHOTZkrET1stJ61DpdyCvsX5nqKbev/oc1vD9/T36eSn+b+r27fQvc4Oa3Pd7hjW3zdqETtsgdJrgwz+fJnVwnhr5sSR0WvvbdKVuf5ftgGnsJDYu/Q7kFb+X/v2L+5151X0Px6HT2scb9TkVwnjoFML456XL4y/tCZ1yETp9svi99O+f0GktQqcJuduDrRs6OOca6bT20Helbn+XU9Nz0v+v34G8xvud8ffk1EintY836nMqhIJHOh33ob5OjdtHt90TOp3+v2nqUFVNOITONLzm0H7MvklMyzuGfX17zOUho+1ct325LdWGgKo0QqdtEDpN8OGfTzP24f/RNZ2+v7+V2kTNWQ+mO5UnDlD1O5DP2EnB0Ptwznt47eOM+rzq/t2mft7ymk43/aDmkuEc93WoHg6dhtZ1GgqIQgiH5hpShUMThUpztleH/fEUMt2yqFQbQqfSCJ22Qeg0wYd/Ps3UwTl1tZXU7bB1qZPW1IlA/N8Q9DuQ25x+J/5v+/fj72FY05zPS9vsX6Lw5bgPdb0Px9RtD4x0aj3m0ESvx9D9OvuUCq5G2qnrzv2TbQidSiN02oa375nXPji7yoOrPJTGwZlP0l+ceNra/Q6U5pF+5573MGzVdvqXF4ZOx32oLyOYwjHs6xmh0/Wh9W1q3Gg7VajrOjk6qtWG0Kk4zmu24e17500enF96v2dwwP1kDs4wbjv9zhxrHc+f0Nf5kqNY+h042U7/8uzpddFjDk2oLqFW6zg/HTpd9qfeH2e1c2jSX+Rf23AOVBz9yzYInSYInfg0Ds4wbv1+Z8kxuqDQiWLpd+Bk/f7lIhEMZV5I/PaYaEHvugnNnJFOrWl08eimqXbO96n34ZhsQ59UGv3LNgidJrjKg6s8fBoHZxi3fr8jdKIs+h04Wb9/maE1jQ22Tf+yDUKnCdsZhuoqD7yGgzOMW7ffOR/nu18W3P1Fx/n2Q/z4Y+u2+AuPeDvxFxjL9mHoG29fcnwq/Q6cbOe8ZtihqW7T2G6/bfdNrdFDsB79yzYInSZscsG9EFzlgadxcIZx6/c7qWP9vV90nE8UBtfB6IZQUdCUuO+8ffAlB236nQL0Pvtyj/X7l5T2lwDCJN6J/mUbhE4TNhk6ucoDT+TgDOPW73cSfcLdfU7/9kMzcHxPTKm43nfRPvRv8yXHZ0v2O51RddeT3e7f2vnLs9HB3D3dk+joasFN09lu6m8uWhfm+qvE32y8r53n0/7bHmhv6Hmm2mr97o5Q4NHX9ZWh0+Tz74zETP4tDa1XNNHW0PZbDqFJ/G0M/z3drN+/QFmc12yD0GnCdqbXucoDr+HgDOPW73eeGTrFI45eFTr5kuPTDYZOqRCjF+Q8+DfR3U7q526Ic9yHurVQ8djv9uGYeg/Ef++jj+0+z5G2Hgl+Hn1dXxk6HZooBIqmCCeCnvTxqd1WL6RL/g20R2L2tn+83LU+L2R9eXz8pW5of/ZOWL9/gbI4r9kGodMEV3lwlYdP4+AM49bvd/JPr6tvZ0zRCfb4dvr3HdqHxNQ5X3IQuSt0yhE4xe0N/RwOoemEEpe/ydbf7OVx8dTQVug0PPpotL3e8xxpK0folHpdh0ZRdUcEJUd1Pfs9ew51uqFT9zkNvC6HJrF/qfsPttEJlXr37dw+8W+0fv8CZXFesw1Cpwmu8sCncXCGcVvod65XHm1dOOL+hcRPi4V3p5EkHjt2Mjm4D+3bqqYZ2D9fcnyq5dPr6jyBUwjToVNvZEoUInRHjJ//PzUCsPeendVe+nkOtvVw6JTaXiJQbg693w8GbM8eATUaLJ33JfW3dN3XxDS6sbaGtj/6u3g7ptfBKzmv2Qah0wRXeeDTODi/n+PPLlS7Hwu4vsjm+51FX3QIcljf4pFOVR32+/FpSrMNTKXqjd5J3n9gPc+xIOQSqCanxHUvADPxPEfbuuN1SG1vaLrhUFg3FBbes0+TxtZTvdye2Nfu7VPPLXXf7vZjncff1sk7B+sjC2Wl+hel1GPlvGZ9QqcJ97XnKg+8Lwfnacef3fQCq8efsEt+q/2k/RE6vcw2+52bZV90CJ1YX7LfmbGm023UzQPGRjolAtzrmj2phayjdo77OjT76bBjTnvjzzMKQzKt6dTa3j2h00vWdppa227OPnWDpBlT9Ya2P3Tf3uMS0/EiW+9f4N04r9kGodMEB2c+jYPztEvoNBb0HJoq7Ha7TYZOQqrHbK/feeSLDqET67s3dLr87afWApttzvS6zlqYrcP6ZUrc0JSqy229hcP34Ti7veh5DraV2Pe7X4f4dR2bXtdZQDuasvbUrm9o3anE6z+1kHhvHa3kSKfUenYjx83e6LWhtfD6tte/wHtzXrMNQqcJDs58Ggfnacef3Xldml34Sc95CE21C7vdNkc6CZ0eo9+BvO4PnULoLYa/1ORC4tHC+KkRMENXTwshWqOpGwxPTQlLtXd5nofhth4ZYT/2ug61Ha/j1jSdEWIjUxQflBwd1jSdaX3dK292R3p21pIbfC376zANjk5L3HYNvazpBKtwXrMNQqcJDs58GgfnaafQ6XAazZRIneLbu6HTdZRUVYWqE1pd2mvdJxEOXReRPd9+6IZIl6l9vZOEY/jZdT54Xx43+Bi69DuQl34HTvQvkJf+ZRuEThMcnPk0Ds7TLqHSKajphjPH8LM7hUnd0OnQdEKk1rSNW5h0C7LO0zO6bbQWPj2HRVG7x5+mF2bFbaRGOk09hhv9DuSVp99JrVs2VqVPK93a67F0fz7z303/Ank5r9mGIkMnpdRj5eA87ho6hfiqNGeH5hrotIKb40/Y9abjnUYe3a56PzAy6hoQpdfKmJwu1wm3Zk2v6zyGGycFkJd+B070L5CX/mUbigydcnJw5tM4OE+LQ6c4ZDr9OBAiRWtfdOsysik5XS8OfwaCoPTIpV1nO9Oh09hjuPFlh1L5S78DWzmvecYFJua0uWy7raUGEutrjZpaDH566y7C8Sb0L9sgdJqQuz3YOgfnaa3QKZpOF44/YdcJoNqh03iIkyd0Ok9hGJnG1w+dph/DjX4H8tLvwMk2+pf3CJ0ef9wjhE7vQv+yDUKnCT7882kcnKe1Q6dwCmiaQzj+7FqhUX963fhlpCdDp+QUvc5aUYmw6DSCaSR0mvEYbvQ7kJd+5325Gmpe2+hfhE7b3Cb30L9sg9Bpgg//fBoH52m90CkcQlPtwm7XDmmSC4m3gpxj+GnaI6NGQ6fL1ed6gVH/KnS3gViXq9J1L3PdX4x89DFc6XcgL/3OfJdp0KPXebgcw19wMQihU17b6F/iQKUbriRuO+xDfZ7a1hxCOO7rxFS3djutqXHXv9N+e7OmynX38Xh7/O1zzOk+TVOffzf3OU7sqz/8zdO/bIPQaYIP/3waB+dp/dAp9EY5hZBeGLy7BkF3ZNR46BTCNXiKPgB1P/S31mba/YTjWBvnx00/hgv9DuSl35nveqweCXoOTRV2u34/9bT9WRA6CanGbaN/WRI6VaGq99FI6ygoan2OGAppptqb8zlkZH8PzXl/Tm2nQ7Dx0Gne68JW6V+2Qeg0wYd/Po2DM4zT70Be+p35Tl96NKFJTLU+uYy83eZIJ6HTuG30LwtHOg2GNeNh0O0LuKXhz8j+tkY5xaOTHnges/aVrdK/bIPQaUJJc59d5YE5HJxh3Db6HSiHfme+y0jb5MjYzu2pEbm3z3/t0OrSXm/Ua6f91mfJ3U84dEOk6/Ts7vSmzijdxLRwV07dSv/y5NDpuA919Hexr3OHTqm/nzufx+x9Zav0L9sgdJpQUuj0+OMe4eD8LhycYdw2+p25po69jx6bn9lX8Sn0O/Ndp3cff8Kud3J9u5pqck3BkQtIXMKkW5B1nuo0ti7hJSxqTe9uemFW3EZqpNPUYz7JJvqXQ3Ob4haOYV9Ha4gdmgUjkwaCnbj91pfaGUKn3jS6Ofs28hxn7ytbpX/ZBqHTBKFTLg7O78LBGcat3+8sOZ4Kndg+/c588ZqCh6azoPihuQY6/aundqfjnUYeXe4yODLqGhCdTua7WdDkdLlOuDVret0Hrym4bv9yDhq7x+t4elnTZJhedwp5qqoKVd2EJudIpxD6U+wmp9eNPce5+8pW6V+2Qeg0wVUeXOXh0zg4w7j1+x2hE2XR78zXupBFFDKdfhwIkVpr0qQvZjF5IYuBICg9cmnX2c506DT2mE+yfv/yKQ6h+dC/sU+jf9kGodMEV3lIhWCu8lAyB2cYt41vojvB/jH+8mG/4Nib6FOiURT9LxDGtjXnS4f7v7S4fQkSffNcdU6yU/vL5ul35mtfPfU2nS4cf8KuE0C1Q6fxz4d5QqfzMWRkGl8/dJp+zCfZxnnN1nT6vRyhZGsKISXTv2yD0GnCJhbcC6HzLZWrPPA8Ds4wbv1+J3UMvoUvp9GzS0OnzpoWg9sb29bYYx790qLzBc1oqKS/eTf6nfnaoVO4vh+OP7tWaNSfXjf0/r7dfzR0Sk7RC+21ohJh0WkE00joNOMxn2T9/qVw1/MefcSn0L9sg9BpwiZCJ1d54IUcnGHc+v1OYop06xvbJaNMT7fXdWJ6duoLhNFtDTwm95cW55OGWfvLW9DvzNcLncIhNNUu7Hbtz3LJhcRbn/eO4adpj4waDZ0uV5/rBUb9q9DdBmJdrkoXbbcbMs15zAdZv3+BsuhftkHoNMFVHlI/u8pDyRycYdz6/U7u0KkKdV0nptAlvkAY29asLx3yfWlxWQ+xOYw9lneg35mvHzqF3iinEPqh0/V3ifWcLreNh04hXIOnaGR8d+RSa22m3U84jrVxftz0Yz7H+v0LlEX/sg1Cpwmu8jDwGFd5KJaDM4xb/6TgGdPrTiedrSlsg18gDGxr1pcOeb+0OO7r0z4PPpZ3oN+Bk/X7FyiL/mUbhE4THJwvXOXhUzg4w7gt9DvXEQuJq1Pdv5D4+UuDeh+Og18gjG1r5pcOj35p0ZpGF49uGthfNk+/Aydb6F+gJPqXbRA6TXjPg7OrPHA/B2cYt/l+Z3CtPtgm/Q6cpPoXpdT9FULQv2yA0GlC7vbejqs8fJz4veTgDH1b73cOTZX4kuAJX0ZAJvodOOn2L8Dj9C/rEzpN+PjQiY/jwz+M216/E00tEybxhvQ7cCJ0gvz0L+sTOk0QOvFpfPiHcfodyEu/AydCJ8hP/7I+odMEH/75ND78wzj9DuSl34EToRPkp39Zn9Bpgg//fBof/mGcfgfy0u/AidAJ8tO/rK/I0EkpdX+F4OAMY4ROkFf8XtLv8MmETpCf/mV9xYVOwOMcnGGYLzuUyl/6HXBeA8+gf1mf0AnocXCGYUY6QV5CJzhxXgP56V/WJ3QCehycYZjQCfISOsGJ8xrIT/+yPqET0OPgDMOETpCX0AlOnNdAfvqX9QmdgB4HZxgmdIK8hE5w4rwG8tO/rE/oBPQ4OMMwoRPkJXSCE+c1kJ/+ZX1CJ6DHwRmGCZ0gL6ETnDivgfz0L+sTOgE9Ds4wbP3Q6RCaqg7749zfv8ihCVVVnasJh5V2g/cjdIIT5zWQn/5lfUInoMfBGYYJnRKO+1DHQdNxH/ajqdPKARmbInSCE+c1kJ/+ZX1CJ6DHwRmGCZ1Su9SEqt6H+ZsWOnEjdIIT5zWQn/5lfUInoMfBGYa9S+h0aKrbdLfm0LpP09S3KXDHfajP96v3+xltDO1TFepEitRv43Tf/u/i5zT/uez3t2l9qe2zfUInOHFeA/npX9YndAJ6HJxh2DZCpyiEadVUGNUNh04/X3Kc476e0caQY9jXp/1I51Pd/RgOmeYFa+fX4bKxQ2MtqTcldIIT5zWQn/5lfUInoMfBGYZtI3SaEQy1FvYeCHuO+1C3psXNaWPCeeTUbUDSjP2Y+vmuNngXQic46fYvSqk8pX9Zl9AJ6HFwhmFvETq1FvY+hn19R+g02Ma0474+jUCaux9jP9/dBu9C6AQncf+ilMpf+pd1CJ2AHh/+YdhbhE7xwt7HfahHRwcNTK8bbCO1S/vottM0u3p/XLAfp8e0R0fd81yETu8ofi/pd/hkQielnlv6l3UInYAeH/5h2FuETtH6SlXdhGZwdFBoTV1rLyQ+1MbQPqUW+x5u47o4eGtNpsvvmjuei9DpXcXvJf0On+z7+1sp9eTi9YROQI8P/zCs2++8PnR6otZUNngNoRMAlEvoBPT48A/DSg6dDk11m8qWvkfiynlCKh4jdAKAchUXOiml8pQP/5BWVugUTV0TILESoRMAlKuo0Ekplb98+Ie2skInWF/8XtLvAEBZhE5KqdHy4R/ahE6QV/xe0u8AQFmKCJ2UUs8t4Ob7W+gEOQmdAKBcbx86AcArCZ0gL6ETAJRL6AQAC6RCJ6XU/RWCq6YCQKmETgCwQDd0Ah4ndAKAMgmdAGABoRPkJ3QCgDIJnQBgAaET5Cd0AoAyCZ0AYAGhE+QndAKAMgmdAGABoRPkJ3QCgDIJnQBgAaET5Cd0AoAyCZ0AYAGhE+QndAKAMgmdAGABoRPkJ3QCgDIJnQBgAaET5Cd0AoAyCZ0AYAGhE+QndAKAMgmdAGABoRPkJ3QCgDIJnQBgAaET5Cd0AoAyCZ0AYAGhE+QndAKAMgmdAGABoRPkd2/oVFVVqwCAbdE7A8ACQifI757Q6RQytUvwBADbomcGgAWETpDf0tApFTh1g6f//vtPZSpTHgG4l9AJABYQOkF+qdCpO3WuPY1uPHQSkuQjdALgEUInAFhA6AT5dUOnqWCpGzLF949Dp0ub6v4SOgHwCKETACwgdIL8hkY6tafM9f9/aqTT2tPS3rlCCEInAB4mdAKABYROkF8qdAoh9KbUXdZrmrOm0/f3t7qzhE4A5CJ0AoAFhE6Q31DoFELoBE3d37t6CRlX6QAAIABJREFU3TMInQDIRc8MAAt0QyelVJ5acvW6i/4C4+Tw339CJwDy0DsDwAJx6KSUyl8CjvUJnQDIRegEAAsInZR6bgk41id0AiAXoRMALLD2Ar9KfUKxLqETALkInQCAt2LtHnguoRMAufjUBgC8jcsVywRP8DxCJwBy8YkNAHgbl9BJ8ATPI3QCIBef1gCAt9ENnQRPkJ/QCYBcfFIDAN5GPL1O4ATPIXQCIBef1gCAtxGPdDLFDp5D6ARALj6pAQBvw5pO8HxCJwBy8WkNAHgbrl4Hzyd0AiAXn9gAgLdgah28htAJgFx8WgMANq8bOAme4HmETgDk4pMaALBp6RFOgid4FqETALn4lAYAbFp38fBLCZ3gOYROAOTiUxoAsGlCJ3gtoRMAufiUBgBsmul18FpCJwBy8SkNANg8C4nD6widAMjFJzUA4C3EU+tuU+yA3IROAOTi0xoA8BYuJ8IXToThOYROAOQidAIA3oITYXgN7zUAchE6AQBvwYkwvIb3GgC5CJ0AgLfgRBhew3sNgFyETgDAW3AiDK/hvQZALkInAOAtOBGG1/BeAyAXoRMA8BacCMNreK8BkIvQCQB4C06E4TW81wDIRegEALwFJ8LwGt5rAOQidAIA3oITYXgN7zUAchE6AQBvwYkwvIb3GgC5CJ0AgLfgRBhew3sNgFyETgDAW3AiDK/hvQZALkInAOAtOBGG1/BeAyAXoRMA8BacCMNreK8BkIvQCQB4C06E4TW81wDIRegEALwFJ8LwGt5rAOQidAIA3oITYXgN7zUAchE6AQBvwYkwvIb3GgC5CJ0AgLfgRBhew3sNgFyETgDAW3AiDK9R0nvt+LML1e4nHNfeEYAPJXQCAN5CSSfCsGWPvNeOP7tQVVVoDqN3CruqCtXonfIQOgGsS+gEALwFoRO8Ro7QaSzoOTRV2O12mwydhFQAeQmdAGDCoanC7mf8FOTQjJ9k8TihE7zGw6FT04Sm2oX0YfMQmmoXdrttjnQSOgHkJXQCYHVbm47RJXTaBqETvMbjodNh8LgZ3949nl9HSVVVqDqh1aW91n0Sx9xDU7VuP3RDpEtfcq0mnPbiGH528e+j9gcfA8AUoRMAq9vadIzktidCpy7flucndILXyBE6nYKabjhzDD+7U5jUDZ16wf2haYU7lzDpdiw+hKZKtBFv8xIWRe0ef5pemBW3kTp2Tz0GgGFCJwBWt7XpGL2tC502QegEr5EldAqnY2frkH1orsfFVnBz/Am73vH/NPLocpfBkVHX4+wphOp2EZPH4k64NevY3XkMAMOETgCsbuvTMZLtdE44bvs2NEWjfQLVfW6597lEQid4jVyhUxwynX4cCJEOTfuYGdWlT0j2D3H4MxAEpUcu7TrbmQ6dxh4DwDChEwCr2/p0jNntjE7RmB865djnEgmd4DWyhU7R8Tscf8Kue1xthU7jIU6e0Ol8PB3pN/rH7unHADBM6ATA6rY+HWO6ncyh0zOmkBRA6ASvkS90CqdjeHMIx59dKzTqH8/HLyYxGTol+4TOlxOJsOg0gmkkdJrxGACGCZ0AWN3Wp2NMttPdt0QbS0KnXFNISiN0gtfIGjpd1+QbmpIc/dw6th3DT7PkOHye2twLjPpXobsNxLpclS7abvcYO+cxAAwSOgGwum1PxxA6bYXQCV4jb+gUeqOcQkiP6mytVVdVvZFRU8fh3pp65xFW7avXddbLG2vj/LjpxwAwROgEwOo2PR1jTjvdfQvDodPUiVeufS6R0Alew3sNgFyETgCsbtPTMWa1k/jWfs46IJdtLQmdZu5ziZwIw2t4rwGQi9AJgNVtfTrGXaFTYorG4LYWhU7z9rlEToThNbzXAMhF6ARsy3Ef6npf9Ikz2/eOAc477vNSToThNbzXAMhF6ET5jvtQ965u1YRDN9w4T08ZWx9mXvuXdVdS263D/tD9fR32x+H26v1xQVvx1VXi29ojJPZ1FapksDN224LX45HX9ZWhU+q1DiFcLknf/zca+n24PS7e91b7nft2r7zWe4HabR33df8qbYv/WJknvfbStr3jPi/nRBhew3sNgFyETpRvKMSIf3/ch7oXINzZ/qE5hTZztnvd9iUUOoSmtR+H0DSHec/h2lYneOo+7rgPdd2Epk4837Hb5nr0dX1l6HRoojAsfu0PoUlelWbo91EodN33Y9jHr+Pl7+J63+5aRbef+22ldj0OybjfMfzsUusu9Rfq3o533Oc8nAjDa3ivAZCL0InyTQU2jwROyfbPwcTcoKgVZAyEGrPbCv3Qp3P7cV+Hen9MhhZjt8029roOjb7qjuRqhVZDo4pyi0Oi5aHTqYn49e6ETtfbOr+f1VbiNpdqzqZ1KezeyMBtesd9zsGJMLyG9xoAuQidKN/o9Lr6scDp0n53GtQ1dOlsNzUCKhoBc/oxMXVqblunFm7BSO/2KPDobHf8tqWvR+p1PU1Nu17tfl+fn2P797d97gQ8zx4B1Wq/PY1uaNpdL5hLBoqd0GxuYDTyfI1y4lM5EYbX8F4DIBehE+UbGyVU1WG/fyBgubYzMEpncLuJ+3fFl1JfMtJpLHTqBSupkTiJ2xa/HonXdWha4dA+DoWFd+zStLHnO3Rb4ved53JoLmHaea2ssX/LrtG/n88Y1QJdToThNbzXAMhF6ET5ZgQ2t1E3z2l/8PeTAcLSqXqJ9icWo76MmBm7bZGh1/We0OklaztNBWxD0+ESvx+d2ni5/8xAb+D5G+XEJ3MiDK/hvQZALkInyjcrsDmNRHk0ZLnr94emfcW77rS6JYuSD05Vuz3Hpr169Xk00thtCw2+rmPT624hzHV6Yve5PMPQel7xAuNxMDj0+7i9zhS91P2nFhLvtzWyTfggToThNbzXAMhF6ET5FgY2i4OnudPoLuv6HNKLe5/W/DlPw0quAzTQVvd3x9T2h0ZLnQOfxD7dPcVu7HUdWkj8MpWwqkLdNJ2RYDOmIt5pcHRXZ7vt4Cjx+0RbzaF7//Zr2dt21FiyrUeCUSiEE2F4De81AHIROgEAb8GJMLyG9xoAuQidoKd9hbLpevDqd5u3tddj6f586r8blMeJMLyG9xoAuQidAIC34EQYXsN7DYBchE4AwFtwIgyv4b0GQC5CJwDgLTgRhtfwXgMgF6ETAPAWnAjDa3ivAZCL0AkAeAtOhOE1vNe25fv7Wyn15OJ5hE6wgv/++08ppdQdFYITYXg277Vt+f7+Dv/+/VNKPakc455L6AQruHyYA2C5f/+cCMMzCZ22Reik1HPLMe65hE6wgvjDnFJKqeXlRBieR+j0XFVVhapKn4ZdbotvFzop9dxyjHsuoROsoPthTiml1PLyIRGe47//fE7JWRfdMCn+ORVEXX4ndFLqueXzxHMJnWAF8QeQECwQqZRS9xaQXxw68bjv7+/RkU3xf1O3f38LnZR6Zvk88VxCJ1iJkyYAYIvi0Ek9ViGMh04hDAdOF0InpZ5bzseeS+gEAABcrT0draQKwUgnpbZeQqfnEjrBSlILRQIArG3tabOl1YU1nZTaZgmdnsvZLqwg9aECAIDyuXqdUtsqodNzOdOFFQidAACYIx06/Q2/v6pWSNWvX+HP2P1+/UmfhP/9Hb6u9/sKv//27/Pn162dr99/h2//+h3+Rr//+/trYD+X7kP0vP5v726OW1W2MIAqKg+IxoNTpOIpIby55wrDCSiJm0G/gfXTQIOQvAG7tVZVVx1bCFrykffW5wblj+Pzvfj47h33Ot+p52Tq2IPHNxr5fO4976PHvfA+xo+H0Gld3unCxu6d0w8AABerhU4TYcYwoJkNlSZCoXHoNDePceh0fw6l0OkzvR+eO2586HTv5zN8zI//nAyh01/hXS5sTOgEAMBSS06vm1pZVA5n8oBjOvx4e3ubDFb6odN4m9F8shU//QDpK328PTOH8eO6zSkLwRYeNzp0mlwJlq98yu7bez6Hc/j6SG9Cp1WH0Gld3uXCDpxeBwDAEvGhUx5yDAKf6+ld7+nz+u+5lUxv19PB8nBleehUGIvmMHhc2f7fP7PtFh43NHTKT5Er7G8Ujt3Z3lh/CJ3W5Z0u7OBS/Ib/BgB+mVOXmqZLp73nwcuKD52y09AGIcf1tLa3j/SVrzgaBDa9412DnVswNJ5PdsxSOPTwHPLH9VG+vtMDxw0NnaYCsKnb721vrD6ETuvyThd2JGwCeEGnLjWja3a06TgMN45tOhwOqT0+tPPUNeVrgjRtOzhuk7pRknK+fz6P83ybfON8roPH09tuan9Tj7O0r9732vTQ03HveM/cf00Tz+Wpa8Y/0/aYUjqmdvS9NPj++Tkr/L+beg6ObfYz690v/z9TOAarCAudRmN4WtstoLkEPLdrK/W3HR7v3tdTAdA4aFk6h/LjKoc2948bGTrd5lu+CHu+sunt46u4/fjC5xP7MkKG0Gld3vHCDqx0AnhhUyHGKMgphUI/OE7p62FYcOpS07SpbbJjT36vS6d0TO0wiMiTjNn7Dh/nzL5+Evz89HndMnQ6tlkQNHw+8s3OgVRv+1PqmiZ1p++g75Y/td8BUvHnPw6eju05oGy6dLruc7CvNHGMkCeBoXVCp0KIUVixlAckxZCmsJLp7eNrZj6lEKh0DaZ7c5hY6VT6JLwFx91zpVMeMF22FzptO4RO6/JOF3YwDJmETgAv5F7oFBE4lY4zOu4xtYPQ6dQ1qelOt1Ajv9+xva2k6YVO06tcZvc3epwz+4oInUrP69QqquGqoLurftYwCHx6cys9T5fnb/g8nr8uPYeD711+XrfvD+Yw+XOf/3/Az0SfXjd1PafRxcGHo3RNqPx4WWD0dvfT3f4rXm9p+RwGj+uR6yLNHXePazrlFxcfbl8K4YzwIXRal3e6sLGpgEnwBPAiZk+va2ICp8tx7p3W1gshsoAhvy2737HNToPLvtc/tWvJ/sqPc3JfPw6dSsf7Pj3slqM1vVPWrlOYClrWXgE1sf9egPe94fmUysvchiukzj+HY2l/t8d0DZxGx85Po5talTYRkBFim2s6lU9Bmzodb+p4k59q9/k+E6hcVvg8Mofx48pXB12v/7TouDt9el3x0wSnthc6CZ3+Lu9yYWNCJ4AXN7fS6dCkrgs6VWnidKrR6p3i9lmoMDw9rXSqVkrXayWNV0MV9nfvcc7u64nnoXS8qdMNp8K6qbDwmTndNXFq3eQqp8F9RnOdWOl0DZ0mrgXWdKm7BI2XbfKfySbPBWt8et3olK65U8LmQprR8QbBUeHT6yaDpIfmUHpceXhTWEW0JER7NHQajFtgdCdAu/e8jYbQSej0d3mXCxsTOgG8uAXXdLqtugk8zujaRuNT64ZvdPqnWt22a7upEKi/cube/uYfZ7ayKOiaTr3jPRM6bXLdogXXcpq6Z1u4OPjc/Jec6jm1Gm7JfgixRug0HZyUrok0Xhk1e82m/PSymU+vmw6Mlsxh4nHlxz68p8+7x10rdPoe42szjbe5t30xhDNCh9BpXd7lwg6GAZPACeCFLLmQ+HlVyVzA8PBxip/idgmeBheGvtxeDB7Op1tdbhtdOLxwoenJ/WWPc3Jfhbk//Tzkz+vc6XW3YOXUNecVUoPT7tYwdz2vYlDYDq6JNbzv4Pkt/ByLj6d3SuHgVMPRiqaA/6vMWhI6GYbx/BA6rcs7XdjB5a8Ww38D8AIWhU4pXUKBp9/M372Q+GU10tz1fiZuG3yK2e0v8oVT8u7u7/I4j9P7+skpXHPP69S+L6f3HfJPchvO5RD+iW2Tq8Omgp1snofD4NPkevcvzH3u2mGjVXGF+5SOwSqETluPmVPdFq2EMv7aEDqtyzvdyvz7988wjJUHAMBW/v0TOhnGmkN/vy6hU2UUJcNYdyhKwPbyTw9bMmr/FLHf9nw8Op9X/bnxrLy//9///mcYRtDQ329D6FQZoZNhrDsUJQBgS8PQae9eyDBqGEKn7QidKiN0Mox1h6IEAGypFDpFit4f/Hb5a0l/vz6hU2WEToax7lCUAIAtCZ0gVv5a0t+vT+hUGaGTYaw7FCUAYEtCJ4iVv5b09+sTOlVG6GQY6w5FCQDYktAJYuWvJf39+oROlRE6Gca6Q1ECALYkdIJY+WtJf78+oVNlhE6Gse5QlACALQmdIFb+WtLfr0/oVBmhk2GsOxQlAGBL+4dOx9QemtSdLl+fUtcc0qE9Pnik4X4evXubDofDdTS9Hf1w37yU/LWkv1+f0Kkyc6HT5/uh94v6Nt7TZ7bd18fbxHZv6ePrv/Tff1/p421iX++fo+OW93c75v3jzc39kN4+vqYfa2E+/319pLfCMYpjwbb53Gbn8vaRvn5BaGL8bChKAMCWflvodGyHgc9SPwiGjm06FIKv2zye2beg6lXlryX9/fqETpV5LnTqByo/Cp16Qc/cdnGhUyk4mwudhscrBUWPbNuf2ziYEjrVNRQlAGBLvyl0OnXNEyucxvt5zHfANDrsqUvNoU3Hp/ctdHpV+WtJf78+oVNlFoVOWfiRhyqXQOX2vX6QcxtZmFQMmM73+3yfCGu+0sdbKXSaOt5UcDMItbLbpkOn233e3t7uhEHLth0FYoNthE51DUUJANjSrwmdujYdmi6NMppTl5qsF+6FQ9ltTdf1Q57e/S7hUUEvXOrdkLrmsr/zHI/58W4zPbZZr94ez9sPv8eryF9L+vv1CZ0q82jo9N9/n+l9sELpudApD1/uhU798XzoNJhLaWXUMHS6ni73nj6v/544xW7htre5vV1Pxcsfr9CprqEoAQBb+h2hUyFQym67fv/UpeaQB0G3205dk50iN1hldGynT9k7dakphV29FVDnOV62681jON+JOfAy8teS/n59QqfKxK50mjqFrRQ6jcOr3vfO4/1zPK/7x7sT3GTh1mX/U6HT9VhvH+krX8lUCMWWbtub23UuhQBM6FTFUJQAgC39jtDpsopoENIUViEd23MQNAqLspBnsDpqdrXRIyudsrld5/H9RXYsodOry19L+vv1CZ0q8/Q1nSaCqLuh00xQ9D3GwdMwfNoudLrN5f6phMu3Hc7t3td7hybGz4aiBABs6deETqd0Dm+yAOhHodPMKXU9z1zTKbtPb7v5oIrXkL+W9PfrEzpV5qnQaWo10JLT63pj7pPghuFT6cLlz5xe1w+tZkOnwiqk/NPpequwHth2PLd+YCV0qmsoSgDAln5V6JTOp8ldw6TS6XV5EDR3et0Dn4I3DLtG9x98nc/j2E6cdid0elX5a0l/vz6hU2Uev6bTeDxzTafR9ZymRuE6T3HXdCqsjCpec+p++PbUtvncstDq7W1q7sZfHIoSALCl3xY6pXS+MHcvyBmeunbd8No/z19IfOb0usK+DofhyqfvObZtU7j9e9XT4XBIh6ZNbXObw/UC4y4k/lLy15L+fn1Cp8rsFToVr+n0+T6+kHfhVLioT68rXrx75vpS06fzPbLt9PN671PtjL85FCUAYEv7h05Ql/y1pL9fn9CpMrGh03h8BzvlT68bneaWBUxzoc394z228qi3fR6ADcKu6xje9si2s8/rILwSOlUxFCUAYEuvEzrdPiXvNpZe9wmWy19L+vv1CZ0qs2fo1F959JY+viZWDE1eQ+qZ0Kl8Hal+6FQ+Be828lVaHw9s+3n/ec2uAyV0qmMoSgDAll4ndIJt5K8l/f36hE6VmQudDMP4+VCUAIAtCZ0gVv5a0t+vT+hUGaGTYaw7FCUAYEtCJ4iVv5b09+sTOlVG6GQY6w5FCQDYktAJYuWvJf39+oROlRkWJcMwYoaiBADsQegEsYRO2xI6VaZUlAzD+NlQlACAvejvDSN+6O+3I3SqjL+EQCxFCQDYk/4eYunvtyV0qoyiBLEUJQBgT/p7iKW/35bQqTKKEsRSlACAPenvIZb+fltCp8ooShBLUQIA9qS/h1j6+20JnSqjKEEsRQkA2JP+HmLp77cldKqMogSxFCUAYE/6e4ilv9+W0Kky+xelY2oPTepOl69PqWsO6dAeHzzScD+P3r1Nh8PhOprejn64b16KogQA7Gnv/v7YHnp9dbm/7t1jttd+fH9reOD9wKlLjfcOVdHfb0voVJm9i9LwF/ixfbaA/CAYOrbpUAi+bvN4Zt+CqlelKAEAe9q/v79Y2g9Hb7cGvf0r099vS+hUmf2L0u0X+KlrnljhNN7PY74DptFhT11qDm06Pr1vhelVKUoAwJ727+8vhE7UQX+/LaFTZfYvSudf4F2bDk2XRr/HT11qsmW0vXAou63pun4h6N3vEh4V9MKl3g2pay77O8/xmB/vNtPekt/2eN5++D1ehaIEAOxp//7+4jjZn/d792dCp+9/t21z7fXHPXl2n64tnJZ3vqzH4H3G7H6ux77cVtqHgKo2+vttCZ0qs39RugU042zm+7br93vnR/dvO3VNdorc4Bf9sZ0+Ze/UpaYUdvVWQJ3neNlu8jztcSFUbF6PogQA7Gn//v5iHNQs6t0f2F+5x58KiNL5shrnPzgf2zt/HC719oOzJIr78D6gNvr7bQmdKrN/UcpXEQ1+ORdWIR3b8y/5UViU/XIfrI6aXW30yEqnbG7XeXx/kR1L6PTqFCUAYE/79/cXg/58qnf/wUqn/mf/LOnJx+8ZRsHVzH6aZrB9cR/eB9RGf78toVNl9i9K2S/l/C8PKf0wdJo5pa7nmWs6ZffpbTcfVPEaFCUAYE/79/cXG4ZOi3vy8bG+V10t6e0PqWnK16Dt7cP7gOro77cldKrM/kWp/0v51DXZtZ1Kp9flQdDcEt0HPgVvGHaN7j/4Op/HsZ047U6xeVWKEgCwp/37+4u1T6/rX05jWU9ePtapa757/QX7mfq07es+vA+ojv5+W0KnyuxflMqnrvV/2Q+Xt143zC4IOHch8QUX8+4tox2ufMovVDi8Pbt4YNOmtrnN4XoRQhcSfymKEgCwp/37+4tCMBR8IfHhmQjjnnwmdOr1//nqpnv7OW/TdOlU3IfQqTb6+20JnSrze4oS1EFRAgD29Cf6+4cuhwH70t9vS+hUmT9RlELcPiVv/NcIiKMoAQB7+gv9fe/Mhtt39ev8Svr7bQmdKvMXihL8JYoSALCn39nfZ6etCZP4Y/T32xI6VeZ3FiX4uxQlAGBP+nuIpb/fltCpMooSxFKUAIA96e8hlv5+W0KnyihKEEtRAgD2pL+HWPr7bQmdKqMoQSxFCQDYk/4eYunvtyV0qkypKBmG8bOhKAEAe9HfG0b80N9vR+hUGX8JgViKEgCwJ/09xNLfb0voVBlFCWIpSgDAnvT3EEt/vy2hU2UUJYilKAEAe9LfQyz9/baETpVRlCCWogQA7El/D7H099sSOlVGUYJYihIAsCf9PcTS329L6FQZRQliKUoAwJ709xBLf78toVNlfkdROqb20KTuFHnkJft84rjHNh0Oh/No0/HZOZ261IQ/Zn4DRQkA2JP+fvlxj+0h6+1vo1mygx/382s8R6xBf78toVNlFKUHjnvqUpMHTacudQ+lTgrLK1CUAIA96e+fOe4efbr3Bn+F/n5bQqfKKEoPHPfYpkPTpeenqbC8AkUJANiT/l7oRCz9/baETpX5fUVp+Mu3cNuxS8156Wt7TOnUNYWlsP399JbOtsf+Ntn+5pfSHlM7tc3pto/DYDXUbd/d5OMsz4+/SFECAPakv3+kvy/NKU309t/btG1z/t7Sx3hnrkKnX09/vy2hU2X+XlE63FYbna+v1Nx+m4+KwviX+L393btO0yl1za0gjvf5vZ/vOX3v/7Ldd/GcepwT++LPUZQAgD3p7x/t7+/Md9Dbl0Ow+dBp2fPCb6W/35bQqTJ/ryjN/TKfLxa3iwM+WhwKzn/9aI9p8JeQ7C8Ypy41vdPxHp0ff5GiBADsSX//TH8//MCfQm//k8exaK78Vvr7bQmdKvMSRal3AfBT6pqA0CmdVy5dwqXSX1CWhk6T8+MvUpQAgD3p7yNCp9LqqCcfx+K58lvp77cldKrMryhKvQt0f5++djvVuX3gLxcTv/jz/fc+2vTBonTsstu+51leapvvb8HpdZPz4y9SlACAPenvfxg6zfb2U/ueeYyL58pvpb/fltCpMvsWpfM518Nftvny07YNWH57uw7ToWlT+/RfQi7zLVzwe7gM93Jb9limLyQ+NT/+IkUJANiT/v6noVOa6O0fOIWu9xiXzpXfSn+/LaFTZX7FX0KgIooSALAn/f1WjqlddJFy/jr9/baETpVRlEoGK5p6H5UK8xQlAGBP+vuSFfr73imE1Ex/vy2hU2UUJYilKAEAe9Lfr+x66p1T416F/n5bQqfKKEoQS1ECAPakv4dY+vttCZ0qoyhBLEUJANiT/h5i6e+3JXSqjKIEsRQlAGBP+nuIpb/fltCpMooSxFKUAIA96e8hlv5+W0KnypSKkmEYz4+UkqIEAOxGf28YsSMl/f2WhE6VGRYl4OcUJQBgL/p7iKe/347QqTKKEsRTlACAvejvIZ7+fjtCp8ooShBPUQIA9qK/h3j6++0InSqjKEE8RQkA2Iv+HuLp77cjdKqMogTxFCUAYC/6e4inv9+O0KkyihLEU5QAgL3o7yGe/n47QqfKKEoQT1ECAPaiv4d4+vvtCJ0qoyhBPEUJANiL/h7i6e+3I3SqjKIE8RQlAGAv+nuIp7/fjtCpMooSxFOUAIC96O8hnv5+O0KnyihKEE9RAgD2or+HePr77QidKqMoQTxFCQDYi/4e4unvtyN0qoyiBPEUJQBgL/p7iKe/347QqTKKEsRTlACAvejvIZ7+fjtCp8ooShBPUQIA9qK/h3j6++0InSqjKEE8RQkA2Iv+HuLp77cjdKqMogTxFCUAYC/6e4inv9+O0Kkyw6JkGEbMUJQAgD0InSCe/n47QqfK5EXJMIz4oSgBAFvyR2XDWGfo77chdKqM0Mkw1h2KEgD+l0MDAAADSElEQVSwJf29Yaw79PfrEjpV5t+/f4ZhrDwAALby75/QyTDWHPr7dQmdAAAAfqm9/9hmGK8wWI/QCQAAAIBwQicAAAAAwgmdAAAAAAgndAIAAAAgnNAJAAAAgHBCJwAAAADCCZ0AAAAACCd0AgAAACCc0AkAAACAcEInAAAAAMIJnQAAAAAIJ3QCAAAAIJzQCQAAAIBwQicAAAAAwgmdAAAAAAgndAIAAAAgnNAJAAAAgHBCJwAAAADCCZ0AAAAACCd0AgAAACCc0AkAAACAcEInAAAAAMIJnQAAAAAIJ3QCAAAAIJzQCQAAAIBwQicAAAAAwgmdAAAAAAgndAIAAAAgnNAJAAAAgHBCJwAAAADCCZ0AAAAACCd0AgAAACCc0AkAAACAcEInAAAAAMIJnQAAAAAIJ3QCAAAAIJzQCQAAAIBwQicAAAAAwgmdAAAAAAgndAIAAAAgnNAJAAAAgHBCJwAAAADCCZ0AAAAACCd0AgAAACCc0AkAAACAcEInAAAAAMIJnQAAAAAIJ3QCAAAAIJzQCQAAAIBwQicAAAAAwgmdAAAAAAgndAIAAAAgnNAJAAAAgHBCJwAAAADCCZ0AAAAACCd0AgAAACCc0AkAAACAcEInAAAAAMIJnQAAAAAIJ3QCAAAAIJzQCQAAAIBwQicAAAAAwgmdAAAAAAgndAIAAAAgnNAJAAAAgHBCJwAAAADCCZ0AAAAACCd0AgAAACCc0AkAAACAcEInAAAAAMIJnQAAAAAIJ3QCAAAAIJzQCQAAAIBwQicAAAAAwgmdAAAAAAgndAIAAAAgnNAJAAAAgHBCJwAAAADCCZ0AAAAACCd0AgAAACCc0AkAAACAcEInAAAAAMIJnQAAAAAIJ3QCAAAAIJzQCQAAAIBwQicAAAAAwgmdAAAAAAgndAIAAAAgnNAJAAAAgHBCJwAAAADCCZ0AAAAACCd0AgAAACCc0AkAAACAcEInAAAAAMIJnQAAAAAIJ3QCAAAAIJzQCQAAAIBwQicAAAAAwgmdAAAAAAgndAIAAAAgnNAJAAAAgHBCJwAAAADCCZ0AAAAACCd0AgAAACCc0AkAAACAcEInAAAAAMIJnQAAAAAIJ3QCAAAAINz/Ad9ojv4RISb7AAAAAElFTkSuQmCC;" parent="1" vertex="1">
          <mxGeometry x="-6230" y="147" width="1181" height="773" as="geometry" />
        </mxCell>
        <mxCell id="LJs1QpC4PnOxTTwe2DXZ-3" value="" style="endArrow=none;html=1;" parent="1" edge="1">
          <mxGeometry width="50" height="50" relative="1" as="geometry">
            <mxPoint x="-4970" y="160" as="sourcePoint" />
            <mxPoint x="-4950" y="160" as="targetPoint" />
            <Array as="points">
              <mxPoint x="-4920" y="210" />
            </Array>
          </mxGeometry>
        </mxCell>
        <mxCell id="LJs1QpC4PnOxTTwe2DXZ-4" value="" style="endArrow=none;html=1;" parent="1" source="LJs1QpC4PnOxTTwe2DXZ-7" edge="1">
          <mxGeometry width="50" height="50" relative="1" as="geometry">
            <mxPoint x="-5660" y="230" as="sourcePoint" />
            <mxPoint x="-5660" y="80" as="targetPoint" />
          </mxGeometry>
        </mxCell>
        <mxCell id="LJs1QpC4PnOxTTwe2DXZ-5" value="" style="endArrow=none;html=1;" parent="1" source="LJs1QpC4PnOxTTwe2DXZ-9" edge="1">
          <mxGeometry width="50" height="50" relative="1" as="geometry">
            <mxPoint x="-5260" y="478" as="sourcePoint" />
            <mxPoint x="-5260" y="56" as="targetPoint" />
          </mxGeometry>
        </mxCell>
        <mxCell id="LJs1QpC4PnOxTTwe2DXZ-8" value="" style="endArrow=none;html=1;" parent="1" target="LJs1QpC4PnOxTTwe2DXZ-7" edge="1">
          <mxGeometry width="50" height="50" relative="1" as="geometry">
            <mxPoint x="-5660" y="230" as="sourcePoint" />
            <mxPoint x="-5660" y="80" as="targetPoint" />
          </mxGeometry>
        </mxCell>
        <mxCell id="LJs1QpC4PnOxTTwe2DXZ-9" value="" style="shape=image;verticalLabelPosition=bottom;labelBackgroundColor=#ffffff;verticalAlign=top;aspect=fixed;imageAspect=0;image=data:image/png,iVBORw0KGgoAAAANSUhEUgAAABYAAAAQCAYAAAAS7Y8mAAAAGklEQVQ4jWP4TyPAMGrwqMGjBo8aPGowKQAAniN6zNkFH8sAAAAASUVORK5CYII=;" parent="1" vertex="1">
          <mxGeometry x="-5270" y="142" width="22" height="16" as="geometry" />
        </mxCell>
        <mxCell id="LJs1QpC4PnOxTTwe2DXZ-10" value="" style="endArrow=none;html=1;" parent="1" target="LJs1QpC4PnOxTTwe2DXZ-9" edge="1">
          <mxGeometry width="50" height="50" relative="1" as="geometry">
            <mxPoint x="-5260" y="478" as="sourcePoint" />
            <mxPoint x="-5260" y="56" as="targetPoint" />
          </mxGeometry>
        </mxCell>
        <mxCell id="LJs1QpC4PnOxTTwe2DXZ-12" value="" style="endArrow=classic;html=1;" parent="1" target="LJs1QpC4PnOxTTwe2DXZ-11" edge="1">
          <mxGeometry width="50" height="50" relative="1" as="geometry">
            <mxPoint x="-5070" y="110" as="sourcePoint" />
            <mxPoint x="-5140" y="760" as="targetPoint" />
            <Array as="points" />
          </mxGeometry>
        </mxCell>
        <mxCell id="LJs1QpC4PnOxTTwe2DXZ-13" value="" style="shape=image;verticalLabelPosition=bottom;labelBackgroundColor=#ffffff;verticalAlign=top;aspect=fixed;imageAspect=0;image=data:image/png,iVBORw0KGgoAAAANSUhEUgAAABYAAAAQCAYAAAAS7Y8mAAAAGklEQVQ4jWP4TyPAMGrwqMGjBo8aPGowKQAAniN6zNkFH8sAAAAASUVORK5CYII=;" parent="1" vertex="1">
          <mxGeometry x="-5060" y="158" width="4" height="2.91" as="geometry" />
        </mxCell>
        <mxCell id="LJs1QpC4PnOxTTwe2DXZ-14" value="" style="endArrow=none;html=1;" parent="1" target="LJs1QpC4PnOxTTwe2DXZ-13" edge="1">
          <mxGeometry width="50" height="50" relative="1" as="geometry">
            <mxPoint x="-6090" y="486" as="sourcePoint" />
            <mxPoint x="-4950" y="160" as="targetPoint" />
            <Array as="points">
              <mxPoint x="-6090" y="160" />
            </Array>
          </mxGeometry>
        </mxCell>
        <mxCell id="LJs1QpC4PnOxTTwe2DXZ-15" value="" style="endArrow=classic;html=1;" parent="1" edge="1">
          <mxGeometry width="50" height="50" relative="1" as="geometry">
            <mxPoint x="-6090" y="410" as="sourcePoint" />
            <mxPoint x="-6090" y="484" as="targetPoint" />
          </mxGeometry>
        </mxCell>
        <mxCell id="LJs1QpC4PnOxTTwe2DXZ-16" value="" style="endArrow=classic;html=1;" parent="1" edge="1">
          <mxGeometry width="50" height="50" relative="1" as="geometry">
            <mxPoint x="-5659.5" y="130" as="sourcePoint" />
            <mxPoint x="-5659.5" y="230" as="targetPoint" />
          </mxGeometry>
        </mxCell>
        <mxCell id="LJs1QpC4PnOxTTwe2DXZ-7" value="" style="shape=image;verticalLabelPosition=bottom;labelBackgroundColor=#ffffff;verticalAlign=top;aspect=fixed;imageAspect=0;image=data:image/png,iVBORw0KGgoAAAANSUhEUgAAABYAAAAQCAYAAAAS7Y8mAAAAGklEQVQ4jWP4TyPAMGrwqMGjBo8aPGowKQAAniN6zNkFH8sAAAAASUVORK5CYII=;" parent="1" vertex="1">
          <mxGeometry x="-5670" y="142" width="22" height="16" as="geometry" />
        </mxCell>
        <mxCell id="LJs1QpC4PnOxTTwe2DXZ-18" value="" style="endArrow=classic;html=1;" parent="1" edge="1">
          <mxGeometry width="50" height="50" relative="1" as="geometry">
            <mxPoint x="-5259.5" y="404" as="sourcePoint" />
            <mxPoint x="-5259.5" y="478" as="targetPoint" />
          </mxGeometry>
        </mxCell>
        <mxCell id="LJs1QpC4PnOxTTwe2DXZ-19" value="" style="endArrow=none;html=1;" parent="1" edge="1">
          <mxGeometry width="50" height="50" relative="1" as="geometry">
            <mxPoint x="-5140" y="760" as="sourcePoint" />
            <mxPoint x="-5060" y="90" as="targetPoint" />
            <Array as="points">
              <mxPoint x="-5060" y="760" />
            </Array>
          </mxGeometry>
        </mxCell>
        <mxCell id="LJs1QpC4PnOxTTwe2DXZ-11" value="" style="shape=image;verticalLabelPosition=bottom;labelBackgroundColor=#ffffff;verticalAlign=top;aspect=fixed;imageAspect=0;image=data:image/png,iVBORw0KGgoAAAANSUhEUgAAABYAAAAQCAYAAAAS7Y8mAAAAGklEQVQ4jWP4TyPAMGrwqMGjBo8aPGowKQAAniN6zNkFH8sAAAAASUVORK5CYII=;" parent="1" vertex="1">
          <mxGeometry x="-5080" y="142" width="22" height="16" as="geometry" />
        </mxCell>
        <mxCell id="LJs1QpC4PnOxTTwe2DXZ-20" value="" style="shape=image;verticalLabelPosition=bottom;labelBackgroundColor=#ffffff;verticalAlign=top;aspect=fixed;imageAspect=0;image=data:image/png,iVBORw0KGgoAAAANSUhEUgAAAFwAAAAwCAYAAACc2R15AAACCElEQVR4nO2Yy5XDIAxFVZcKoh6qoRmK0SywCR8ZDM4oC797ThZJbAkuQjghAabQrwfwNiDcGAg3BsKNgXBjINwYCDcGwo2BcGMg3BgINwbCjYFwYyDcGAg35lJ49CxEJC4M7o5emEhoeBEomQon9hIvrgmOhJkhfIGxcOfEEYtXjQdxxMKMCl9hIjykKlaMl9+3wvPuIBK6XLCaM0517xG3juekXd5Rvug57dLguvuDo8997CWc1z6cy4ip8NSn20lG8ZySt8KDa9pQcKqklnPyn8UN4qj9LIrntXxZWFMUKV8xrvM8KmLtzmXEXPiRuBpvcHkglfDohbsqSJJmXaebnChSpKjYm/mS8FZSWsx2TKuxd7glvBSc3n6SVsLztu1fqUqPCi0+V+NoAk7KsUzzDWJctaaF2DvcE160EIleuN12lfC9LbcvfJzvmfBn7UPjpvBjAMehVq5w31L2ttyW8Bv51Bhqu2ja2oO5jLgvPD8G1quuHppVZUTx7vpZ/ipOHsNI+I18aoyztXUHonJobsxlxIJw6ao7D0p9AljrebvCZ/l04SLdeXI+ki7E3gH/pRRcL873gPBMqvinFTzjpcKjeFae77/wS3LGS4W3P9n1vwz+g9cK/xUQbgyEGwPhxkC4MRBuDIQbA+HGQLgxEG4MhBsD4cZAuDEQbgyEGwPhxkC4MX8ibFVY0X3WqAAAAABJRU5ErkJggg==;" parent="1" vertex="1">
          <mxGeometry x="-5160" y="612" width="92" height="48" as="geometry" />
        </mxCell>
        <mxCell id="E1IkTecaXCfYjuHMglz0-316" value="" style="group" vertex="1" connectable="0" parent="1">
          <mxGeometry x="2450" y="130" width="180" height="160" as="geometry" />
        </mxCell>
        <mxCell id="E1IkTecaXCfYjuHMglz0-317" value="" style="group;fillColor=#A3A3A3;" vertex="1" connectable="0" parent="E1IkTecaXCfYjuHMglz0-316">
          <mxGeometry width="180" height="160" as="geometry" />
        </mxCell>
        <mxCell id="E1IkTecaXCfYjuHMglz0-318" value="" style="rounded=0;whiteSpace=wrap;html=1;" vertex="1" parent="E1IkTecaXCfYjuHMglz0-317">
          <mxGeometry width="45" height="40" as="geometry" />
        </mxCell>
        <mxCell id="E1IkTecaXCfYjuHMglz0-319" value="" style="rounded=0;whiteSpace=wrap;html=1;fillColor=#808080;" vertex="1" parent="E1IkTecaXCfYjuHMglz0-317">
          <mxGeometry x="45" width="45" height="40" as="geometry" />
        </mxCell>
        <mxCell id="E1IkTecaXCfYjuHMglz0-320" value="" style="rounded=0;whiteSpace=wrap;html=1;" vertex="1" parent="E1IkTecaXCfYjuHMglz0-317">
          <mxGeometry x="90" width="45" height="40" as="geometry" />
        </mxCell>
        <mxCell id="E1IkTecaXCfYjuHMglz0-321" value="" style="rounded=0;whiteSpace=wrap;html=1;fillColor=#808080;" vertex="1" parent="E1IkTecaXCfYjuHMglz0-317">
          <mxGeometry x="135" width="45" height="40" as="geometry" />
        </mxCell>
        <mxCell id="E1IkTecaXCfYjuHMglz0-322" value="" style="rounded=0;whiteSpace=wrap;html=1;fillColor=#808080;" vertex="1" parent="E1IkTecaXCfYjuHMglz0-317">
          <mxGeometry y="40" width="45" height="40" as="geometry" />
        </mxCell>
        <mxCell id="E1IkTecaXCfYjuHMglz0-323" value="" style="rounded=0;whiteSpace=wrap;html=1;" vertex="1" parent="E1IkTecaXCfYjuHMglz0-317">
          <mxGeometry x="45" y="40" width="45" height="40" as="geometry" />
        </mxCell>
        <mxCell id="E1IkTecaXCfYjuHMglz0-324" value="" style="rounded=0;whiteSpace=wrap;html=1;fillColor=#808080;" vertex="1" parent="E1IkTecaXCfYjuHMglz0-317">
          <mxGeometry x="90" y="40" width="45" height="40" as="geometry" />
        </mxCell>
        <mxCell id="E1IkTecaXCfYjuHMglz0-325" value="" style="rounded=0;whiteSpace=wrap;html=1;" vertex="1" parent="E1IkTecaXCfYjuHMglz0-317">
          <mxGeometry x="135" y="40" width="45" height="40" as="geometry" />
        </mxCell>
        <mxCell id="E1IkTecaXCfYjuHMglz0-326" value="" style="rounded=0;whiteSpace=wrap;html=1;" vertex="1" parent="E1IkTecaXCfYjuHMglz0-317">
          <mxGeometry y="80" width="45" height="40" as="geometry" />
        </mxCell>
        <mxCell id="E1IkTecaXCfYjuHMglz0-327" value="" style="rounded=0;whiteSpace=wrap;html=1;fillColor=#808080;" vertex="1" parent="E1IkTecaXCfYjuHMglz0-317">
          <mxGeometry x="45" y="80" width="45" height="40" as="geometry" />
        </mxCell>
        <mxCell id="E1IkTecaXCfYjuHMglz0-328" value="" style="rounded=0;whiteSpace=wrap;html=1;" vertex="1" parent="E1IkTecaXCfYjuHMglz0-317">
          <mxGeometry x="90" y="80" width="45" height="40" as="geometry" />
        </mxCell>
        <mxCell id="E1IkTecaXCfYjuHMglz0-329" value="" style="rounded=0;whiteSpace=wrap;html=1;fillColor=#808080;" vertex="1" parent="E1IkTecaXCfYjuHMglz0-317">
          <mxGeometry x="135" y="80" width="45" height="40" as="geometry" />
        </mxCell>
        <mxCell id="E1IkTecaXCfYjuHMglz0-330" value="" style="rounded=0;whiteSpace=wrap;html=1;fillColor=#808080;" vertex="1" parent="E1IkTecaXCfYjuHMglz0-317">
          <mxGeometry y="120" width="45" height="40" as="geometry" />
        </mxCell>
        <mxCell id="E1IkTecaXCfYjuHMglz0-331" value="" style="rounded=0;whiteSpace=wrap;html=1;" vertex="1" parent="E1IkTecaXCfYjuHMglz0-317">
          <mxGeometry x="45" y="120" width="45" height="40" as="geometry" />
        </mxCell>
        <mxCell id="E1IkTecaXCfYjuHMglz0-332" value="" style="rounded=0;whiteSpace=wrap;html=1;fillColor=#808080;" vertex="1" parent="E1IkTecaXCfYjuHMglz0-317">
          <mxGeometry x="90" y="120" width="45" height="40" as="geometry" />
        </mxCell>
        <mxCell id="E1IkTecaXCfYjuHMglz0-333" value="" style="rounded=0;whiteSpace=wrap;html=1;" vertex="1" parent="E1IkTecaXCfYjuHMglz0-317">
          <mxGeometry x="135" y="120" width="45" height="40" as="geometry" />
        </mxCell>
        <mxCell id="E1IkTecaXCfYjuHMglz0-334" value="" style="shape=image;html=1;verticalAlign=top;verticalLabelPosition=bottom;labelBackgroundColor=#ffffff;imageAspect=0;aspect=fixed;image=https://cdn1.iconfinder.com/data/icons/photo-stickers-hats/128/hat_10-128.png;fillColor=#808080;" vertex="1" parent="E1IkTecaXCfYjuHMglz0-317">
          <mxGeometry x="47.5" width="40" height="40" as="geometry" />
        </mxCell>
        <mxCell id="E1IkTecaXCfYjuHMglz0-356" value="" style="group" vertex="1" connectable="0" parent="1">
          <mxGeometry x="2450" y="410" width="180" height="160" as="geometry" />
        </mxCell>
        <mxCell id="E1IkTecaXCfYjuHMglz0-357" value="" style="group;fillColor=#A3A3A3;" vertex="1" connectable="0" parent="E1IkTecaXCfYjuHMglz0-356">
          <mxGeometry width="180" height="160" as="geometry" />
        </mxCell>
        <mxCell id="E1IkTecaXCfYjuHMglz0-358" value="" style="rounded=0;whiteSpace=wrap;html=1;" vertex="1" parent="E1IkTecaXCfYjuHMglz0-357">
          <mxGeometry width="45" height="40" as="geometry" />
        </mxCell>
        <mxCell id="E1IkTecaXCfYjuHMglz0-359" value="" style="rounded=0;whiteSpace=wrap;html=1;fillColor=#808080;" vertex="1" parent="E1IkTecaXCfYjuHMglz0-357">
          <mxGeometry x="45" width="45" height="40" as="geometry" />
        </mxCell>
        <mxCell id="E1IkTecaXCfYjuHMglz0-360" value="" style="rounded=0;whiteSpace=wrap;html=1;" vertex="1" parent="E1IkTecaXCfYjuHMglz0-357">
          <mxGeometry x="90" width="45" height="40" as="geometry" />
        </mxCell>
        <mxCell id="E1IkTecaXCfYjuHMglz0-361" value="" style="rounded=0;whiteSpace=wrap;html=1;fillColor=#808080;" vertex="1" parent="E1IkTecaXCfYjuHMglz0-357">
          <mxGeometry x="135" width="45" height="40" as="geometry" />
        </mxCell>
        <mxCell id="E1IkTecaXCfYjuHMglz0-362" value="" style="rounded=0;whiteSpace=wrap;html=1;fillColor=#808080;" vertex="1" parent="E1IkTecaXCfYjuHMglz0-357">
          <mxGeometry y="40" width="45" height="40" as="geometry" />
        </mxCell>
        <mxCell id="E1IkTecaXCfYjuHMglz0-363" value="" style="rounded=0;whiteSpace=wrap;html=1;" vertex="1" parent="E1IkTecaXCfYjuHMglz0-357">
          <mxGeometry x="45" y="40" width="45" height="40" as="geometry" />
        </mxCell>
        <mxCell id="E1IkTecaXCfYjuHMglz0-364" value="" style="rounded=0;whiteSpace=wrap;html=1;fillColor=#808080;" vertex="1" parent="E1IkTecaXCfYjuHMglz0-357">
          <mxGeometry x="90" y="40" width="45" height="40" as="geometry" />
        </mxCell>
        <mxCell id="E1IkTecaXCfYjuHMglz0-365" value="" style="rounded=0;whiteSpace=wrap;html=1;" vertex="1" parent="E1IkTecaXCfYjuHMglz0-357">
          <mxGeometry x="135" y="40" width="45" height="40" as="geometry" />
        </mxCell>
        <mxCell id="E1IkTecaXCfYjuHMglz0-366" value="" style="rounded=0;whiteSpace=wrap;html=1;" vertex="1" parent="E1IkTecaXCfYjuHMglz0-357">
          <mxGeometry y="80" width="45" height="40" as="geometry" />
        </mxCell>
        <mxCell id="E1IkTecaXCfYjuHMglz0-367" value="" style="rounded=0;whiteSpace=wrap;html=1;fillColor=#808080;" vertex="1" parent="E1IkTecaXCfYjuHMglz0-357">
          <mxGeometry x="45" y="80" width="45" height="40" as="geometry" />
        </mxCell>
        <mxCell id="E1IkTecaXCfYjuHMglz0-368" value="" style="rounded=0;whiteSpace=wrap;html=1;" vertex="1" parent="E1IkTecaXCfYjuHMglz0-357">
          <mxGeometry x="90" y="80" width="45" height="40" as="geometry" />
        </mxCell>
        <mxCell id="E1IkTecaXCfYjuHMglz0-369" value="" style="rounded=0;whiteSpace=wrap;html=1;fillColor=#808080;" vertex="1" parent="E1IkTecaXCfYjuHMglz0-357">
          <mxGeometry x="135" y="80" width="45" height="40" as="geometry" />
        </mxCell>
        <mxCell id="E1IkTecaXCfYjuHMglz0-370" value="" style="rounded=0;whiteSpace=wrap;html=1;fillColor=#808080;" vertex="1" parent="E1IkTecaXCfYjuHMglz0-357">
          <mxGeometry y="120" width="45" height="40" as="geometry" />
        </mxCell>
        <mxCell id="E1IkTecaXCfYjuHMglz0-371" value="" style="rounded=0;whiteSpace=wrap;html=1;" vertex="1" parent="E1IkTecaXCfYjuHMglz0-357">
          <mxGeometry x="45" y="120" width="45" height="40" as="geometry" />
        </mxCell>
        <mxCell id="E1IkTecaXCfYjuHMglz0-372" value="" style="rounded=0;whiteSpace=wrap;html=1;fillColor=#808080;" vertex="1" parent="E1IkTecaXCfYjuHMglz0-357">
          <mxGeometry x="90" y="120" width="45" height="40" as="geometry" />
        </mxCell>
        <mxCell id="E1IkTecaXCfYjuHMglz0-373" value="" style="rounded=0;whiteSpace=wrap;html=1;" vertex="1" parent="E1IkTecaXCfYjuHMglz0-357">
          <mxGeometry x="135" y="120" width="45" height="40" as="geometry" />
        </mxCell>
        <mxCell id="E1IkTecaXCfYjuHMglz0-374" value="" style="shape=image;html=1;verticalAlign=top;verticalLabelPosition=bottom;labelBackgroundColor=#ffffff;imageAspect=0;aspect=fixed;image=https://cdn1.iconfinder.com/data/icons/photo-stickers-hats/128/hat_10-128.png;fillColor=#808080;" vertex="1" parent="E1IkTecaXCfYjuHMglz0-357">
          <mxGeometry x="47.5" width="40" height="40" as="geometry" />
        </mxCell>
        <mxCell id="E1IkTecaXCfYjuHMglz0-375" value="" style="group;fillColor=#A3A3A3;" vertex="1" connectable="0" parent="E1IkTecaXCfYjuHMglz0-356">
          <mxGeometry width="180" height="160" as="geometry" />
        </mxCell>
        <mxCell id="E1IkTecaXCfYjuHMglz0-376" value="" style="rounded=0;whiteSpace=wrap;html=1;" vertex="1" parent="E1IkTecaXCfYjuHMglz0-375">
          <mxGeometry width="45" height="40" as="geometry" />
        </mxCell>
        <mxCell id="E1IkTecaXCfYjuHMglz0-377" value="" style="rounded=0;whiteSpace=wrap;html=1;fillColor=#808080;" vertex="1" parent="E1IkTecaXCfYjuHMglz0-375">
          <mxGeometry x="45" width="45" height="40" as="geometry" />
        </mxCell>
        <mxCell id="E1IkTecaXCfYjuHMglz0-378" value="" style="rounded=0;whiteSpace=wrap;html=1;" vertex="1" parent="E1IkTecaXCfYjuHMglz0-375">
          <mxGeometry x="90" width="45" height="40" as="geometry" />
        </mxCell>
        <mxCell id="E1IkTecaXCfYjuHMglz0-379" value="" style="rounded=0;whiteSpace=wrap;html=1;fillColor=#808080;" vertex="1" parent="E1IkTecaXCfYjuHMglz0-375">
          <mxGeometry x="135" width="45" height="40" as="geometry" />
        </mxCell>
        <mxCell id="E1IkTecaXCfYjuHMglz0-380" value="" style="rounded=0;whiteSpace=wrap;html=1;fillColor=#808080;" vertex="1" parent="E1IkTecaXCfYjuHMglz0-375">
          <mxGeometry y="40" width="45" height="40" as="geometry" />
        </mxCell>
        <mxCell id="E1IkTecaXCfYjuHMglz0-381" value="" style="rounded=0;whiteSpace=wrap;html=1;" vertex="1" parent="E1IkTecaXCfYjuHMglz0-375">
          <mxGeometry x="45" y="40" width="45" height="40" as="geometry" />
        </mxCell>
        <mxCell id="E1IkTecaXCfYjuHMglz0-382" value="" style="rounded=0;whiteSpace=wrap;html=1;fillColor=#808080;" vertex="1" parent="E1IkTecaXCfYjuHMglz0-375">
          <mxGeometry x="90" y="40" width="45" height="40" as="geometry" />
        </mxCell>
        <mxCell id="E1IkTecaXCfYjuHMglz0-383" value="" style="rounded=0;whiteSpace=wrap;html=1;" vertex="1" parent="E1IkTecaXCfYjuHMglz0-375">
          <mxGeometry x="135" y="40" width="45" height="40" as="geometry" />
        </mxCell>
        <mxCell id="E1IkTecaXCfYjuHMglz0-384" value="" style="rounded=0;whiteSpace=wrap;html=1;" vertex="1" parent="E1IkTecaXCfYjuHMglz0-375">
          <mxGeometry y="80" width="45" height="40" as="geometry" />
        </mxCell>
        <mxCell id="E1IkTecaXCfYjuHMglz0-385" value="" style="rounded=0;whiteSpace=wrap;html=1;fillColor=#808080;" vertex="1" parent="E1IkTecaXCfYjuHMglz0-375">
          <mxGeometry x="45" y="80" width="45" height="40" as="geometry" />
        </mxCell>
        <mxCell id="E1IkTecaXCfYjuHMglz0-386" value="" style="rounded=0;whiteSpace=wrap;html=1;" vertex="1" parent="E1IkTecaXCfYjuHMglz0-375">
          <mxGeometry x="90" y="80" width="45" height="40" as="geometry" />
        </mxCell>
        <mxCell id="E1IkTecaXCfYjuHMglz0-387" value="" style="rounded=0;whiteSpace=wrap;html=1;fillColor=#808080;" vertex="1" parent="E1IkTecaXCfYjuHMglz0-375">
          <mxGeometry x="135" y="80" width="45" height="40" as="geometry" />
        </mxCell>
        <mxCell id="E1IkTecaXCfYjuHMglz0-388" value="" style="rounded=0;whiteSpace=wrap;html=1;fillColor=#808080;" vertex="1" parent="E1IkTecaXCfYjuHMglz0-375">
          <mxGeometry y="120" width="45" height="40" as="geometry" />
        </mxCell>
        <mxCell id="E1IkTecaXCfYjuHMglz0-389" value="" style="rounded=0;whiteSpace=wrap;html=1;" vertex="1" parent="E1IkTecaXCfYjuHMglz0-375">
          <mxGeometry x="45" y="120" width="45" height="40" as="geometry" />
        </mxCell>
        <mxCell id="E1IkTecaXCfYjuHMglz0-390" value="" style="rounded=0;whiteSpace=wrap;html=1;fillColor=#808080;" vertex="1" parent="E1IkTecaXCfYjuHMglz0-375">
          <mxGeometry x="90" y="120" width="45" height="40" as="geometry" />
        </mxCell>
        <mxCell id="E1IkTecaXCfYjuHMglz0-391" value="" style="rounded=0;whiteSpace=wrap;html=1;" vertex="1" parent="E1IkTecaXCfYjuHMglz0-375">
          <mxGeometry x="135" y="120" width="45" height="40" as="geometry" />
        </mxCell>
        <mxCell id="E1IkTecaXCfYjuHMglz0-392" value="" style="shape=image;html=1;verticalAlign=top;verticalLabelPosition=bottom;labelBackgroundColor=#ffffff;imageAspect=0;aspect=fixed;image=https://cdn1.iconfinder.com/data/icons/photo-stickers-hats/128/hat_10-128.png;fillColor=#808080;" vertex="1" parent="E1IkTecaXCfYjuHMglz0-375">
          <mxGeometry x="47.5" width="40" height="40" as="geometry" />
        </mxCell>
        <mxCell id="E1IkTecaXCfYjuHMglz0-394" value="" style="shape=image;html=1;verticalAlign=top;verticalLabelPosition=bottom;labelBackgroundColor=#ffffff;imageAspect=0;aspect=fixed;image=https://cdn1.iconfinder.com/data/icons/photo-stickers-hats/128/hat_10-128.png;fillColor=#808080;" vertex="1" parent="E1IkTecaXCfYjuHMglz0-375">
          <mxGeometry x="2.5" y="80" width="40" height="40" as="geometry" />
        </mxCell>
        <mxCell id="E1IkTecaXCfYjuHMglz0-419" value="" style="endArrow=classic;html=1;exitX=0;exitY=1;exitDx=0;exitDy=0;" edge="1" parent="1">
          <mxGeometry width="50" height="50" relative="1" as="geometry">
            <mxPoint x="2540" y="290" as="sourcePoint" />
            <mxPoint x="2543" y="410" as="targetPoint" />
          </mxGeometry>
        </mxCell>
        <mxCell id="E1IkTecaXCfYjuHMglz0-420" value="&lt;font style=&quot;font-size: 36px&quot;&gt;1&lt;br&gt;&lt;/font&gt;" style="text;html=1;strokeColor=none;fillColor=none;align=center;verticalAlign=middle;whiteSpace=wrap;rounded=0;" vertex="1" parent="1">
          <mxGeometry x="2655" y="200" width="145" height="40" as="geometry" />
        </mxCell>
        <mxCell id="E1IkTecaXCfYjuHMglz0-423" value="&lt;font style=&quot;font-size: 36px&quot;&gt;2&lt;br&gt;&lt;/font&gt;" style="text;html=1;strokeColor=#75FFA8;fillColor=none;align=center;verticalAlign=middle;whiteSpace=wrap;rounded=0;" vertex="1" parent="1">
          <mxGeometry x="2467.5" y="570" width="145" height="40" as="geometry" />
        </mxCell>
        <mxCell id="E1IkTecaXCfYjuHMglz0-464" value="" style="group" vertex="1" connectable="0" parent="1">
          <mxGeometry x="2450" y="700" width="180" height="160" as="geometry" />
        </mxCell>
        <mxCell id="E1IkTecaXCfYjuHMglz0-465" value="" style="group;fillColor=#A3A3A3;" vertex="1" connectable="0" parent="E1IkTecaXCfYjuHMglz0-464">
          <mxGeometry width="180" height="160" as="geometry" />
        </mxCell>
        <mxCell id="E1IkTecaXCfYjuHMglz0-466" value="" style="rounded=0;whiteSpace=wrap;html=1;" vertex="1" parent="E1IkTecaXCfYjuHMglz0-465">
          <mxGeometry width="45" height="40" as="geometry" />
        </mxCell>
        <mxCell id="E1IkTecaXCfYjuHMglz0-467" value="" style="rounded=0;whiteSpace=wrap;html=1;fillColor=#808080;" vertex="1" parent="E1IkTecaXCfYjuHMglz0-465">
          <mxGeometry x="45" width="45" height="40" as="geometry" />
        </mxCell>
        <mxCell id="E1IkTecaXCfYjuHMglz0-468" value="" style="rounded=0;whiteSpace=wrap;html=1;" vertex="1" parent="E1IkTecaXCfYjuHMglz0-465">
          <mxGeometry x="90" width="45" height="40" as="geometry" />
        </mxCell>
        <mxCell id="E1IkTecaXCfYjuHMglz0-469" value="" style="rounded=0;whiteSpace=wrap;html=1;fillColor=#808080;" vertex="1" parent="E1IkTecaXCfYjuHMglz0-465">
          <mxGeometry x="135" width="45" height="40" as="geometry" />
        </mxCell>
        <mxCell id="E1IkTecaXCfYjuHMglz0-470" value="" style="rounded=0;whiteSpace=wrap;html=1;fillColor=#808080;" vertex="1" parent="E1IkTecaXCfYjuHMglz0-465">
          <mxGeometry y="40" width="45" height="40" as="geometry" />
        </mxCell>
        <mxCell id="E1IkTecaXCfYjuHMglz0-471" value="" style="rounded=0;whiteSpace=wrap;html=1;" vertex="1" parent="E1IkTecaXCfYjuHMglz0-465">
          <mxGeometry x="45" y="40" width="45" height="40" as="geometry" />
        </mxCell>
        <mxCell id="E1IkTecaXCfYjuHMglz0-472" value="" style="rounded=0;whiteSpace=wrap;html=1;fillColor=#808080;" vertex="1" parent="E1IkTecaXCfYjuHMglz0-465">
          <mxGeometry x="90" y="40" width="45" height="40" as="geometry" />
        </mxCell>
        <mxCell id="E1IkTecaXCfYjuHMglz0-473" value="" style="rounded=0;whiteSpace=wrap;html=1;" vertex="1" parent="E1IkTecaXCfYjuHMglz0-465">
          <mxGeometry x="135" y="40" width="45" height="40" as="geometry" />
        </mxCell>
        <mxCell id="E1IkTecaXCfYjuHMglz0-474" value="" style="rounded=0;whiteSpace=wrap;html=1;" vertex="1" parent="E1IkTecaXCfYjuHMglz0-465">
          <mxGeometry y="80" width="45" height="40" as="geometry" />
        </mxCell>
        <mxCell id="E1IkTecaXCfYjuHMglz0-475" value="" style="rounded=0;whiteSpace=wrap;html=1;fillColor=#808080;" vertex="1" parent="E1IkTecaXCfYjuHMglz0-465">
          <mxGeometry x="45" y="80" width="45" height="40" as="geometry" />
        </mxCell>
        <mxCell id="E1IkTecaXCfYjuHMglz0-476" value="" style="rounded=0;whiteSpace=wrap;html=1;" vertex="1" parent="E1IkTecaXCfYjuHMglz0-465">
          <mxGeometry x="90" y="80" width="45" height="40" as="geometry" />
        </mxCell>
        <mxCell id="E1IkTecaXCfYjuHMglz0-477" value="" style="rounded=0;whiteSpace=wrap;html=1;fillColor=#808080;" vertex="1" parent="E1IkTecaXCfYjuHMglz0-465">
          <mxGeometry x="135" y="80" width="45" height="40" as="geometry" />
        </mxCell>
        <mxCell id="E1IkTecaXCfYjuHMglz0-478" value="" style="rounded=0;whiteSpace=wrap;html=1;fillColor=#808080;" vertex="1" parent="E1IkTecaXCfYjuHMglz0-465">
          <mxGeometry y="120" width="45" height="40" as="geometry" />
        </mxCell>
        <mxCell id="E1IkTecaXCfYjuHMglz0-479" value="" style="rounded=0;whiteSpace=wrap;html=1;" vertex="1" parent="E1IkTecaXCfYjuHMglz0-465">
          <mxGeometry x="45" y="120" width="45" height="40" as="geometry" />
        </mxCell>
        <mxCell id="E1IkTecaXCfYjuHMglz0-480" value="" style="rounded=0;whiteSpace=wrap;html=1;fillColor=#808080;" vertex="1" parent="E1IkTecaXCfYjuHMglz0-465">
          <mxGeometry x="90" y="120" width="45" height="40" as="geometry" />
        </mxCell>
        <mxCell id="E1IkTecaXCfYjuHMglz0-481" value="" style="rounded=0;whiteSpace=wrap;html=1;" vertex="1" parent="E1IkTecaXCfYjuHMglz0-465">
          <mxGeometry x="135" y="120" width="45" height="40" as="geometry" />
        </mxCell>
        <mxCell id="E1IkTecaXCfYjuHMglz0-482" value="" style="shape=image;html=1;verticalAlign=top;verticalLabelPosition=bottom;labelBackgroundColor=#ffffff;imageAspect=0;aspect=fixed;image=https://cdn1.iconfinder.com/data/icons/photo-stickers-hats/128/hat_10-128.png;fillColor=#808080;" vertex="1" parent="E1IkTecaXCfYjuHMglz0-465">
          <mxGeometry x="47.5" width="40" height="40" as="geometry" />
        </mxCell>
        <mxCell id="E1IkTecaXCfYjuHMglz0-483" value="" style="group;fillColor=#A3A3A3;" vertex="1" connectable="0" parent="E1IkTecaXCfYjuHMglz0-464">
          <mxGeometry width="180" height="160" as="geometry" />
        </mxCell>
        <mxCell id="E1IkTecaXCfYjuHMglz0-484" value="" style="rounded=0;whiteSpace=wrap;html=1;" vertex="1" parent="E1IkTecaXCfYjuHMglz0-483">
          <mxGeometry width="45" height="40" as="geometry" />
        </mxCell>
        <mxCell id="E1IkTecaXCfYjuHMglz0-485" value="" style="rounded=0;whiteSpace=wrap;html=1;fillColor=#808080;" vertex="1" parent="E1IkTecaXCfYjuHMglz0-483">
          <mxGeometry x="45" width="45" height="40" as="geometry" />
        </mxCell>
        <mxCell id="E1IkTecaXCfYjuHMglz0-486" value="" style="rounded=0;whiteSpace=wrap;html=1;" vertex="1" parent="E1IkTecaXCfYjuHMglz0-483">
          <mxGeometry x="90" width="45" height="40" as="geometry" />
        </mxCell>
        <mxCell id="E1IkTecaXCfYjuHMglz0-487" value="" style="rounded=0;whiteSpace=wrap;html=1;fillColor=#808080;" vertex="1" parent="E1IkTecaXCfYjuHMglz0-483">
          <mxGeometry x="135" width="45" height="40" as="geometry" />
        </mxCell>
        <mxCell id="E1IkTecaXCfYjuHMglz0-488" value="" style="rounded=0;whiteSpace=wrap;html=1;fillColor=#808080;" vertex="1" parent="E1IkTecaXCfYjuHMglz0-483">
          <mxGeometry y="40" width="45" height="40" as="geometry" />
        </mxCell>
        <mxCell id="E1IkTecaXCfYjuHMglz0-489" value="" style="rounded=0;whiteSpace=wrap;html=1;" vertex="1" parent="E1IkTecaXCfYjuHMglz0-483">
          <mxGeometry x="45" y="40" width="45" height="40" as="geometry" />
        </mxCell>
        <mxCell id="E1IkTecaXCfYjuHMglz0-490" value="" style="rounded=0;whiteSpace=wrap;html=1;fillColor=#808080;" vertex="1" parent="E1IkTecaXCfYjuHMglz0-483">
          <mxGeometry x="90" y="40" width="45" height="40" as="geometry" />
        </mxCell>
        <mxCell id="E1IkTecaXCfYjuHMglz0-491" value="" style="rounded=0;whiteSpace=wrap;html=1;" vertex="1" parent="E1IkTecaXCfYjuHMglz0-483">
          <mxGeometry x="135" y="40" width="45" height="40" as="geometry" />
        </mxCell>
        <mxCell id="E1IkTecaXCfYjuHMglz0-492" value="" style="rounded=0;whiteSpace=wrap;html=1;" vertex="1" parent="E1IkTecaXCfYjuHMglz0-483">
          <mxGeometry y="80" width="45" height="40" as="geometry" />
        </mxCell>
        <mxCell id="E1IkTecaXCfYjuHMglz0-493" value="" style="rounded=0;whiteSpace=wrap;html=1;fillColor=#808080;" vertex="1" parent="E1IkTecaXCfYjuHMglz0-483">
          <mxGeometry x="45" y="80" width="45" height="40" as="geometry" />
        </mxCell>
        <mxCell id="E1IkTecaXCfYjuHMglz0-494" value="" style="rounded=0;whiteSpace=wrap;html=1;" vertex="1" parent="E1IkTecaXCfYjuHMglz0-483">
          <mxGeometry x="90" y="80" width="45" height="40" as="geometry" />
        </mxCell>
        <mxCell id="E1IkTecaXCfYjuHMglz0-495" value="" style="rounded=0;whiteSpace=wrap;html=1;fillColor=#808080;" vertex="1" parent="E1IkTecaXCfYjuHMglz0-483">
          <mxGeometry x="135" y="80" width="45" height="40" as="geometry" />
        </mxCell>
        <mxCell id="E1IkTecaXCfYjuHMglz0-496" value="" style="rounded=0;whiteSpace=wrap;html=1;fillColor=#808080;" vertex="1" parent="E1IkTecaXCfYjuHMglz0-483">
          <mxGeometry y="120" width="45" height="40" as="geometry" />
        </mxCell>
        <mxCell id="E1IkTecaXCfYjuHMglz0-497" value="" style="rounded=0;whiteSpace=wrap;html=1;" vertex="1" parent="E1IkTecaXCfYjuHMglz0-483">
          <mxGeometry x="45" y="120" width="45" height="40" as="geometry" />
        </mxCell>
        <mxCell id="E1IkTecaXCfYjuHMglz0-498" value="" style="rounded=0;whiteSpace=wrap;html=1;fillColor=#808080;" vertex="1" parent="E1IkTecaXCfYjuHMglz0-483">
          <mxGeometry x="90" y="120" width="45" height="40" as="geometry" />
        </mxCell>
        <mxCell id="E1IkTecaXCfYjuHMglz0-499" value="" style="rounded=0;whiteSpace=wrap;html=1;" vertex="1" parent="E1IkTecaXCfYjuHMglz0-483">
          <mxGeometry x="135" y="120" width="45" height="40" as="geometry" />
        </mxCell>
        <mxCell id="E1IkTecaXCfYjuHMglz0-500" value="" style="shape=image;html=1;verticalAlign=top;verticalLabelPosition=bottom;labelBackgroundColor=#ffffff;imageAspect=0;aspect=fixed;image=https://cdn1.iconfinder.com/data/icons/photo-stickers-hats/128/hat_10-128.png;fillColor=#808080;" vertex="1" parent="E1IkTecaXCfYjuHMglz0-483">
          <mxGeometry x="47.5" width="40" height="40" as="geometry" />
        </mxCell>
        <mxCell id="E1IkTecaXCfYjuHMglz0-501" value="" style="shape=image;html=1;verticalAlign=top;verticalLabelPosition=bottom;labelBackgroundColor=#ffffff;imageAspect=0;aspect=fixed;image=https://cdn1.iconfinder.com/data/icons/photo-stickers-hats/128/hat_10-128.png;fillColor=#808080;" vertex="1" parent="E1IkTecaXCfYjuHMglz0-483">
          <mxGeometry x="92.5" y="120" width="40" height="40" as="geometry" />
        </mxCell>
        <mxCell id="E1IkTecaXCfYjuHMglz0-502" value="" style="shape=image;html=1;verticalAlign=top;verticalLabelPosition=bottom;labelBackgroundColor=#ffffff;imageAspect=0;aspect=fixed;image=https://cdn1.iconfinder.com/data/icons/photo-stickers-hats/128/hat_10-128.png;fillColor=#808080;" vertex="1" parent="E1IkTecaXCfYjuHMglz0-483">
          <mxGeometry x="2.5" y="80" width="40" height="40" as="geometry" />
        </mxCell>
        <mxCell id="E1IkTecaXCfYjuHMglz0-544" value="&lt;font style=&quot;font-size: 36px&quot;&gt;3&lt;br&gt;&lt;/font&gt;" style="text;html=1;strokeColor=#2BFF4F;fillColor=none;align=center;verticalAlign=middle;whiteSpace=wrap;rounded=0;" vertex="1" parent="1">
          <mxGeometry x="2467.5" y="860" width="145" height="40" as="geometry" />
        </mxCell>
        <mxCell id="E1IkTecaXCfYjuHMglz0-547" value="" style="endArrow=classic;html=1;exitX=0.5;exitY=1;exitDx=0;exitDy=0;entryX=0;entryY=0;entryDx=0;entryDy=0;" edge="1" parent="1" source="E1IkTecaXCfYjuHMglz0-423" target="E1IkTecaXCfYjuHMglz0-486">
          <mxGeometry width="50" height="50" relative="1" as="geometry">
            <mxPoint x="2230" y="680" as="sourcePoint" />
            <mxPoint x="2280" y="630" as="targetPoint" />
          </mxGeometry>
        </mxCell>
        <mxCell id="E1IkTecaXCfYjuHMglz0-592" value="" style="group" vertex="1" connectable="0" parent="1">
          <mxGeometry x="2450" y="990" width="180" height="160" as="geometry" />
        </mxCell>
        <mxCell id="E1IkTecaXCfYjuHMglz0-593" value="" style="group;fillColor=#A3A3A3;" vertex="1" connectable="0" parent="E1IkTecaXCfYjuHMglz0-592">
          <mxGeometry width="180" height="160" as="geometry" />
        </mxCell>
        <mxCell id="E1IkTecaXCfYjuHMglz0-594" value="" style="rounded=0;whiteSpace=wrap;html=1;" vertex="1" parent="E1IkTecaXCfYjuHMglz0-593">
          <mxGeometry width="45" height="40" as="geometry" />
        </mxCell>
        <mxCell id="E1IkTecaXCfYjuHMglz0-595" value="" style="rounded=0;whiteSpace=wrap;html=1;fillColor=#808080;" vertex="1" parent="E1IkTecaXCfYjuHMglz0-593">
          <mxGeometry x="45" width="45" height="40" as="geometry" />
        </mxCell>
        <mxCell id="E1IkTecaXCfYjuHMglz0-596" value="" style="rounded=0;whiteSpace=wrap;html=1;" vertex="1" parent="E1IkTecaXCfYjuHMglz0-593">
          <mxGeometry x="90" width="45" height="40" as="geometry" />
        </mxCell>
        <mxCell id="E1IkTecaXCfYjuHMglz0-597" value="" style="rounded=0;whiteSpace=wrap;html=1;fillColor=#808080;" vertex="1" parent="E1IkTecaXCfYjuHMglz0-593">
          <mxGeometry x="135" width="45" height="40" as="geometry" />
        </mxCell>
        <mxCell id="E1IkTecaXCfYjuHMglz0-598" value="" style="rounded=0;whiteSpace=wrap;html=1;fillColor=#808080;" vertex="1" parent="E1IkTecaXCfYjuHMglz0-593">
          <mxGeometry y="40" width="45" height="40" as="geometry" />
        </mxCell>
        <mxCell id="E1IkTecaXCfYjuHMglz0-599" value="" style="rounded=0;whiteSpace=wrap;html=1;" vertex="1" parent="E1IkTecaXCfYjuHMglz0-593">
          <mxGeometry x="45" y="40" width="45" height="40" as="geometry" />
        </mxCell>
        <mxCell id="E1IkTecaXCfYjuHMglz0-600" value="" style="rounded=0;whiteSpace=wrap;html=1;fillColor=#808080;" vertex="1" parent="E1IkTecaXCfYjuHMglz0-593">
          <mxGeometry x="90" y="40" width="45" height="40" as="geometry" />
        </mxCell>
        <mxCell id="E1IkTecaXCfYjuHMglz0-601" value="" style="rounded=0;whiteSpace=wrap;html=1;" vertex="1" parent="E1IkTecaXCfYjuHMglz0-593">
          <mxGeometry x="135" y="40" width="45" height="40" as="geometry" />
        </mxCell>
        <mxCell id="E1IkTecaXCfYjuHMglz0-602" value="" style="rounded=0;whiteSpace=wrap;html=1;" vertex="1" parent="E1IkTecaXCfYjuHMglz0-593">
          <mxGeometry y="80" width="45" height="40" as="geometry" />
        </mxCell>
        <mxCell id="E1IkTecaXCfYjuHMglz0-603" value="" style="rounded=0;whiteSpace=wrap;html=1;fillColor=#808080;" vertex="1" parent="E1IkTecaXCfYjuHMglz0-593">
          <mxGeometry x="45" y="80" width="45" height="40" as="geometry" />
        </mxCell>
        <mxCell id="E1IkTecaXCfYjuHMglz0-604" value="" style="rounded=0;whiteSpace=wrap;html=1;" vertex="1" parent="E1IkTecaXCfYjuHMglz0-593">
          <mxGeometry x="90" y="80" width="45" height="40" as="geometry" />
        </mxCell>
        <mxCell id="E1IkTecaXCfYjuHMglz0-605" value="" style="rounded=0;whiteSpace=wrap;html=1;fillColor=#808080;" vertex="1" parent="E1IkTecaXCfYjuHMglz0-593">
          <mxGeometry x="135" y="80" width="45" height="40" as="geometry" />
        </mxCell>
        <mxCell id="E1IkTecaXCfYjuHMglz0-606" value="" style="rounded=0;whiteSpace=wrap;html=1;fillColor=#808080;" vertex="1" parent="E1IkTecaXCfYjuHMglz0-593">
          <mxGeometry y="120" width="45" height="40" as="geometry" />
        </mxCell>
        <mxCell id="E1IkTecaXCfYjuHMglz0-607" value="" style="rounded=0;whiteSpace=wrap;html=1;" vertex="1" parent="E1IkTecaXCfYjuHMglz0-593">
          <mxGeometry x="45" y="120" width="45" height="40" as="geometry" />
        </mxCell>
        <mxCell id="E1IkTecaXCfYjuHMglz0-608" value="" style="rounded=0;whiteSpace=wrap;html=1;fillColor=#808080;" vertex="1" parent="E1IkTecaXCfYjuHMglz0-593">
          <mxGeometry x="90" y="120" width="45" height="40" as="geometry" />
        </mxCell>
        <mxCell id="E1IkTecaXCfYjuHMglz0-609" value="" style="rounded=0;whiteSpace=wrap;html=1;" vertex="1" parent="E1IkTecaXCfYjuHMglz0-593">
          <mxGeometry x="135" y="120" width="45" height="40" as="geometry" />
        </mxCell>
        <mxCell id="E1IkTecaXCfYjuHMglz0-610" value="" style="shape=image;html=1;verticalAlign=top;verticalLabelPosition=bottom;labelBackgroundColor=#ffffff;imageAspect=0;aspect=fixed;image=https://cdn1.iconfinder.com/data/icons/photo-stickers-hats/128/hat_10-128.png;fillColor=#808080;" vertex="1" parent="E1IkTecaXCfYjuHMglz0-593">
          <mxGeometry x="47.5" width="40" height="40" as="geometry" />
        </mxCell>
        <mxCell id="E1IkTecaXCfYjuHMglz0-611" value="" style="group;fillColor=#A3A3A3;" vertex="1" connectable="0" parent="E1IkTecaXCfYjuHMglz0-592">
          <mxGeometry width="180" height="160" as="geometry" />
        </mxCell>
        <mxCell id="E1IkTecaXCfYjuHMglz0-612" value="" style="rounded=0;whiteSpace=wrap;html=1;" vertex="1" parent="E1IkTecaXCfYjuHMglz0-611">
          <mxGeometry width="45" height="40" as="geometry" />
        </mxCell>
        <mxCell id="E1IkTecaXCfYjuHMglz0-613" value="" style="rounded=0;whiteSpace=wrap;html=1;fillColor=#808080;" vertex="1" parent="E1IkTecaXCfYjuHMglz0-611">
          <mxGeometry x="45" width="45" height="40" as="geometry" />
        </mxCell>
        <mxCell id="E1IkTecaXCfYjuHMglz0-614" value="" style="rounded=0;whiteSpace=wrap;html=1;" vertex="1" parent="E1IkTecaXCfYjuHMglz0-611">
          <mxGeometry x="90" width="45" height="40" as="geometry" />
        </mxCell>
        <mxCell id="E1IkTecaXCfYjuHMglz0-615" value="" style="rounded=0;whiteSpace=wrap;html=1;fillColor=#808080;" vertex="1" parent="E1IkTecaXCfYjuHMglz0-611">
          <mxGeometry x="135" width="45" height="40" as="geometry" />
        </mxCell>
        <mxCell id="E1IkTecaXCfYjuHMglz0-616" value="" style="rounded=0;whiteSpace=wrap;html=1;fillColor=#808080;" vertex="1" parent="E1IkTecaXCfYjuHMglz0-611">
          <mxGeometry y="40" width="45" height="40" as="geometry" />
        </mxCell>
        <mxCell id="E1IkTecaXCfYjuHMglz0-617" value="" style="rounded=0;whiteSpace=wrap;html=1;" vertex="1" parent="E1IkTecaXCfYjuHMglz0-611">
          <mxGeometry x="45" y="40" width="45" height="40" as="geometry" />
        </mxCell>
        <mxCell id="E1IkTecaXCfYjuHMglz0-618" value="" style="rounded=0;whiteSpace=wrap;html=1;fillColor=#808080;" vertex="1" parent="E1IkTecaXCfYjuHMglz0-611">
          <mxGeometry x="90" y="40" width="45" height="40" as="geometry" />
        </mxCell>
        <mxCell id="E1IkTecaXCfYjuHMglz0-619" value="" style="rounded=0;whiteSpace=wrap;html=1;" vertex="1" parent="E1IkTecaXCfYjuHMglz0-611">
          <mxGeometry x="135" y="40" width="45" height="40" as="geometry" />
        </mxCell>
        <mxCell id="E1IkTecaXCfYjuHMglz0-620" value="" style="rounded=0;whiteSpace=wrap;html=1;" vertex="1" parent="E1IkTecaXCfYjuHMglz0-611">
          <mxGeometry y="80" width="45" height="40" as="geometry" />
        </mxCell>
        <mxCell id="E1IkTecaXCfYjuHMglz0-621" value="" style="rounded=0;whiteSpace=wrap;html=1;fillColor=#808080;" vertex="1" parent="E1IkTecaXCfYjuHMglz0-611">
          <mxGeometry x="45" y="80" width="45" height="40" as="geometry" />
        </mxCell>
        <mxCell id="E1IkTecaXCfYjuHMglz0-622" value="" style="rounded=0;whiteSpace=wrap;html=1;" vertex="1" parent="E1IkTecaXCfYjuHMglz0-611">
          <mxGeometry x="90" y="80" width="45" height="40" as="geometry" />
        </mxCell>
        <mxCell id="E1IkTecaXCfYjuHMglz0-623" value="" style="rounded=0;whiteSpace=wrap;html=1;fillColor=#808080;" vertex="1" parent="E1IkTecaXCfYjuHMglz0-611">
          <mxGeometry x="135" y="80" width="45" height="40" as="geometry" />
        </mxCell>
        <mxCell id="E1IkTecaXCfYjuHMglz0-624" value="" style="rounded=0;whiteSpace=wrap;html=1;fillColor=#808080;" vertex="1" parent="E1IkTecaXCfYjuHMglz0-611">
          <mxGeometry y="120" width="45" height="40" as="geometry" />
        </mxCell>
        <mxCell id="E1IkTecaXCfYjuHMglz0-625" value="" style="rounded=0;whiteSpace=wrap;html=1;" vertex="1" parent="E1IkTecaXCfYjuHMglz0-611">
          <mxGeometry x="45" y="120" width="45" height="40" as="geometry" />
        </mxCell>
        <mxCell id="E1IkTecaXCfYjuHMglz0-626" value="" style="rounded=0;whiteSpace=wrap;html=1;fillColor=#808080;" vertex="1" parent="E1IkTecaXCfYjuHMglz0-611">
          <mxGeometry x="90" y="120" width="45" height="40" as="geometry" />
        </mxCell>
        <mxCell id="E1IkTecaXCfYjuHMglz0-627" value="" style="rounded=0;whiteSpace=wrap;html=1;" vertex="1" parent="E1IkTecaXCfYjuHMglz0-611">
          <mxGeometry x="135" y="120" width="45" height="40" as="geometry" />
        </mxCell>
        <mxCell id="E1IkTecaXCfYjuHMglz0-628" value="" style="shape=image;html=1;verticalAlign=top;verticalLabelPosition=bottom;labelBackgroundColor=#ffffff;imageAspect=0;aspect=fixed;image=https://cdn1.iconfinder.com/data/icons/photo-stickers-hats/128/hat_10-128.png;fillColor=#808080;" vertex="1" parent="E1IkTecaXCfYjuHMglz0-611">
          <mxGeometry x="47.5" width="40" height="40" as="geometry" />
        </mxCell>
        <mxCell id="E1IkTecaXCfYjuHMglz0-629" value="" style="shape=image;html=1;verticalAlign=top;verticalLabelPosition=bottom;labelBackgroundColor=#ffffff;imageAspect=0;aspect=fixed;image=https://cdn1.iconfinder.com/data/icons/photo-stickers-hats/128/hat_10-128.png;fillColor=#808080;" vertex="1" parent="E1IkTecaXCfYjuHMglz0-611">
          <mxGeometry x="92.5" y="120" width="40" height="40" as="geometry" />
        </mxCell>
        <mxCell id="E1IkTecaXCfYjuHMglz0-630" value="" style="shape=image;html=1;verticalAlign=top;verticalLabelPosition=bottom;labelBackgroundColor=#ffffff;imageAspect=0;aspect=fixed;image=https://cdn1.iconfinder.com/data/icons/photo-stickers-hats/128/hat_10-128.png;fillColor=#808080;" vertex="1" parent="E1IkTecaXCfYjuHMglz0-611">
          <mxGeometry x="2.5" y="80" width="40" height="40" as="geometry" />
        </mxCell>
        <mxCell id="E1IkTecaXCfYjuHMglz0-634" value="" style="shape=image;html=1;verticalAlign=top;verticalLabelPosition=bottom;labelBackgroundColor=#ffffff;imageAspect=0;aspect=fixed;image=https://cdn1.iconfinder.com/data/icons/photo-stickers-hats/128/hat_10-128.png;fillColor=#808080;" vertex="1" parent="E1IkTecaXCfYjuHMglz0-611">
          <mxGeometry x="137.5" y="40" width="40" height="40" as="geometry" />
        </mxCell>
        <mxCell id="E1IkTecaXCfYjuHMglz0-631" value="&lt;font style=&quot;font-size: 36px&quot;&gt;Selesai&lt;/font&gt;" style="text;html=1;strokeColor=#2BFF4F;fillColor=none;align=center;verticalAlign=middle;whiteSpace=wrap;rounded=0;" vertex="1" parent="1">
          <mxGeometry x="2467.5" y="1150" width="145" height="40" as="geometry" />
        </mxCell>
        <mxCell id="E1IkTecaXCfYjuHMglz0-633" value="" style="endArrow=classic;html=1;exitX=0.5;exitY=1;exitDx=0;exitDy=0;entryX=0;entryY=0;entryDx=0;entryDy=0;" edge="1" parent="1">
          <mxGeometry width="50" height="50" relative="1" as="geometry">
            <mxPoint x="2539.41" y="899.9999999999998" as="sourcePoint" />
            <mxPoint x="2539.41" y="989.9999999999998" as="targetPoint" />
          </mxGeometry>
        </mxCell>
      </root>
    </mxGraphModel>
  </diagram>
</mxfile>
